Kurale-Book.ufo
<glyph name="exclam" format="2">
	<advance width="246"/>
	<unicode hex="0021"/>
	<outline>
		<contour>
			<point x="125" y="180"/>
			<point x="131" y="193"/>
			<point x="134" y="221" type="curve" smooth="yes"/>
			<point x="151" y="401"/>
			<point x="168" y="601"/>
			<point x="168" y="672" type="curve"/>
			<point x="153" y="688"/>
			<point x="135" y="695"/>
			<point x="112" y="695" type="curve" smooth="yes"/>
			<point x="87" y="695"/>
			<point x="68" y="688"/>
			<point x="54" y="672" type="curve"/>
			<point x="54" y="601"/>
			<point x="70" y="401"/>
			<point x="88" y="221" type="curve" smooth="yes"/>
			<point x="91" y="193"/>
			<point x="99" y="180"/>
			<point x="112" y="180" type="curve" smooth="yes"/>
		</contour>
		<contour>
			<point x="134" y="-13"/>
			<point x="168" y="23"/>
			<point x="168" y="46" type="curve" smooth="yes"/>
			<point x="168" y="71"/>
			<point x="134" y="106"/>
			<point x="112" y="106" type="curve" smooth="yes"/>
			<point x="90" y="106"/>
			<point x="56" y="71"/>
			<point x="56" y="46" type="curve" smooth="yes"/>
			<point x="56" y="23"/>
			<point x="91" y="-13"/>
			<point x="112" y="-13" type="curve" smooth="yes"/>
		</contour>
	</outline>
</glyph>
<glyph name="quotedbl" format="2">
	<advance width="343"/>
	<unicode hex="0022"/>
	<outline>
		<contour>
			<point x="92" y="519"/>
			<point x="96" y="524"/>
			<point x="99" y="535" type="curve" smooth="yes"/>
			<point x="117" y="612"/>
			<point x="127" y="696"/>
			<point x="127" y="729" type="curve"/>
			<point x="116" y="747"/>
			<point x="100" y="755"/>
			<point x="81" y="755" type="curve" smooth="yes"/>
			<point x="61" y="755"/>
			<point x="46" y="747"/>
			<point x="34" y="729" type="curve"/>
			<point x="34" y="690"/>
			<point x="47" y="601"/>
			<point x="63" y="535" type="curve"/>
			<point x="64" y="524"/>
			<point x="70" y="519"/>
			<point x="81" y="519" type="curve" smooth="yes"/>
		</contour>
		<contour>
			<point x="240" y="519"/>
			<point x="246" y="524"/>
			<point x="248" y="535" type="curve" smooth="yes"/>
			<point x="266" y="612"/>
			<point x="276" y="696"/>
			<point x="276" y="729" type="curve"/>
			<point x="265" y="747"/>
			<point x="249" y="755"/>
			<point x="229" y="755" type="curve" smooth="yes"/>
			<point x="211" y="755"/>
			<point x="194" y="747"/>
			<point x="184" y="729" type="curve"/>
			<point x="184" y="690"/>
			<point x="196" y="601"/>
			<point x="212" y="535" type="curve" smooth="yes"/>
			<point x="215" y="524"/>
			<point x="219" y="519"/>
			<point x="229" y="519" type="curve" smooth="yes"/>
		</contour>
	</outline>
</glyph>
<glyph name="numbersign" format="2">
	<advance width="696"/>
	<unicode hex="0023"/>
	<outline>
		<contour>
			<point x="144" y="0" type="line"/>
			<point x="200" y="204" type="line"/>
			<point x="362" y="204" type="line"/>
			<point x="307" y="0" type="line"/>
			<point x="370" y="0" type="line"/>
			<point x="427" y="204" type="line"/>
			<point x="518" y="204" type="line"/>
			<point x="534" y="263" type="line"/>
			<point x="443" y="263" type="line"/>
			<point x="478" y="385" type="line"/>
			<point x="568" y="385" type="line"/>
			<point x="585" y="443" type="line"/>
			<point x="494" y="443" type="line"/>
			<point x="552" y="650" type="line"/>
			<point x="486" y="650" type="line"/>
			<point x="430" y="443" type="line"/>
			<point x="268" y="443" type="line"/>
			<point x="325" y="650" type="line"/>
			<point x="260" y="650" type="line"/>
			<point x="204" y="443" type="line"/>
			<point x="113" y="443" type="line"/>
			<point x="96" y="385" type="line"/>
			<point x="186" y="385" type="line"/>
			<point x="151" y="263" type="line"/>
			<point x="62" y="263" type="line"/>
			<point x="46" y="204" type="line"/>
			<point x="136" y="204" type="line"/>
			<point x="80" y="0" type="line"/>
		</contour>
		<contour>
			<point x="251" y="385" type="line"/>
			<point x="411" y="385" type="line"/>
			<point x="379" y="263" type="line"/>
			<point x="217" y="263" type="line"/>
		</contour>
	</outline>
</glyph>
<glyph name="dollar" format="2">
	<advance width="581"/>
	<unicode hex="0024"/>
	<outline>
		<contour>
			<point x="249" y="-138"/>
			<point x="274" y="-133"/>
			<point x="286" y="-117" type="curve"/>
			<point x="286" y="1" type="line"/>
			<point x="394" y="11"/>
			<point x="460" y="79"/>
			<point x="460" y="168" type="curve" smooth="yes"/>
			<point x="460" y="381"/>
			<point x="146" y="319"/>
			<point x="146" y="503" type="curve" smooth="yes"/>
			<point x="146" y="549"/>
			<point x="179" y="601"/>
			<point x="251" y="601" type="curve" smooth="yes"/>
			<point x="297" y="601"/>
			<point x="345" y="572"/>
			<point x="345" y="520" type="curve" smooth="yes"/>
			<point x="345" y="472"/>
			<point x="316" y="448"/>
			<point x="316" y="441" type="curve" smooth="yes"/>
			<point x="316" y="430"/>
			<point x="323" y="430"/>
			<point x="337" y="430" type="curve" smooth="yes"/>
			<point x="391" y="430"/>
			<point x="434" y="471"/>
			<point x="434" y="526" type="curve" smooth="yes"/>
			<point x="434" y="597"/>
			<point x="366" y="638"/>
			<point x="286" y="648" type="curve"/>
			<point x="286" y="791" type="line"/>
			<point x="268" y="791"/>
			<point x="241" y="784"/>
			<point x="229" y="768" type="curve"/>
			<point x="229" y="650" type="line"/>
			<point x="113" y="641"/>
			<point x="60" y="557"/>
			<point x="60" y="479" type="curve" smooth="yes"/>
			<point x="60" y="258"/>
			<point x="369" y="302"/>
			<point x="369" y="152" type="curve" smooth="yes"/>
			<point x="369" y="88"/>
			<point x="315" y="51"/>
			<point x="260" y="51" type="curve" smooth="yes"/>
			<point x="196" y="51"/>
			<point x="137" y="87"/>
			<point x="137" y="153" type="curve" smooth="yes"/>
			<point x="137" y="202"/>
			<point x="165" y="223"/>
			<point x="165" y="231" type="curve" smooth="yes"/>
			<point x="165" y="242"/>
			<point x="160" y="242"/>
			<point x="146" y="242" type="curve" smooth="yes"/>
			<point x="91" y="242"/>
			<point x="49" y="205"/>
			<point x="49" y="146" type="curve" smooth="yes"/>
			<point x="49" y="58"/>
			<point x="133" y="10"/>
			<point x="229" y="1" type="curve"/>
			<point x="229" y="-138" type="line"/>
		</contour>
	</outline>
</glyph>
<glyph name="percent" format="2">
	<advance width="1018"/>
	<unicode hex="0025"/>
	<outline>
		<contour>
			<point x="357" y="0" type="line"/>
			<point x="631" y="650" type="line"/>
			<point x="565" y="650" type="line"/>
			<point x="294" y="0" type="line"/>
		</contour>
		<contour>
			<point x="309" y="253"/>
			<point x="370" y="352"/>
			<point x="370" y="470" type="curve" smooth="yes"/>
			<point x="370" y="577"/>
			<point x="316" y="662"/>
			<point x="214" y="662" type="curve" smooth="yes"/>
			<point x="107" y="662"/>
			<point x="46" y="570"/>
			<point x="46" y="457" type="curve" smooth="yes"/>
			<point x="46" y="360"/>
			<point x="84" y="253"/>
			<point x="199" y="253" type="curve" smooth="yes"/>
		</contour>
		<contour>
			<point x="148" y="295"/>
			<point x="121" y="366"/>
			<point x="121" y="457" type="curve" smooth="yes"/>
			<point x="121" y="545"/>
			<point x="148" y="619"/>
			<point x="208" y="619" type="curve" smooth="yes"/>
			<point x="267" y="619"/>
			<point x="293" y="545"/>
			<point x="293" y="457" type="curve" smooth="yes"/>
			<point x="293" y="366"/>
			<point x="267" y="295"/>
			<point x="208" y="295" type="curve" smooth="yes"/>
		</contour>
		<contour>
			<point x="815" y="-13"/>
			<point x="877" y="87"/>
			<point x="877" y="205" type="curve" smooth="yes"/>
			<point x="877" y="313"/>
			<point x="823" y="396"/>
			<point x="721" y="396" type="curve" smooth="yes"/>
			<point x="614" y="396"/>
			<point x="553" y="306"/>
			<point x="553" y="192" type="curve" smooth="yes"/>
			<point x="553" y="96"/>
			<point x="591" y="-13"/>
			<point x="706" y="-13" type="curve" smooth="yes"/>
		</contour>
		<contour>
			<point x="655" y="30"/>
			<point x="629" y="102"/>
			<point x="629" y="192" type="curve" smooth="yes"/>
			<point x="629" y="280"/>
			<point x="655" y="354"/>
			<point x="715" y="354" type="curve" smooth="yes"/>
			<point x="773" y="354"/>
			<point x="800" y="280"/>
			<point x="800" y="192" type="curve" smooth="yes"/>
			<point x="800" y="102"/>
			<point x="773" y="30"/>
			<point x="715" y="30" type="curve" smooth="yes"/>
		</contour>
	</outline>
</glyph>
<glyph name="ampersand" format="2">
	<advance width="668"/>
	<unicode hex="0026"/>
	<outline>
		<contour>
			<point x="415" y="-13"/>
			<point x="470" y="74"/>
			<point x="470" y="144" type="curve" smooth="yes"/>
			<point x="470" y="180"/>
			<point x="452" y="215"/>
			<point x="426" y="237" type="curve"/>
			<point x="506" y="243"/>
			<point x="605" y="266"/>
			<point x="605" y="356" type="curve" smooth="yes"/>
			<point x="605" y="414"/>
			<point x="560" y="450"/>
			<point x="509" y="450" type="curve" smooth="yes"/>
			<point x="492" y="450"/>
			<point x="470" y="446"/>
			<point x="470" y="437" type="curve" smooth="yes"/>
			<point x="470" y="425"/>
			<point x="518" y="409"/>
			<point x="518" y="352" type="curve" smooth="yes"/>
			<point x="518" y="221"/>
			<point x="222" y="318"/>
			<point x="222" y="215" type="curve" smooth="yes"/>
			<point x="222" y="201"/>
			<point x="230" y="186"/>
			<point x="240" y="186" type="curve" smooth="yes"/>
			<point x="254" y="186"/>
			<point x="260" y="226"/>
			<point x="347" y="232" type="curve"/>
			<point x="356" y="232"/>
			<point x="367" y="233"/>
			<point x="381" y="233" type="curve"/>
			<point x="394" y="217"/>
			<point x="403" y="193"/>
			<point x="403" y="160" type="curve" smooth="yes"/>
			<point x="403" y="79"/>
			<point x="344" y="35"/>
			<point x="264" y="35" type="curve" smooth="yes"/>
			<point x="180" y="35"/>
			<point x="131" y="105"/>
			<point x="131" y="175" type="curve" smooth="yes"/>
			<point x="131" y="245"/>
			<point x="174" y="314"/>
			<point x="274" y="341" type="curve"/>
			<point x="283" y="341"/>
			<point x="286" y="352"/>
			<point x="286" y="358" type="curve" smooth="yes"/>
			<point x="286" y="367"/>
			<point x="282" y="379"/>
			<point x="273" y="379" type="curve" smooth="yes"/>
			<point x="215" y="379"/>
			<point x="163" y="420"/>
			<point x="163" y="505" type="curve" smooth="yes"/>
			<point x="163" y="564"/>
			<point x="202" y="621"/>
			<point x="277" y="621" type="curve" smooth="yes"/>
			<point x="329" y="621"/>
			<point x="360" y="591"/>
			<point x="360" y="546" type="curve" smooth="yes"/>
			<point x="360" y="504"/>
			<point x="342" y="491"/>
			<point x="342" y="485" type="curve" smooth="yes"/>
			<point x="342" y="479"/>
			<point x="348" y="476"/>
			<point x="360" y="476" type="curve" smooth="yes"/>
			<point x="409" y="476"/>
			<point x="439" y="508"/>
			<point x="439" y="555" type="curve" smooth="yes"/>
			<point x="439" y="619"/>
			<point x="371" y="663"/>
			<point x="287" y="663" type="curve" smooth="yes"/>
			<point x="138" y="663"/>
			<point x="63" y="582"/>
			<point x="63" y="500" type="curve" smooth="yes"/>
			<point x="63" y="417"/>
			<point x="115" y="369"/>
			<point x="192" y="351" type="curve"/>
			<point x="83" y="321"/>
			<point x="28" y="255"/>
			<point x="28" y="174" type="curve" smooth="yes"/>
			<point x="28" y="55"/>
			<point x="119" y="-13"/>
			<point x="259" y="-13" type="curve" smooth="yes"/>
		</contour>
	</outline>
</glyph>
<glyph name="quotesingle" format="2">
	<advance width="178"/>
	<unicode hex="0027"/>
	<outline>
		<contour>
			<point x="92" y="519"/>
			<point x="96" y="524"/>
			<point x="99" y="535" type="curve" smooth="yes"/>
			<point x="117" y="612"/>
			<point x="127" y="696"/>
			<point x="127" y="729" type="curve"/>
			<point x="116" y="747"/>
			<point x="100" y="755"/>
			<point x="81" y="755" type="curve" smooth="yes"/>
			<point x="61" y="755"/>
			<point x="46" y="747"/>
			<point x="34" y="729" type="curve"/>
			<point x="34" y="690"/>
			<point x="47" y="601"/>
			<point x="63" y="535" type="curve"/>
			<point x="64" y="524"/>
			<point x="70" y="519"/>
			<point x="81" y="519" type="curve" smooth="yes"/>
		</contour>
	</outline>
</glyph>
<glyph name="parenleft" format="2">
	<advance width="352"/>
	<unicode hex="0028"/>
	<outline>
		<contour>
			<point x="291" y="-61" type="line"/>
			<point x="210" y="-8"/>
			<point x="149" y="117"/>
			<point x="149" y="300" type="curve" smooth="yes"/>
			<point x="149" y="481"/>
			<point x="210" y="608"/>
			<point x="291" y="661" type="curve"/>
			<point x="291" y="701" type="line"/>
			<point x="141" y="638"/>
			<point x="52" y="504"/>
			<point x="52" y="300" type="curve" smooth="yes"/>
			<point x="52" y="94"/>
			<point x="141" y="-39"/>
			<point x="291" y="-101" type="curve"/>
		</contour>
	</outline>
</glyph>
<glyph name="parenright" format="2">
	<advance width="352"/>
	<unicode hex="0029"/>
	<outline>
		<contour>
			<point x="179" y="-39"/>
			<point x="267" y="94"/>
			<point x="267" y="300" type="curve" smooth="yes"/>
			<point x="267" y="504"/>
			<point x="179" y="638"/>
			<point x="28" y="701" type="curve"/>
			<point x="28" y="661" type="line"/>
			<point x="109" y="608"/>
			<point x="169" y="481"/>
			<point x="169" y="300" type="curve" smooth="yes"/>
			<point x="169" y="117"/>
			<point x="109" y="-8"/>
			<point x="28" y="-61" type="curve"/>
			<point x="28" y="-101" type="line"/>
		</contour>
	</outline>
</glyph>
<glyph name="asterisk" format="2">
	<advance width="574"/>
	<unicode hex="002A"/>
	<outline>
		<contour>
			<point x="379" y="372"/>
			<point x="400" y="397"/>
			<point x="400" y="433" type="curve"/>
			<point x="350" y="480"/>
			<point x="313" y="517"/>
			<point x="290" y="538" type="curve"/>
			<point x="322" y="542"/>
			<point x="372" y="550"/>
			<point x="442" y="559" type="curve"/>
			<point x="452" y="570"/>
			<point x="456" y="582"/>
			<point x="456" y="595" type="curve" smooth="yes"/>
			<point x="456" y="621"/>
			<point x="440" y="640"/>
			<point x="413" y="646" type="curve"/>
			<point x="352" y="613"/>
			<point x="308" y="588"/>
			<point x="277" y="573" type="curve"/>
			<point x="307" y="725" type="line"/>
			<point x="296" y="743"/>
			<point x="278" y="752"/>
			<point x="260" y="752" type="curve" smooth="yes"/>
			<point x="240" y="752"/>
			<point x="225" y="743"/>
			<point x="214" y="725" type="curve"/>
			<point x="228" y="656"/>
			<point x="235" y="606"/>
			<point x="241" y="573" type="curve"/>
			<point x="212" y="589"/>
			<point x="168" y="613"/>
			<point x="106" y="647" type="curve"/>
			<point x="81" y="642"/>
			<point x="63" y="620"/>
			<point x="63" y="593" type="curve" smooth="yes"/>
			<point x="63" y="581"/>
			<point x="68" y="570"/>
			<point x="78" y="559" type="curve"/>
			<point x="146" y="550"/>
			<point x="196" y="542"/>
			<point x="229" y="538" type="curve"/>
			<point x="206" y="517"/>
			<point x="170" y="479"/>
			<point x="119" y="433" type="curve"/>
			<point x="119" y="404"/>
			<point x="135" y="373"/>
			<point x="169" y="373" type="curve" smooth="yes"/>
			<point x="176" y="373"/>
			<point x="186" y="375"/>
			<point x="192" y="379" type="curve"/>
			<point x="223" y="442"/>
			<point x="246" y="486"/>
			<point x="260" y="518" type="curve"/>
			<point x="273" y="486"/>
			<point x="297" y="442"/>
			<point x="326" y="378" type="curve"/>
			<point x="335" y="374"/>
			<point x="342" y="372"/>
			<point x="351" y="372" type="curve" smooth="yes"/>
		</contour>
	</outline>
</glyph>
<glyph name="comma" format="2">
	<advance width="191"/>
	<unicode hex="002C"/>
	<outline>
		<contour>
			<point x="68" y="-74" type="line" smooth="yes"/>
			<point x="110" y="-28"/>
			<point x="143" y="10"/>
			<point x="143" y="47" type="curve" smooth="yes"/>
			<point x="143" y="92"/>
			<point x="116" y="107"/>
			<point x="83" y="107" type="curve" smooth="yes"/>
			<point x="67" y="107"/>
			<point x="49" y="103"/>
			<point x="33" y="97" type="curve" smooth="yes"/>
			<point x="17" y="91" type="line"/>
			<point x="21" y="69" type="line"/>
			<point x="38" y="58" type="line" smooth="yes"/>
			<point x="52" y="48"/>
			<point x="59" y="39"/>
			<point x="59" y="25" type="curve" smooth="yes"/>
			<point x="59" y="15"/>
			<point x="55" y="2"/>
			<point x="48" y="-13" type="curve" smooth="yes"/>
			<point x="6" y="-95" type="line"/>
			<point x="33" y="-112" type="line"/>
		</contour>
	</outline>
</glyph>
<glyph name="hyphen" format="2">
	<advance width="355"/>
	<unicode hex="002D"/>
	<outline>
		<contour>
			<point x="268" y="237" type="line"/>
			<point x="285" y="252"/>
			<point x="292" y="279"/>
			<point x="292" y="302" type="curve"/>
			<point x="53" y="292" type="line"/>
			<point x="36" y="277"/>
			<point x="30" y="250"/>
			<point x="30" y="229" type="curve"/>
		</contour>
	</outline>
</glyph>
<glyph name="period" format="2">
	<advance width="191"/>
	<unicode hex="002E"/>
	<outline>
		<contour>
			<point x="106" y="-13"/>
			<point x="143" y="23"/>
			<point x="143" y="46" type="curve" smooth="yes"/>
			<point x="143" y="71"/>
			<point x="106" y="106"/>
			<point x="85" y="106" type="curve" smooth="yes"/>
			<point x="63" y="106"/>
			<point x="30" y="71"/>
			<point x="30" y="46" type="curve" smooth="yes"/>
			<point x="30" y="23"/>
			<point x="63" y="-13"/>
			<point x="85" y="-13" type="curve" smooth="yes"/>
		</contour>
	</outline>
</glyph>
<glyph name="slash" format="2">
	<advance width="371"/>
	<unicode hex="002F"/>
	<outline>
		<contour>
			<point x="63" y="-58" type="line"/>
			<point x="337" y="708" type="line"/>
			<point x="271" y="708" type="line"/>
			<point x="0" y="-58" type="line"/>
		</contour>
	</outline>
</glyph>
<glyph name="zero" format="2">
	<advance width="693"/>
	<unicode hex="0030"/>
	<outline>
		<contour>
			<point x="476" y="-13"/>
			<point x="573" y="149"/>
			<point x="573" y="345" type="curve" smooth="yes"/>
			<point x="573" y="522"/>
			<point x="489" y="663"/>
			<point x="325" y="663" type="curve" smooth="yes"/>
			<point x="157" y="663"/>
			<point x="54" y="512"/>
			<point x="54" y="326" type="curve" smooth="yes"/>
			<point x="54" y="166"/>
			<point x="118" y="-13"/>
			<point x="303" y="-13" type="curve" smooth="yes"/>
		</contour>
		<contour>
			<point x="202" y="39"/>
			<point x="149" y="167"/>
			<point x="149" y="324" type="curve" smooth="yes"/>
			<point x="149" y="482"/>
			<point x="202" y="612"/>
			<point x="313" y="612" type="curve" smooth="yes"/>
			<point x="423" y="612"/>
			<point x="477" y="482"/>
			<point x="477" y="324" type="curve" smooth="yes"/>
			<point x="477" y="167"/>
			<point x="423" y="39"/>
			<point x="313" y="39" type="curve" smooth="yes"/>
		</contour>
	</outline>
</glyph>
<glyph name="one" format="2">
	<advance width="418"/>
	<unicode hex="0031"/>
	<outline>
		<contour>
			<point x="305" y="0" type="line"/>
			<point x="315" y="15" type="line"/>
			<point x="305" y="31" type="line"/>
			<point x="274" y="70"/>
			<point x="264" y="107"/>
			<point x="264" y="182" type="curve" smooth="yes"/>
			<point x="264" y="616" type="line"/>
			<point x="287" y="631" type="line"/>
			<point x="280" y="646"/>
			<point x="268" y="661"/>
			<point x="251" y="665" type="curve"/>
			<point x="0" y="548" type="line"/>
			<point x="12" y="522"/>
			<point x="34" y="491"/>
			<point x="63" y="486" type="curve"/>
			<point x="174" y="558" type="line"/>
			<point x="174" y="120" type="line" smooth="yes"/>
			<point x="174" y="63"/>
			<point x="162" y="52"/>
			<point x="116" y="40" type="curve" smooth="yes"/>
			<point x="77" y="31" type="line"/>
			<point x="88" y="0" type="line"/>
		</contour>
	</outline>
</glyph>
<glyph name="two" format="2">
	<advance width="596"/>
	<unicode hex="0032"/>
	<outline>
		<contour>
			<point x="473" y="0" type="line"/>
			<point x="496" y="19"/>
			<point x="503" y="54"/>
			<point x="503" y="82" type="curve"/>
			<point x="161" y="82" type="line"/>
			<point x="331" y="222"/>
			<point x="486" y="363"/>
			<point x="486" y="493" type="curve" smooth="yes"/>
			<point x="486" y="604"/>
			<point x="398" y="663"/>
			<point x="265" y="663" type="curve" smooth="yes"/>
			<point x="158" y="663"/>
			<point x="55" y="611"/>
			<point x="55" y="504" type="curve" smooth="yes"/>
			<point x="55" y="448"/>
			<point x="97" y="408"/>
			<point x="151" y="408" type="curve" smooth="yes"/>
			<point x="165" y="408"/>
			<point x="172" y="408"/>
			<point x="172" y="419" type="curve" smooth="yes"/>
			<point x="172" y="429"/>
			<point x="144" y="449"/>
			<point x="144" y="497" type="curve" smooth="yes"/>
			<point x="144" y="574"/>
			<point x="204" y="613"/>
			<point x="265" y="613" type="curve" smooth="yes"/>
			<point x="323" y="613"/>
			<point x="383" y="574"/>
			<point x="383" y="494" type="curve" smooth="yes"/>
			<point x="383" y="384"/>
			<point x="328" y="289"/>
			<point x="34" y="46" type="curve"/>
			<point x="58" y="0" type="line"/>
		</contour>
	</outline>
</glyph>
<glyph name="three" format="2">
	<advance width="596"/>
	<unicode hex="0033"/>
	<outline>
		<contour>
			<point x="399" y="-13"/>
			<point x="490" y="51"/>
			<point x="490" y="167" type="curve" smooth="yes"/>
			<point x="490" y="248"/>
			<point x="439" y="318"/>
			<point x="338" y="341" type="curve"/>
			<point x="420" y="372"/>
			<point x="472" y="426"/>
			<point x="472" y="506" type="curve" smooth="yes"/>
			<point x="472" y="612"/>
			<point x="362" y="663"/>
			<point x="260" y="663" type="curve" smooth="yes"/>
			<point x="162" y="663"/>
			<point x="69" y="618"/>
			<point x="69" y="526" type="curve" smooth="yes"/>
			<point x="69" y="469"/>
			<point x="110" y="430"/>
			<point x="166" y="430" type="curve" smooth="yes"/>
			<point x="179" y="430"/>
			<point x="185" y="433"/>
			<point x="185" y="441" type="curve" smooth="yes"/>
			<point x="185" y="448"/>
			<point x="158" y="472"/>
			<point x="158" y="520" type="curve" smooth="yes"/>
			<point x="158" y="582"/>
			<point x="207" y="613"/>
			<point x="259" y="613" type="curve" smooth="yes"/>
			<point x="313" y="613"/>
			<point x="372" y="577"/>
			<point x="372" y="501" type="curve" smooth="yes"/>
			<point x="372" y="451"/>
			<point x="355" y="375"/>
			<point x="200" y="346" type="curve" smooth="yes"/>
			<point x="152" y="337"/>
			<point x="149" y="330"/>
			<point x="149" y="315" type="curve" smooth="yes"/>
			<point x="149" y="307"/>
			<point x="153" y="300"/>
			<point x="163" y="300" type="curve" smooth="yes"/>
			<point x="170" y="300"/>
			<point x="192" y="309"/>
			<point x="236" y="309" type="curve" smooth="yes"/>
			<point x="371" y="309"/>
			<point x="392" y="222"/>
			<point x="392" y="173" type="curve" smooth="yes"/>
			<point x="392" y="85"/>
			<point x="324" y="45"/>
			<point x="260" y="45" type="curve" smooth="yes"/>
			<point x="197" y="45"/>
			<point x="141" y="79"/>
			<point x="141" y="142" type="curve" smooth="yes"/>
			<point x="141" y="189"/>
			<point x="168" y="210"/>
			<point x="168" y="219" type="curve" smooth="yes"/>
			<point x="168" y="229"/>
			<point x="162" y="229"/>
			<point x="148" y="229" type="curve" smooth="yes"/>
			<point x="94" y="229"/>
			<point x="52" y="191"/>
			<point x="52" y="134" type="curve" smooth="yes"/>
			<point x="52" y="36"/>
			<point x="155" y="-13"/>
			<point x="262" y="-13" type="curve" smooth="yes"/>
		</contour>
	</outline>
</glyph>
<glyph name="four" format="2">
	<advance width="608"/>
	<unicode hex="0034"/>
	<outline>
		<contour>
			<point x="480" y="0" type="line"/>
			<point x="491" y="15" type="line"/>
			<point x="480" y="31" type="line"/>
			<point x="455" y="63"/>
			<point x="442" y="95"/>
			<point x="440" y="146" type="curve"/>
			<point x="503" y="146" type="line"/>
			<point x="520" y="160"/>
			<point x="523" y="185"/>
			<point x="523" y="205" type="curve"/>
			<point x="439" y="205" type="line"/>
			<point x="439" y="435" type="line"/>
			<point x="340" y="424" type="line"/>
			<point x="328" y="409" type="line"/>
			<point x="345" y="383"/>
			<point x="349" y="364"/>
			<point x="349" y="326" type="curve" smooth="yes"/>
			<point x="349" y="205" type="line"/>
			<point x="116" y="205" type="line"/>
			<point x="312" y="636" type="line"/>
			<point x="295" y="650" type="line"/>
			<point x="237" y="650" type="line"/>
			<point x="28" y="146" type="line"/>
			<point x="349" y="146" type="line"/>
			<point x="349" y="120" type="line" smooth="yes"/>
			<point x="349" y="63"/>
			<point x="339" y="52"/>
			<point x="292" y="40" type="curve" smooth="yes"/>
			<point x="254" y="31" type="line"/>
			<point x="264" y="0" type="line"/>
		</contour>
	</outline>
</glyph>
<glyph name="five" format="2">
	<advance width="596"/>
	<unicode hex="0035"/>
	<outline>
		<contour>
			<point x="399" y="-13"/>
			<point x="490" y="59"/>
			<point x="490" y="175" type="curve" smooth="yes"/>
			<point x="490" y="277"/>
			<point x="424" y="376"/>
			<point x="261" y="376" type="curve" smooth="yes"/>
			<point x="228" y="376"/>
			<point x="190" y="373"/>
			<point x="148" y="363" type="curve"/>
			<point x="161" y="568" type="line"/>
			<point x="427" y="568" type="line"/>
			<point x="449" y="587"/>
			<point x="457" y="622"/>
			<point x="457" y="650" type="curve"/>
			<point x="104" y="650" type="line"/>
			<point x="88" y="349" type="line"/>
			<point x="107" y="314" type="line"/>
			<point x="144" y="321"/>
			<point x="175" y="326"/>
			<point x="204" y="326" type="curve" smooth="yes"/>
			<point x="367" y="326"/>
			<point x="392" y="232"/>
			<point x="392" y="175" type="curve" smooth="yes"/>
			<point x="392" y="88"/>
			<point x="324" y="45"/>
			<point x="260" y="45" type="curve" smooth="yes"/>
			<point x="197" y="45"/>
			<point x="141" y="79"/>
			<point x="141" y="142" type="curve" smooth="yes"/>
			<point x="141" y="189"/>
			<point x="168" y="210"/>
			<point x="168" y="219" type="curve" smooth="yes"/>
			<point x="168" y="229"/>
			<point x="162" y="229"/>
			<point x="148" y="229" type="curve" smooth="yes"/>
			<point x="94" y="229"/>
			<point x="52" y="191"/>
			<point x="52" y="134" type="curve" smooth="yes"/>
			<point x="52" y="36"/>
			<point x="155" y="-13"/>
			<point x="262" y="-13" type="curve" smooth="yes"/>
		</contour>
	</outline>
</glyph>
<glyph name="six" format="2">
	<advance width="646"/>
	<unicode hex="0036"/>
	<outline>
		<contour>
			<point x="448" y="-13"/>
			<point x="521" y="82"/>
			<point x="521" y="197" type="curve" smooth="yes"/>
			<point x="521" y="299"/>
			<point x="461" y="380"/>
			<point x="337" y="380" type="curve" smooth="yes"/>
			<point x="235" y="380"/>
			<point x="173" y="326"/>
			<point x="150" y="254" type="curve"/>
			<point x="149" y="267"/>
			<point x="149" y="280"/>
			<point x="149" y="296" type="curve" smooth="yes"/>
			<point x="149" y="438"/>
			<point x="192" y="612"/>
			<point x="326" y="612" type="curve" smooth="yes"/>
			<point x="382" y="612"/>
			<point x="419" y="576"/>
			<point x="419" y="521" type="curve" smooth="yes"/>
			<point x="419" y="478"/>
			<point x="393" y="454"/>
			<point x="393" y="445" type="curve" smooth="yes"/>
			<point x="393" y="438"/>
			<point x="397" y="436"/>
			<point x="411" y="436" type="curve" smooth="yes"/>
			<point x="467" y="436"/>
			<point x="508" y="479"/>
			<point x="508" y="540" type="curve" smooth="yes"/>
			<point x="508" y="612"/>
			<point x="435" y="663"/>
			<point x="328" y="663" type="curve" smooth="yes"/>
			<point x="144" y="663"/>
			<point x="52" y="496"/>
			<point x="52" y="297" type="curve" smooth="yes"/>
			<point x="52" y="131"/>
			<point x="137" y="-13"/>
			<point x="304" y="-13" type="curve" smooth="yes"/>
		</contour>
		<contour>
			<point x="216" y="45"/>
			<point x="186" y="103"/>
			<point x="186" y="177" type="curve" smooth="yes"/>
			<point x="186" y="252"/>
			<point x="226" y="318"/>
			<point x="304" y="318" type="curve" smooth="yes"/>
			<point x="379" y="318"/>
			<point x="410" y="258"/>
			<point x="410" y="184" type="curve" smooth="yes"/>
			<point x="410" y="104"/>
			<point x="369" y="45"/>
			<point x="291" y="45" type="curve" smooth="yes"/>
		</contour>
	</outline>
</glyph>
<glyph name="seven" format="2">
	<advance width="496"/>
	<unicode hex="0037"/>
	<outline>
		<contour>
			<point x="239" y="0" type="line"/>
			<point x="257" y="15" type="line"/>
			<point x="248" y="31" type="line" smooth="yes"/>
			<point x="238" y="48"/>
			<point x="234" y="65"/>
			<point x="234" y="86" type="curve" smooth="yes"/>
			<point x="234" y="112"/>
			<point x="240" y="142"/>
			<point x="257" y="181" type="curve" smooth="yes"/>
			<point x="441" y="650" type="line"/>
			<point x="2" y="650" type="line"/>
			<point x="2" y="622"/>
			<point x="10" y="587"/>
			<point x="33" y="568" type="curve"/>
			<point x="345" y="568" type="line"/>
			<point x="174" y="126" type="line" smooth="yes"/>
			<point x="151" y="71"/>
			<point x="131" y="50"/>
			<point x="82" y="36" type="curve" smooth="yes"/>
			<point x="62" y="31" type="line"/>
			<point x="72" y="0" type="line"/>
		</contour>
	</outline>
</glyph>
<glyph name="eight" format="2">
	<advance width="616"/>
	<unicode hex="0038"/>
	<outline>
		<contour>
			<point x="420" y="-15"/>
			<point x="509" y="56"/>
			<point x="509" y="162" type="curve" smooth="yes"/>
			<point x="509" y="237"/>
			<point x="468" y="294"/>
			<point x="381" y="339" type="curve"/>
			<point x="437" y="372"/>
			<point x="492" y="427"/>
			<point x="492" y="499" type="curve" smooth="yes"/>
			<point x="492" y="619"/>
			<point x="394" y="666"/>
			<point x="272" y="666" type="curve" smooth="yes"/>
			<point x="130" y="666"/>
			<point x="64" y="575"/>
			<point x="64" y="482" type="curve" smooth="yes"/>
			<point x="64" y="404"/>
			<point x="101" y="357"/>
			<point x="169" y="320" type="curve"/>
			<point x="109" y="285"/>
			<point x="49" y="229"/>
			<point x="49" y="149" type="curve" smooth="yes"/>
			<point x="49" y="31"/>
			<point x="148" y="-15"/>
			<point x="271" y="-15" type="curve" smooth="yes"/>
		</contour>
		<contour>
			<point x="191" y="35"/>
			<point x="145" y="85"/>
			<point x="145" y="152" type="curve" smooth="yes"/>
			<point x="145" y="197"/>
			<point x="167" y="251"/>
			<point x="213" y="300" type="curve"/>
			<point x="310" y="258" type="line" smooth="yes"/>
			<point x="378" y="228"/>
			<point x="409" y="200"/>
			<point x="409" y="138" type="curve" smooth="yes"/>
			<point x="409" y="72"/>
			<point x="352" y="35"/>
			<point x="272" y="35" type="curve" smooth="yes"/>
		</contour>
		<contour>
			<point x="277" y="387" type="line" smooth="yes"/>
			<point x="188" y="426"/>
			<point x="159" y="460"/>
			<point x="159" y="509" type="curve" smooth="yes"/>
			<point x="159" y="563"/>
			<point x="205" y="615"/>
			<point x="272" y="615" type="curve" smooth="yes"/>
			<point x="352" y="615"/>
			<point x="395" y="566"/>
			<point x="395" y="500" type="curve" smooth="yes"/>
			<point x="395" y="456"/>
			<point x="375" y="407"/>
			<point x="335" y="360" type="curve"/>
		</contour>
	</outline>
</glyph>
<glyph name="nine" format="2">
	<advance width="646"/>
	<unicode hex="0039"/>
	<outline>
		<contour>
			<point x="438" y="-13"/>
			<point x="521" y="130"/>
			<point x="521" y="309" type="curve" smooth="yes"/>
			<point x="521" y="502"/>
			<point x="454" y="663"/>
			<point x="291" y="663" type="curve" smooth="yes"/>
			<point x="144" y="663"/>
			<point x="70" y="548"/>
			<point x="70" y="439" type="curve" smooth="yes"/>
			<point x="70" y="343"/>
			<point x="130" y="250"/>
			<point x="247" y="250" type="curve" smooth="yes"/>
			<point x="331" y="250"/>
			<point x="394" y="293"/>
			<point x="424" y="354" type="curve"/>
			<point x="425" y="339"/>
			<point x="425" y="322"/>
			<point x="425" y="306" type="curve" smooth="yes"/>
			<point x="425" y="175"/>
			<point x="387" y="39"/>
			<point x="264" y="39" type="curve" smooth="yes"/>
			<point x="211" y="39"/>
			<point x="173" y="70"/>
			<point x="173" y="119" type="curve" smooth="yes"/>
			<point x="173" y="156"/>
			<point x="194" y="177"/>
			<point x="194" y="186" type="curve" smooth="yes"/>
			<point x="194" y="191"/>
			<point x="188" y="196"/>
			<point x="175" y="196" type="curve" smooth="yes"/>
			<point x="123" y="196"/>
			<point x="84" y="164"/>
			<point x="84" y="114" type="curve" smooth="yes"/>
			<point x="84" y="39"/>
			<point x="160" y="-13"/>
			<point x="265" y="-13" type="curve" smooth="yes"/>
		</contour>
		<contour>
			<point x="215" y="314"/>
			<point x="179" y="388"/>
			<point x="179" y="459" type="curve" smooth="yes"/>
			<point x="179" y="531"/>
			<point x="217" y="604"/>
			<point x="298" y="604" type="curve" smooth="yes"/>
			<point x="373" y="604"/>
			<point x="411" y="530"/>
			<point x="411" y="458" type="curve" smooth="yes"/>
			<point x="411" y="388"/>
			<point x="371" y="314"/>
			<point x="289" y="314" type="curve" smooth="yes"/>
		</contour>
	</outline>
</glyph>
<glyph name="colon" format="2">
	<advance width="191"/>
	<unicode hex="003A"/>
	<outline>
		<contour>
			<point x="106" y="313"/>
			<point x="143" y="350"/>
			<point x="143" y="372" type="curve" smooth="yes"/>
			<point x="143" y="397"/>
			<point x="106" y="433"/>
			<point x="85" y="433" type="curve" smooth="yes"/>
			<point x="63" y="433"/>
			<point x="30" y="397"/>
			<point x="30" y="372" type="curve" smooth="yes"/>
			<point x="30" y="350"/>
			<point x="63" y="313"/>
			<point x="85" y="313" type="curve" smooth="yes"/>
		</contour>
		<contour>
			<point x="106" y="-13"/>
			<point x="143" y="23"/>
			<point x="143" y="46" type="curve" smooth="yes"/>
			<point x="143" y="71"/>
			<point x="106" y="106"/>
			<point x="85" y="106" type="curve" smooth="yes"/>
			<point x="63" y="106"/>
			<point x="30" y="71"/>
			<point x="30" y="46" type="curve" smooth="yes"/>
			<point x="30" y="23"/>
			<point x="63" y="-13"/>
			<point x="85" y="-13" type="curve" smooth="yes"/>
		</contour>
	</outline>
</glyph>
<glyph name="less" format="2">
	<advance width="621"/>
	<unicode hex="003C"/>
	<outline>
		<contour>
			<point x="473" y="204" type="line"/>
			<point x="167" y="323" type="line"/>
			<point x="473" y="443" type="line"/>
			<point x="473" y="514" type="line"/>
			<point x="89" y="357" type="line"/>
			<point x="89" y="290" type="line"/>
			<point x="473" y="134" type="line"/>
		</contour>
	</outline>
</glyph>
<glyph name="equal" format="2">
	<advance width="621"/>
	<unicode hex="003D"/>
	<outline>
		<contour>
			<point x="473" y="191" type="line"/>
			<point x="473" y="260" type="line"/>
			<point x="89" y="260" type="line"/>
			<point x="89" y="191" type="line"/>
		</contour>
		<contour>
			<point x="473" y="388" type="line"/>
			<point x="473" y="455" type="line"/>
			<point x="89" y="455" type="line"/>
			<point x="89" y="388" type="line"/>
		</contour>
	</outline>
</glyph>
<glyph name="greater" format="2">
	<advance width="621"/>
	<unicode hex="003E"/>
	<outline>
		<contour>
			<point x="473" y="290" type="line"/>
			<point x="473" y="357" type="line"/>
			<point x="89" y="514" type="line"/>
			<point x="89" y="443" type="line"/>
			<point x="396" y="323" type="line"/>
			<point x="89" y="204" type="line"/>
			<point x="89" y="134" type="line"/>
		</contour>
	</outline>
</glyph>
<glyph name="question" format="2">
	<advance width="538"/>
	<unicode hex="003F"/>
	<outline>
		<contour>
			<point x="223" y="195" type="line"/>
			<point x="227" y="213" type="line"/>
			<point x="237" y="249"/>
			<point x="260" y="271"/>
			<point x="303" y="311" type="curve" smooth="yes"/>
			<point x="382" y="388"/>
			<point x="430" y="461"/>
			<point x="430" y="529" type="curve" smooth="yes"/>
			<point x="430" y="631"/>
			<point x="342" y="688"/>
			<point x="237" y="688" type="curve" smooth="yes"/>
			<point x="126" y="688"/>
			<point x="46" y="637"/>
			<point x="46" y="563" type="curve" smooth="yes"/>
			<point x="46" y="510"/>
			<point x="83" y="473"/>
			<point x="135" y="473" type="curve" smooth="yes"/>
			<point x="146" y="473"/>
			<point x="151" y="477"/>
			<point x="151" y="483" type="curve" smooth="yes"/>
			<point x="151" y="492"/>
			<point x="131" y="506"/>
			<point x="131" y="558" type="curve" smooth="yes"/>
			<point x="131" y="605"/>
			<point x="164" y="636"/>
			<point x="216" y="636" type="curve" smooth="yes"/>
			<point x="280" y="636"/>
			<point x="326" y="600"/>
			<point x="326" y="523" type="curve" smooth="yes"/>
			<point x="326" y="461"/>
			<point x="308" y="390"/>
			<point x="148" y="253" type="curve"/>
			<point x="205" y="195" type="line"/>
		</contour>
		<contour>
			<point x="233" y="-13"/>
			<point x="268" y="23"/>
			<point x="268" y="46" type="curve" smooth="yes"/>
			<point x="268" y="71"/>
			<point x="233" y="106"/>
			<point x="211" y="106" type="curve" smooth="yes"/>
			<point x="189" y="106"/>
			<point x="156" y="71"/>
			<point x="156" y="46" type="curve" smooth="yes"/>
			<point x="156" y="23"/>
			<point x="190" y="-13"/>
			<point x="211" y="-13" type="curve" smooth="yes"/>
		</contour>
	</outline>
</glyph>
<glyph name="at" format="2">
	<advance width="892"/>
	<unicode hex="0040"/>
	<outline>
		<contour>
			<point x="447" y="-100"/>
			<point x="505" y="-81"/>
			<point x="564" y="-46" type="curve"/>
			<point x="542" y="-7" type="line"/>
			<point x="491" y="-38"/>
			<point x="441" y="-48"/>
			<point x="380" y="-48" type="curve" smooth="yes"/>
			<point x="225" y="-48"/>
			<point x="137" y="68"/>
			<point x="137" y="225" type="curve" smooth="yes"/>
			<point x="137" y="410"/>
			<point x="256" y="560"/>
			<point x="430" y="560" type="curve" smooth="yes"/>
			<point x="582" y="560"/>
			<point x="670" y="444"/>
			<point x="670" y="289" type="curve" smooth="yes"/>
			<point x="670" y="145"/>
			<point x="612" y="80"/>
			<point x="576" y="80" type="curve" smooth="yes"/>
			<point x="550" y="80"/>
			<point x="529" y="104"/>
			<point x="529" y="153" type="curve" smooth="yes"/>
			<point x="529" y="159"/>
			<point x="529" y="165"/>
			<point x="549" y="393" type="curve" smooth="yes"/>
			<point x="550" y="404"/>
			<point x="556" y="412"/>
			<point x="560" y="418" type="curve"/>
			<point x="568" y="434" type="line"/>
			<point x="562" y="443" type="line"/>
			<point x="517" y="447"/>
			<point x="454" y="461"/>
			<point x="410" y="461" type="curve" smooth="yes"/>
			<point x="293" y="461"/>
			<point x="211" y="373"/>
			<point x="211" y="231" type="curve" smooth="yes"/>
			<point x="211" y="133"/>
			<point x="262" y="82"/>
			<point x="323" y="82" type="curve" smooth="yes"/>
			<point x="365" y="82"/>
			<point x="415" y="105"/>
			<point x="453" y="151" type="curve"/>
			<point x="453" y="73"/>
			<point x="500" y="33"/>
			<point x="563" y="33" type="curve" smooth="yes"/>
			<point x="693" y="33"/>
			<point x="759" y="174"/>
			<point x="759" y="285" type="curve" smooth="yes"/>
			<point x="759" y="468"/>
			<point x="631" y="612"/>
			<point x="435" y="612" type="curve" smooth="yes"/>
			<point x="220" y="612"/>
			<point x="50" y="437"/>
			<point x="50" y="227" type="curve" smooth="yes"/>
			<point x="50" y="45"/>
			<point x="177" y="-100"/>
			<point x="375" y="-100" type="curve" smooth="yes"/>
		</contour>
		<contour>
			<point x="331" y="150"/>
			<point x="300" y="192"/>
			<point x="300" y="255" type="curve" smooth="yes"/>
			<point x="300" y="327"/>
			<point x="335" y="409"/>
			<point x="409" y="409" type="curve" smooth="yes"/>
			<point x="430" y="409"/>
			<point x="448" y="404"/>
			<point x="468" y="389" type="curve"/>
			<point x="452" y="208" type="line"/>
			<point x="425" y="169"/>
			<point x="395" y="150"/>
			<point x="369" y="150" type="curve" smooth="yes"/>
		</contour>
	</outline>
</glyph>
<glyph name="A" format="2">
	<advance width="639"/>
	<unicode hex="0041"/>
	<outline>
		<contour>
			<point x="163" y="0" type="line"/>
			<point x="180" y="15" type="line"/>
			<point x="173" y="31" type="line"/>
			<point x="163" y="48"/>
			<point x="160" y="65"/>
			<point x="160" y="86" type="curve" smooth="yes"/>
			<point x="160" y="112"/>
			<point x="167" y="141"/>
			<point x="180" y="181" type="curve" smooth="yes"/>
			<point x="202" y="247" type="line"/>
			<point x="411" y="247" type="line"/>
			<point x="454" y="120" type="line" smooth="yes"/>
			<point x="460" y="101"/>
			<point x="465" y="89"/>
			<point x="465" y="77" type="curve" smooth="yes"/>
			<point x="465" y="54"/>
			<point x="452" y="43"/>
			<point x="425" y="36" type="curve" smooth="yes"/>
			<point x="403" y="31" type="line"/>
			<point x="413" y="0" type="line"/>
			<point x="618" y="0" type="line"/>
			<point x="630" y="15" type="line"/>
			<point x="591" y="45"/>
			<point x="569" y="64"/>
			<point x="548" y="126" type="curve" smooth="yes"/>
			<point x="365" y="650" type="line"/>
			<point x="191" y="650" type="line"/>
			<point x="180" y="619" type="line"/>
			<point x="201" y="614" type="line" smooth="yes"/>
			<point x="229" y="608"/>
			<point x="241" y="596"/>
			<point x="241" y="574" type="curve" smooth="yes"/>
			<point x="241" y="563"/>
			<point x="237" y="549"/>
			<point x="231" y="530" type="curve" smooth="yes"/>
			<point x="89" y="120" type="line" smooth="yes"/>
			<point x="70" y="63"/>
			<point x="54" y="50"/>
			<point x="6" y="36" type="curve" smooth="yes"/>
			<point x="-15" y="31" type="line"/>
			<point x="-3" y="0" type="line"/>
		</contour>
		<contour>
			<point x="306" y="558" type="line"/>
			<point x="393" y="304" type="line"/>
			<point x="222" y="304" type="line"/>
		</contour>
	</outline>
</glyph>
<glyph name="B" format="2">
	<advance width="589"/>
	<unicode hex="0042"/>
	<outline>
		<contour>
			<point x="305" y="0" type="line" smooth="yes"/>
			<point x="478" y="0"/>
			<point x="539" y="76"/>
			<point x="539" y="179" type="curve" smooth="yes"/>
			<point x="539" y="243"/>
			<point x="492" y="302"/>
			<point x="411" y="329" type="curve"/>
			<point x="477" y="360"/>
			<point x="506" y="420"/>
			<point x="506" y="485" type="curve" smooth="yes"/>
			<point x="506" y="583"/>
			<point x="437" y="663"/>
			<point x="261" y="663" type="curve" smooth="yes"/>
			<point x="177" y="663"/>
			<point x="82" y="641"/>
			<point x="36" y="623" type="curve"/>
			<point x="47" y="589" type="line"/>
			<point x="100" y="589" type="line" smooth="yes"/>
			<point x="113" y="589"/>
			<point x="119" y="584"/>
			<point x="119" y="568" type="curve" smooth="yes"/>
			<point x="119" y="120" type="line" smooth="yes"/>
			<point x="119" y="63"/>
			<point x="106" y="50"/>
			<point x="62" y="36" type="curve"/>
			<point x="40" y="31" type="line"/>
			<point x="52" y="0" type="line"/>
		</contour>
		<contour>
			<point x="274" y="47"/>
			<point x="210" y="52"/>
			<point x="210" y="166" type="curve" smooth="yes"/>
			<point x="210" y="570" type="line" smooth="yes"/>
			<point x="210" y="587"/>
			<point x="217" y="613"/>
			<point x="271" y="613" type="curve" smooth="yes"/>
			<point x="366" y="613"/>
			<point x="417" y="558"/>
			<point x="417" y="483" type="curve" smooth="yes"/>
			<point x="417" y="405"/>
			<point x="370" y="352"/>
			<point x="287" y="352" type="curve" smooth="yes"/>
			<point x="260" y="352"/>
			<point x="250" y="356"/>
			<point x="241" y="356" type="curve" smooth="yes"/>
			<point x="232" y="356"/>
			<point x="229" y="351"/>
			<point x="229" y="341" type="curve" smooth="yes"/>
			<point x="229" y="334"/>
			<point x="232" y="325"/>
			<point x="242" y="320" type="curve"/>
			<point x="256" y="314"/>
			<point x="280" y="309"/>
			<point x="303" y="309" type="curve" smooth="yes"/>
			<point x="392" y="309"/>
			<point x="445" y="251"/>
			<point x="445" y="183" type="curve" smooth="yes"/>
			<point x="445" y="104"/>
			<point x="396" y="47"/>
			<point x="310" y="47" type="curve" smooth="yes"/>
		</contour>
	</outline>
</glyph>
<glyph name="F" format="2">
	<advance width="495"/>
	<unicode hex="0046"/>
	<outline>
		<contour>
			<point x="251" y="0" type="line"/>
			<point x="262" y="31" type="line"/>
			<point x="240" y="36" type="line"/>
			<point x="195" y="50"/>
			<point x="183" y="63"/>
			<point x="183" y="120" type="curve" smooth="yes"/>
			<point x="183" y="296" type="line"/>
			<point x="251" y="296" type="line" smooth="yes"/>
			<point x="314" y="296"/>
			<point x="339" y="286"/>
			<point x="351" y="243" type="curve" smooth="yes"/>
			<point x="355" y="223" type="line"/>
			<point x="387" y="233" type="line"/>
			<point x="387" y="389" type="line"/>
			<point x="368" y="399" type="line"/>
			<point x="360" y="389" type="line" smooth="yes"/>
			<point x="339" y="356"/>
			<point x="317" y="347"/>
			<point x="290" y="347" type="curve" smooth="yes"/>
			<point x="183" y="347" type="line"/>
			<point x="183" y="530" type="line" smooth="yes"/>
			<point x="183" y="586"/>
			<point x="193" y="600"/>
			<point x="240" y="600" type="curve" smooth="yes"/>
			<point x="320" y="600" type="line" smooth="yes"/>
			<point x="385" y="600"/>
			<point x="401" y="583"/>
			<point x="418" y="519" type="curve"/>
			<point x="425" y="497" type="line"/>
			<point x="454" y="508" type="line"/>
			<point x="454" y="669" type="line"/>
			<point x="440" y="681" type="line"/>
			<point x="425" y="669" type="line" smooth="yes"/>
			<point x="405" y="655"/>
			<point x="373" y="650"/>
			<point x="320" y="650" type="curve" smooth="yes"/>
			<point x="52" y="650" type="line"/>
			<point x="40" y="636" type="line"/>
			<point x="52" y="619" type="line" smooth="yes"/>
			<point x="82" y="580"/>
			<point x="94" y="541"/>
			<point x="94" y="469" type="curve" smooth="yes"/>
			<point x="94" y="182" type="line" smooth="yes"/>
			<point x="94" y="107"/>
			<point x="82" y="70"/>
			<point x="52" y="31" type="curve" smooth="yes"/>
			<point x="40" y="15" type="line"/>
			<point x="52" y="0" type="line"/>
		</contour>
	</outline>
</glyph>
<glyph name="J" format="2">
	<advance width="425"/>
	<unicode hex="004A"/>
	<outline>
		<contour>
			<point x="259" y="-13"/>
			<point x="337" y="50"/>
			<point x="337" y="214" type="curve" smooth="yes"/>
			<point x="337" y="469" type="line" smooth="yes"/>
			<point x="337" y="541"/>
			<point x="347" y="580"/>
			<point x="376" y="619" type="curve" smooth="yes"/>
			<point x="389" y="636" type="line"/>
			<point x="376" y="650" type="line"/>
			<point x="179" y="650" type="line"/>
			<point x="168" y="619" type="line"/>
			<point x="188" y="614" type="line" smooth="yes"/>
			<point x="234" y="602"/>
			<point x="247" y="586"/>
			<point x="247" y="530" type="curve" smooth="yes"/>
			<point x="247" y="159" type="line" smooth="yes"/>
			<point x="247" y="59"/>
			<point x="202" y="34"/>
			<point x="152" y="34" type="curve" smooth="yes"/>
			<point x="100" y="34"/>
			<point x="70" y="72"/>
			<point x="70" y="119" type="curve" smooth="yes"/>
			<point x="70" y="185"/>
			<point x="114" y="204"/>
			<point x="114" y="217" type="curve" smooth="yes"/>
			<point x="114" y="221"/>
			<point x="109" y="227"/>
			<point x="97" y="227" type="curve" smooth="yes"/>
			<point x="21" y="227"/>
			<point x="-18" y="173"/>
			<point x="-18" y="117" type="curve" smooth="yes"/>
			<point x="-18" y="53"/>
			<point x="35" y="-13"/>
			<point x="146" y="-13" type="curve" smooth="yes"/>
		</contour>
	</outline>
</glyph>
<glyph name="K" format="2">
	<advance width="605"/>
	<unicode hex="004B"/>
	<outline>
		<contour>
			<point x="534" y="-13"/>
			<point x="563" y="-3"/>
			<point x="589" y="23" type="curve"/>
			<point x="574" y="50" type="line"/>
			<point x="562" y="40"/>
			<point x="551" y="37"/>
			<point x="539" y="37" type="curve" smooth="yes"/>
			<point x="522" y="37"/>
			<point x="515" y="49"/>
			<point x="504" y="64" type="curve"/>
			<point x="389" y="271" type="line" smooth="yes"/>
			<point x="371" y="302"/>
			<point x="350" y="318"/>
			<point x="326" y="329" type="curve"/>
			<point x="489" y="565" type="line" smooth="yes"/>
			<point x="511" y="597"/>
			<point x="533" y="608"/>
			<point x="560" y="614" type="curve" smooth="yes"/>
			<point x="581" y="619" type="line"/>
			<point x="570" y="650" type="line"/>
			<point x="405" y="650" type="line"/>
			<point x="389" y="636" type="line"/>
			<point x="396" y="619" type="line"/>
			<point x="400" y="609"/>
			<point x="408" y="594"/>
			<point x="408" y="579" type="curve" smooth="yes"/>
			<point x="408" y="564"/>
			<point x="405" y="553"/>
			<point x="390" y="527" type="curve" smooth="yes"/>
			<point x="266" y="345" type="line"/>
			<point x="245" y="345" type="line" smooth="yes"/>
			<point x="229" y="345"/>
			<point x="227" y="332"/>
			<point x="227" y="323" type="curve" smooth="yes"/>
			<point x="227" y="319"/>
			<point x="228" y="314"/>
			<point x="230" y="313" type="curve"/>
			<point x="253" y="303"/>
			<point x="264" y="296"/>
			<point x="277" y="272" type="curve" smooth="yes"/>
			<point x="386" y="76" type="line" smooth="yes"/>
			<point x="416" y="21"/>
			<point x="448" y="-13"/>
			<point x="506" y="-13" type="curve" smooth="yes"/>
		</contour>
		<contour>
			<point x="270" y="0" type="line"/>
			<point x="278" y="29" type="line"/>
			<point x="260" y="34" type="line" smooth="yes"/>
			<point x="217" y="47"/>
			<point x="205" y="61"/>
			<point x="205" y="114" type="curve" smooth="yes"/>
			<point x="205" y="469" type="line" smooth="yes"/>
			<point x="205" y="541"/>
			<point x="216" y="580"/>
			<point x="246" y="619" type="curve" smooth="yes"/>
			<point x="258" y="636" type="line"/>
			<point x="246" y="650" type="line"/>
			<point x="47" y="650" type="line"/>
			<point x="36" y="619" type="line"/>
			<point x="58" y="614" type="line"/>
			<point x="103" y="602"/>
			<point x="115" y="586"/>
			<point x="115" y="530" type="curve" smooth="yes"/>
			<point x="115" y="120" type="line" smooth="yes"/>
			<point x="115" y="63"/>
			<point x="103" y="50"/>
			<point x="58" y="36" type="curve"/>
			<point x="36" y="31" type="line"/>
			<point x="47" y="0" type="line"/>
		</contour>
	</outline>
</glyph>
<glyph name="M" format="2">
	<advance width="834"/>
	<unicode hex="004D"/>
	<outline>
		<contour>
			<point x="193" y="0" type="line"/>
			<point x="208" y="15" type="line"/>
			<point x="196" y="31" type="line" smooth="yes"/>
			<point x="174" y="63"/>
			<point x="164" y="95"/>
			<point x="164" y="145" type="curve" smooth="yes"/>
			<point x="164" y="156"/>
			<point x="167" y="202"/>
			<point x="169" y="233" type="curve" smooth="yes"/>
			<point x="189" y="514" type="line"/>
			<point x="379" y="64" type="line"/>
			<point x="428" y="64" type="line"/>
			<point x="617" y="514" type="line"/>
			<point x="645" y="135" type="line"/>
			<point x="645" y="125"/>
			<point x="646" y="109"/>
			<point x="646" y="101" type="curve" smooth="yes"/>
			<point x="646" y="63"/>
			<point x="631" y="48"/>
			<point x="593" y="36" type="curve"/>
			<point x="572" y="31" type="line"/>
			<point x="583" y="0" type="line"/>
			<point x="782" y="0" type="line"/>
			<point x="794" y="15" type="line"/>
			<point x="754" y="55"/>
			<point x="736" y="102"/>
			<point x="730" y="176" type="curve" smooth="yes"/>
			<point x="713" y="425" type="line" smooth="yes"/>
			<point x="712" y="438"/>
			<point x="709" y="494"/>
			<point x="709" y="505" type="curve" smooth="yes"/>
			<point x="709" y="557"/>
			<point x="719" y="587"/>
			<point x="742" y="619" type="curve"/>
			<point x="752" y="636" type="line"/>
			<point x="738" y="650" type="line"/>
			<point x="607" y="650" type="line"/>
			<point x="416" y="194" type="line"/>
			<point x="229" y="650" type="line"/>
			<point x="63" y="650" type="line"/>
			<point x="54" y="619" type="line"/>
			<point x="76" y="614" type="line" smooth="yes"/>
			<point x="115" y="604"/>
			<point x="128" y="591"/>
			<point x="128" y="549" type="curve" smooth="yes"/>
			<point x="128" y="534"/>
			<point x="125" y="485"/>
			<point x="124" y="479" type="curve"/>
			<point x="99" y="120" type="line" smooth="yes"/>
			<point x="95" y="63"/>
			<point x="81" y="50"/>
			<point x="34" y="36" type="curve"/>
			<point x="14" y="31" type="line"/>
			<point x="23" y="0" type="line"/>
		</contour>
	</outline>
</glyph>
<glyph name="P" format="2">
	<advance width="539"/>
	<unicode hex="0050"/>
	<outline>
		<contour>
			<point x="246" y="0" type="line"/>
			<point x="258" y="15" type="line"/>
			<point x="246" y="31" type="line" smooth="yes"/>
			<point x="216" y="70"/>
			<point x="205" y="106"/>
			<point x="205" y="182" type="curve" smooth="yes"/>
			<point x="205" y="570" type="line" smooth="yes"/>
			<point x="205" y="587"/>
			<point x="212" y="613"/>
			<point x="273" y="613" type="curve" smooth="yes"/>
			<point x="375" y="613"/>
			<point x="428" y="539"/>
			<point x="428" y="444" type="curve" smooth="yes"/>
			<point x="428" y="348"/>
			<point x="375" y="283"/>
			<point x="283" y="283" type="curve" smooth="yes"/>
			<point x="256" y="283"/>
			<point x="248" y="290"/>
			<point x="239" y="290" type="curve" smooth="yes"/>
			<point x="229" y="290"/>
			<point x="225" y="278"/>
			<point x="225" y="268" type="curve" smooth="yes"/>
			<point x="225" y="247"/>
			<point x="265" y="236"/>
			<point x="305" y="236" type="curve" smooth="yes"/>
			<point x="454" y="236"/>
			<point x="521" y="335"/>
			<point x="521" y="448" type="curve" smooth="yes"/>
			<point x="521" y="565"/>
			<point x="446" y="663"/>
			<point x="258" y="663" type="curve" smooth="yes"/>
			<point x="173" y="663"/>
			<point x="78" y="641"/>
			<point x="32" y="623" type="curve"/>
			<point x="43" y="589" type="line"/>
			<point x="95" y="589" type="line" smooth="yes"/>
			<point x="108" y="589"/>
			<point x="115" y="584"/>
			<point x="115" y="568" type="curve" smooth="yes"/>
			<point x="115" y="120" type="line" smooth="yes"/>
			<point x="115" y="64"/>
			<point x="103" y="48"/>
			<point x="58" y="36" type="curve" smooth="yes"/>
			<point x="36" y="31" type="line"/>
			<point x="47" y="0" type="line"/>
		</contour>
	</outline>
</glyph>
<glyph name="Q" format="2">
	<advance width="663"/>
	<unicode hex="0051"/>
	<outline>
		<contour>
			<point x="672" y="-201"/>
			<point x="710" y="-169"/>
			<point x="710" y="-126" type="curve" smooth="yes"/>
			<point x="710" y="-121"/>
			<point x="705" y="-117"/>
			<point x="701" y="-117" type="curve" smooth="yes"/>
			<point x="694" y="-117"/>
			<point x="679" y="-129"/>
			<point x="651" y="-129" type="curve" smooth="yes"/>
			<point x="607" y="-129"/>
			<point x="577" y="-107"/>
			<point x="557" y="-59" type="curve" smooth="yes"/>
			<point x="511" y="42" type="line"/>
			<point x="588" y="100"/>
			<point x="632" y="200"/>
			<point x="632" y="324" type="curve" smooth="yes"/>
			<point x="632" y="532"/>
			<point x="516" y="663"/>
			<point x="331" y="663" type="curve" smooth="yes"/>
			<point x="147" y="663"/>
			<point x="32" y="533"/>
			<point x="32" y="324" type="curve" smooth="yes"/>
			<point x="32" y="117"/>
			<point x="146" y="-13"/>
			<point x="331" y="-13" type="curve" smooth="yes"/>
			<point x="369" y="-13"/>
			<point x="406" y="-8"/>
			<point x="441" y="4" type="curve"/>
			<point x="477" y="-72" type="line" smooth="yes"/>
			<point x="516" y="-159"/>
			<point x="563" y="-201"/>
			<point x="625" y="-201" type="curve" smooth="yes"/>
		</contour>
		<contour>
			<point x="264" y="40"/>
			<point x="222" y="72"/>
			<point x="222" y="120" type="curve" smooth="yes"/>
			<point x="222" y="155"/>
			<point x="246" y="178"/>
			<point x="280" y="178" type="curve" smooth="yes"/>
			<point x="328" y="178"/>
			<point x="379" y="135"/>
			<point x="414" y="63" type="curve"/>
			<point x="388" y="48"/>
			<point x="359" y="40"/>
			<point x="327" y="40" type="curve" smooth="yes"/>
		</contour>
		<contour>
			<point x="425" y="190"/>
			<point x="362" y="229"/>
			<point x="296" y="229" type="curve" smooth="yes"/>
			<point x="226" y="229"/>
			<point x="182" y="192"/>
			<point x="182" y="133" type="curve" smooth="yes"/>
			<point x="182" y="124"/>
			<point x="182" y="119"/>
			<point x="184" y="115" type="curve"/>
			<point x="148" y="163"/>
			<point x="130" y="233"/>
			<point x="130" y="316" type="curve" smooth="yes"/>
			<point x="130" y="491"/>
			<point x="214" y="612"/>
			<point x="337" y="612" type="curve" smooth="yes"/>
			<point x="452" y="612"/>
			<point x="534" y="491"/>
			<point x="534" y="321" type="curve" smooth="yes"/>
			<point x="534" y="239"/>
			<point x="512" y="166"/>
			<point x="473" y="114" type="curve"/>
		</contour>
	</outline>
</glyph>
<glyph name="S" format="2">
	<advance width="518"/>
	<unicode hex="0053"/>
	<outline>
		<contour>
			<point x="400" y="-13"/>
			<point x="473" y="58"/>
			<point x="473" y="164" type="curve" smooth="yes"/>
			<point x="473" y="389"/>
			<point x="142" y="350"/>
			<point x="142" y="508" type="curve" smooth="yes"/>
			<point x="142" y="562"/>
			<point x="178" y="613"/>
			<point x="254" y="613" type="curve" smooth="yes"/>
			<point x="321" y="613"/>
			<point x="368" y="573"/>
			<point x="368" y="518" type="curve" smooth="yes"/>
			<point x="368" y="468"/>
			<point x="341" y="444"/>
			<point x="341" y="436" type="curve" smooth="yes"/>
			<point x="341" y="429"/>
			<point x="346" y="425"/>
			<point x="359" y="425" type="curve" smooth="yes"/>
			<point x="414" y="425"/>
			<point x="456" y="468"/>
			<point x="456" y="530" type="curve" smooth="yes"/>
			<point x="456" y="609"/>
			<point x="372" y="663"/>
			<point x="254" y="663" type="curve" smooth="yes"/>
			<point x="120" y="663"/>
			<point x="55" y="576"/>
			<point x="55" y="487" type="curve" smooth="yes"/>
			<point x="55" y="266"/>
			<point x="381" y="317"/>
			<point x="381" y="141" type="curve" smooth="yes"/>
			<point x="381" y="76"/>
			<point x="333" y="38"/>
			<point x="265" y="38" type="curve" smooth="yes"/>
			<point x="186" y="38"/>
			<point x="134" y="82"/>
			<point x="134" y="146" type="curve" smooth="yes"/>
			<point x="134" y="196"/>
			<point x="163" y="220"/>
			<point x="163" y="229" type="curve" smooth="yes"/>
			<point x="163" y="233"/>
			<point x="158" y="239"/>
			<point x="144" y="239" type="curve" smooth="yes"/>
			<point x="85" y="239"/>
			<point x="40" y="195"/>
			<point x="40" y="133" type="curve" smooth="yes"/>
			<point x="40" y="47"/>
			<point x="133" y="-13"/>
			<point x="265" y="-13" type="curve" smooth="yes"/>
		</contour>
	</outline>
</glyph>
<glyph name="T" format="2">
	<advance width="539"/>
	<unicode hex="0054"/>
	<outline>
		<contour>
			<point x="383" y="0" type="line"/>
			<point x="394" y="31" type="line"/>
			<point x="372" y="36" type="line"/>
			<point x="326" y="50"/>
			<point x="313" y="63"/>
			<point x="313" y="120" type="curve" smooth="yes"/>
			<point x="313" y="530" type="line" smooth="yes"/>
			<point x="313" y="586"/>
			<point x="319" y="600"/>
			<point x="345" y="600" type="curve" smooth="yes"/>
			<point x="387" y="600" type="line" smooth="yes"/>
			<point x="450" y="600"/>
			<point x="468" y="583"/>
			<point x="485" y="519" type="curve" smooth="yes"/>
			<point x="490" y="497" type="line"/>
			<point x="521" y="508" type="line"/>
			<point x="521" y="669" type="line"/>
			<point x="506" y="681" type="line"/>
			<point x="490" y="669" type="line" smooth="yes"/>
			<point x="473" y="655"/>
			<point x="439" y="650"/>
			<point x="388" y="650" type="curve" smooth="yes"/>
			<point x="151" y="650" type="line" smooth="yes"/>
			<point x="100" y="650"/>
			<point x="67" y="655"/>
			<point x="49" y="669" type="curve" smooth="yes"/>
			<point x="33" y="681" type="line"/>
			<point x="18" y="669" type="line"/>
			<point x="18" y="508" type="line"/>
			<point x="49" y="497" type="line"/>
			<point x="54" y="519" type="line" smooth="yes"/>
			<point x="71" y="583"/>
			<point x="88" y="600"/>
			<point x="152" y="600" type="curve" smooth="yes"/>
			<point x="193" y="600" type="line" smooth="yes"/>
			<point x="220" y="600"/>
			<point x="225" y="586"/>
			<point x="225" y="530" type="curve" smooth="yes"/>
			<point x="225" y="182" type="line" smooth="yes"/>
			<point x="225" y="107"/>
			<point x="214" y="70"/>
			<point x="184" y="31" type="curve"/>
			<point x="173" y="15" type="line"/>
			<point x="184" y="0" type="line"/>
		</contour>
	</outline>
</glyph>
<glyph name="U" format="2">
	<advance width="669"/>
	<unicode hex="0055"/>
	<outline>
		<contour>
			<point x="469" y="-13"/>
			<point x="572" y="50"/>
			<point x="572" y="198" type="curve" smooth="yes"/>
			<point x="572" y="469" type="line" smooth="yes"/>
			<point x="572" y="541"/>
			<point x="583" y="580"/>
			<point x="613" y="619" type="curve" smooth="yes"/>
			<point x="625" y="636" type="line"/>
			<point x="613" y="650" type="line"/>
			<point x="441" y="650" type="line"/>
			<point x="430" y="619" type="line"/>
			<point x="451" y="614" type="line" smooth="yes"/>
			<point x="497" y="602"/>
			<point x="509" y="586"/>
			<point x="509" y="530" type="curve" smooth="yes"/>
			<point x="509" y="198" type="line" smooth="yes"/>
			<point x="509" y="101"/>
			<point x="438" y="45"/>
			<point x="351" y="45" type="curve" smooth="yes"/>
			<point x="262" y="45"/>
			<point x="190" y="101"/>
			<point x="190" y="198" type="curve" smooth="yes"/>
			<point x="190" y="469" type="line" smooth="yes"/>
			<point x="190" y="541"/>
			<point x="201" y="580"/>
			<point x="230" y="619" type="curve" smooth="yes"/>
			<point x="242" y="636" type="line"/>
			<point x="230" y="650" type="line"/>
			<point x="33" y="650" type="line"/>
			<point x="21" y="619" type="line"/>
			<point x="43" y="614" type="line"/>
			<point x="89" y="602"/>
			<point x="101" y="586"/>
			<point x="101" y="530" type="curve" smooth="yes"/>
			<point x="101" y="198" type="line" smooth="yes"/>
			<point x="101" y="50"/>
			<point x="206" y="-13"/>
			<point x="339" y="-13" type="curve" smooth="yes"/>
		</contour>
	</outline>
</glyph>
<glyph name="V" format="2">
	<advance width="618"/>
	<unicode hex="0056"/>
	<outline>
		<contour>
			<point x="365" y="0" type="line"/>
			<point x="540" y="529" type="line" smooth="yes"/>
			<point x="552" y="563"/>
			<point x="567" y="591"/>
			<point x="590" y="619" type="curve"/>
			<point x="604" y="636" type="line"/>
			<point x="592" y="650" type="line"/>
			<point x="420" y="650" type="line"/>
			<point x="409" y="619" type="line"/>
			<point x="430" y="614" type="line" smooth="yes"/>
			<point x="457" y="608"/>
			<point x="471" y="586"/>
			<point x="472" y="553" type="curve" smooth="yes"/>
			<point x="472" y="532"/>
			<point x="465" y="503"/>
			<point x="454" y="470" type="curve" smooth="yes"/>
			<point x="326" y="76" type="line"/>
			<point x="180" y="530" type="line" smooth="yes"/>
			<point x="174" y="549"/>
			<point x="169" y="563"/>
			<point x="169" y="574" type="curve" smooth="yes"/>
			<point x="169" y="596"/>
			<point x="182" y="608"/>
			<point x="211" y="614" type="curve" smooth="yes"/>
			<point x="230" y="619" type="line"/>
			<point x="221" y="650" type="line"/>
			<point x="16" y="650" type="line"/>
			<point x="4" y="636" type="line"/>
			<point x="43" y="606"/>
			<point x="65" y="585"/>
			<point x="86" y="525" type="curve" smooth="yes"/>
			<point x="263" y="0" type="line"/>
		</contour>
	</outline>
</glyph>
<glyph name="X" format="2">
	<advance width="615"/>
	<unicode hex="0058"/>
	<outline>
		<contour>
			<point x="186" y="0" type="line"/>
			<point x="205" y="15" type="line"/>
			<point x="195" y="31" type="line"/>
			<point x="191" y="41"/>
			<point x="184" y="57"/>
			<point x="184" y="71" type="curve" smooth="yes"/>
			<point x="184" y="86"/>
			<point x="187" y="97"/>
			<point x="204" y="123" type="curve" smooth="yes"/>
			<point x="299" y="267" type="line"/>
			<point x="397" y="129" type="line"/>
			<point x="406" y="115"/>
			<point x="418" y="95"/>
			<point x="418" y="76" type="curve" smooth="yes"/>
			<point x="418" y="58"/>
			<point x="409" y="43"/>
			<point x="383" y="36" type="curve" smooth="yes"/>
			<point x="361" y="31" type="line"/>
			<point x="372" y="0" type="line"/>
			<point x="587" y="0" type="line"/>
			<point x="600" y="15" type="line"/>
			<point x="564" y="44"/>
			<point x="544" y="70"/>
			<point x="521" y="104" type="curve" smooth="yes"/>
			<point x="356" y="337" type="line"/>
			<point x="517" y="565" type="line" smooth="yes"/>
			<point x="537" y="597"/>
			<point x="560" y="608"/>
			<point x="586" y="614" type="curve" smooth="yes"/>
			<point x="607" y="619" type="line"/>
			<point x="596" y="650" type="line"/>
			<point x="430" y="650" type="line"/>
			<point x="411" y="636" type="line"/>
			<point x="420" y="619" type="line" smooth="yes"/>
			<point x="425" y="609"/>
			<point x="433" y="594"/>
			<point x="433" y="579" type="curve" smooth="yes"/>
			<point x="433" y="564"/>
			<point x="430" y="553"/>
			<point x="412" y="527" type="curve" smooth="yes"/>
			<point x="320" y="389" type="line"/>
			<point x="227" y="521" type="line" smooth="yes"/>
			<point x="217" y="535"/>
			<point x="207" y="557"/>
			<point x="207" y="575" type="curve" smooth="yes"/>
			<point x="207" y="592"/>
			<point x="216" y="608"/>
			<point x="241" y="614" type="curve" smooth="yes"/>
			<point x="263" y="619" type="line"/>
			<point x="253" y="650" type="line"/>
			<point x="37" y="650" type="line"/>
			<point x="26" y="636" type="line"/>
			<point x="58" y="608"/>
			<point x="86" y="571"/>
			<point x="107" y="539" type="curve" smooth="yes"/>
			<point x="263" y="320" type="line"/>
			<point x="101" y="85" type="line" smooth="yes"/>
			<point x="79" y="53"/>
			<point x="57" y="43"/>
			<point x="30" y="36" type="curve" smooth="yes"/>
			<point x="10" y="31" type="line"/>
			<point x="20" y="0" type="line"/>
		</contour>
	</outline>
</glyph>
<glyph name="Y" format="2">
	<advance width="566"/>
	<unicode hex="0059"/>
	<outline>
		<contour>
			<point x="396" y="0" type="line"/>
			<point x="406" y="31" type="line"/>
			<point x="387" y="36" type="line" smooth="yes"/>
			<point x="341" y="48"/>
			<point x="326" y="64"/>
			<point x="326" y="120" type="curve" smooth="yes"/>
			<point x="326" y="274" type="line"/>
			<point x="468" y="523" type="line" smooth="yes"/>
			<point x="484" y="555"/>
			<point x="508" y="591"/>
			<point x="531" y="619" type="curve" smooth="yes"/>
			<point x="544" y="636" type="line"/>
			<point x="533" y="650" type="line"/>
			<point x="360" y="650" type="line"/>
			<point x="351" y="619" type="line"/>
			<point x="370" y="614" type="line" smooth="yes"/>
			<point x="390" y="609"/>
			<point x="408" y="593"/>
			<point x="408" y="566" type="curve" smooth="yes"/>
			<point x="408" y="556"/>
			<point x="404" y="543"/>
			<point x="397" y="529" type="curve" smooth="yes"/>
			<point x="296" y="346" type="line"/>
			<point x="197" y="518" type="line"/>
			<point x="187" y="534"/>
			<point x="169" y="563"/>
			<point x="169" y="574" type="curve" smooth="yes"/>
			<point x="169" y="596"/>
			<point x="182" y="608"/>
			<point x="211" y="614" type="curve" smooth="yes"/>
			<point x="230" y="619" type="line"/>
			<point x="221" y="650" type="line"/>
			<point x="16" y="650" type="line"/>
			<point x="4" y="636" type="line"/>
			<point x="43" y="606"/>
			<point x="63" y="576"/>
			<point x="95" y="521" type="curve" smooth="yes"/>
			<point x="240" y="267" type="line"/>
			<point x="240" y="182" type="line" smooth="yes"/>
			<point x="240" y="106"/>
			<point x="227" y="70"/>
			<point x="197" y="31" type="curve" smooth="yes"/>
			<point x="186" y="15" type="line"/>
			<point x="197" y="0" type="line"/>
		</contour>
	</outline>
</glyph>
<glyph name="bracketleft" format="2">
	<advance width="387"/>
	<unicode hex="005B"/>
	<outline>
		<contour>
			<point x="326" y="-101" type="line"/>
			<point x="326" y="-58" type="line"/>
			<point x="254" y="-47" type="line" smooth="yes"/>
			<point x="221" y="-42"/>
			<point x="205" y="-33"/>
			<point x="205" y="1" type="curve" smooth="yes"/>
			<point x="205" y="600" type="line" smooth="yes"/>
			<point x="205" y="632"/>
			<point x="221" y="642"/>
			<point x="254" y="647" type="curve" smooth="yes"/>
			<point x="326" y="657" type="line"/>
			<point x="326" y="701" type="line"/>
			<point x="114" y="701" type="line"/>
			<point x="114" y="-101" type="line"/>
		</contour>
	</outline>
</glyph>
<glyph name="backslash" format="2">
	<advance width="371"/>
	<unicode hex="005C"/>
	<outline>
		<contour>
			<point x="337" y="-58" type="line"/>
			<point x="64" y="708" type="line"/>
			<point x="0" y="708" type="line"/>
			<point x="271" y="-58" type="line"/>
		</contour>
	</outline>
</glyph>
<glyph name="bracketright" format="2">
	<advance width="387"/>
	<unicode hex="005D"/>
	<outline>
		<contour>
			<point x="237" y="-101" type="line"/>
			<point x="237" y="701" type="line"/>
			<point x="25" y="701" type="line"/>
			<point x="25" y="657" type="line"/>
			<point x="98" y="647" type="line" smooth="yes"/>
			<point x="131" y="642"/>
			<point x="146" y="632"/>
			<point x="146" y="600" type="curve" smooth="yes"/>
			<point x="146" y="1" type="line" smooth="yes"/>
			<point x="146" y="-33"/>
			<point x="131" y="-42"/>
			<point x="98" y="-47" type="curve" smooth="yes"/>
			<point x="25" y="-58" type="line"/>
			<point x="25" y="-101" type="line"/>
		</contour>
	</outline>
</glyph>
<glyph name="asciicircum" format="2">
	<advance width="621"/>
	<unicode hex="005E"/>
	<outline>
		<contour>
			<point x="161" y="360" type="line"/>
			<point x="279" y="591" type="line"/>
			<point x="401" y="360" type="line"/>
			<point x="475" y="360" type="line"/>
			<point x="320" y="650" type="line"/>
			<point x="241" y="650" type="line"/>
			<point x="87" y="360" type="line"/>
		</contour>
	</outline>
</glyph>
<glyph name="underscore" format="2">
	<advance width="355"/>
	<unicode hex="005F"/>
	<outline>
		<contour>
			<point x="321" y="-77" type="line"/>
			<point x="340" y="-63"/>
			<point x="345" y="-34"/>
			<point x="345" y="-13" type="curve"/>
			<point x="0" y="-13" type="line"/>
			<point x="-17" y="-27"/>
			<point x="-23" y="-55"/>
			<point x="-23" y="-77" type="curve"/>
		</contour>
	</outline>
</glyph>
<glyph name="grave" format="2">
	<advance width="288"/>
	<unicode hex="0060"/>
	<outline>
		<contour>
			<point x="229" y="547" type="line"/>
			<point x="87" y="688" type="line"/>
			<point x="63" y="677"/>
			<point x="49" y="658"/>
			<point x="49" y="631" type="curve" smooth="yes"/>
			<point x="49" y="605"/>
			<point x="63" y="584"/>
			<point x="100" y="566" type="curve" smooth="yes"/>
			<point x="202" y="517" type="line"/>
		</contour>
	</outline>
</glyph>
<glyph name="b" format="2">
	<advance width="533"/>
	<unicode hex="0062"/>
	<outline>
		<contour>
			<point x="394" y="-13"/>
			<point x="493" y="96"/>
			<point x="493" y="242" type="curve" smooth="yes"/>
			<point x="493" y="371"/>
			<point x="414" y="461"/>
			<point x="302" y="461" type="curve" smooth="yes"/>
			<point x="271" y="461"/>
			<point x="239" y="454"/>
			<point x="210" y="437" type="curve"/>
			<point x="205" y="433"/>
			<point x="201" y="426"/>
			<point x="201" y="419" type="curve" smooth="yes"/>
			<point x="201" y="409"/>
			<point x="208" y="400"/>
			<point x="215" y="400" type="curve" smooth="yes"/>
			<point x="224" y="400"/>
			<point x="235" y="411"/>
			<point x="272" y="411" type="curve" smooth="yes"/>
			<point x="348" y="411"/>
			<point x="397" y="336"/>
			<point x="397" y="225" type="curve" smooth="yes"/>
			<point x="397" y="110"/>
			<point x="347" y="38"/>
			<point x="266" y="38" type="curve" smooth="yes"/>
			<point x="228" y="38"/>
			<point x="199" y="47"/>
			<point x="172" y="67" type="curve"/>
			<point x="172" y="680" type="line" smooth="yes"/>
			<point x="172" y="697"/>
			<point x="160" y="709"/>
			<point x="143" y="709" type="curve" smooth="yes"/>
			<point x="107" y="709"/>
			<point x="57" y="686"/>
			<point x="22" y="654" type="curve"/>
			<point x="31" y="631" type="line"/>
			<point x="70" y="631" type="line" smooth="yes"/>
			<point x="83" y="631"/>
			<point x="88" y="626"/>
			<point x="88" y="611" type="curve" smooth="yes"/>
			<point x="88" y="45" type="line"/>
			<point x="124" y="10"/>
			<point x="188" y="-13"/>
			<point x="259" y="-13" type="curve" smooth="yes"/>
		</contour>
	</outline>
</glyph>
<glyph name="c" format="2">
	<advance width="460"/>
	<unicode hex="0063"/>
	<outline>
		<contour>
			<point x="321" y="-13"/>
			<point x="380" y="14"/>
			<point x="423" y="63" type="curve"/>
			<point x="425" y="63"/>
			<point x="425" y="67"/>
			<point x="425" y="70" type="curve" smooth="yes"/>
			<point x="425" y="82"/>
			<point x="412" y="96"/>
			<point x="402" y="96" type="curve" smooth="yes"/>
			<point x="398" y="96"/>
			<point x="395" y="95"/>
			<point x="394" y="94" type="curve"/>
			<point x="356" y="63"/>
			<point x="319" y="48"/>
			<point x="274" y="48" type="curve" smooth="yes"/>
			<point x="188" y="48"/>
			<point x="135" y="119"/>
			<point x="135" y="230" type="curve" smooth="yes"/>
			<point x="135" y="341"/>
			<point x="181" y="414"/>
			<point x="250" y="414" type="curve" smooth="yes"/>
			<point x="302" y="414"/>
			<point x="336" y="385"/>
			<point x="336" y="337" type="curve" smooth="yes"/>
			<point x="336" y="285"/>
			<point x="313" y="271"/>
			<point x="313" y="262" type="curve" smooth="yes"/>
			<point x="313" y="255"/>
			<point x="318" y="253"/>
			<point x="330" y="253" type="curve" smooth="yes"/>
			<point x="382" y="253"/>
			<point x="419" y="289"/>
			<point x="419" y="341" type="curve" smooth="yes"/>
			<point x="419" y="411"/>
			<point x="354" y="461"/>
			<point x="260" y="461" type="curve" smooth="yes"/>
			<point x="127" y="461"/>
			<point x="40" y="369"/>
			<point x="40" y="224" type="curve" smooth="yes"/>
			<point x="40" y="88"/>
			<point x="132" y="-13"/>
			<point x="260" y="-13" type="curve" smooth="yes"/>
		</contour>
	</outline>
</glyph>
<glyph name="d" format="2">
	<advance width="546"/>
	<unicode hex="0064"/>
	<outline>
		<contour>
			<point x="260" y="-13"/>
			<point x="311" y="9"/>
			<point x="362" y="83" type="curve"/>
			<point x="362" y="15"/>
			<point x="384" y="-13"/>
			<point x="434" y="-13" type="curve" smooth="yes"/>
			<point x="464" y="-13"/>
			<point x="502" y="10"/>
			<point x="534" y="45" type="curve"/>
			<point x="517" y="68" type="line"/>
			<point x="501" y="57"/>
			<point x="485" y="52"/>
			<point x="472" y="52" type="curve" smooth="yes"/>
			<point x="454" y="52"/>
			<point x="443" y="61"/>
			<point x="443" y="80" type="curve" smooth="yes"/>
			<point x="443" y="680" type="line" smooth="yes"/>
			<point x="443" y="697"/>
			<point x="432" y="709"/>
			<point x="414" y="709" type="curve" smooth="yes"/>
			<point x="381" y="709"/>
			<point x="330" y="686"/>
			<point x="296" y="654" type="curve"/>
			<point x="304" y="631" type="line"/>
			<point x="344" y="631" type="line" smooth="yes"/>
			<point x="356" y="631"/>
			<point x="361" y="626"/>
			<point x="361" y="611" type="curve" smooth="yes"/>
			<point x="361" y="450" type="line"/>
			<point x="334" y="459"/>
			<point x="307" y="461"/>
			<point x="275" y="461" type="curve" smooth="yes"/>
			<point x="131" y="461"/>
			<point x="40" y="364"/>
			<point x="40" y="208" type="curve" smooth="yes"/>
			<point x="40" y="61"/>
			<point x="119" y="-13"/>
			<point x="204" y="-13" type="curve" smooth="yes"/>
		</contour>
		<contour>
			<point x="187" y="58"/>
			<point x="136" y="101"/>
			<point x="136" y="225" type="curve" smooth="yes"/>
			<point x="136" y="344"/>
			<point x="187" y="411"/>
			<point x="274" y="411" type="curve" smooth="yes"/>
			<point x="305" y="411"/>
			<point x="335" y="403"/>
			<point x="362" y="385" type="curve"/>
			<point x="362" y="140" type="line"/>
			<point x="329" y="82"/>
			<point x="285" y="58"/>
			<point x="239" y="58" type="curve" smooth="yes"/>
		</contour>
	</outline>
</glyph>
<glyph name="f" format="2">
	<advance width="302"/>
	<unicode hex="0066"/>
	<outline>
		<contour>
			<point x="129" y="-216"/>
			<point x="180" y="-133"/>
			<point x="180" y="-12" type="curve" smooth="yes"/>
			<point x="180" y="394" type="line"/>
			<point x="286" y="394" type="line"/>
			<point x="300" y="403"/>
			<point x="308" y="425"/>
			<point x="308" y="450" type="curve"/>
			<point x="180" y="450" type="line"/>
			<point x="180" y="520" type="line" smooth="yes"/>
			<point x="180" y="607"/>
			<point x="203" y="668"/>
			<point x="258" y="668" type="curve" smooth="yes"/>
			<point x="295" y="668"/>
			<point x="318" y="642"/>
			<point x="318" y="604" type="curve" smooth="yes"/>
			<point x="318" y="552"/>
			<point x="296" y="538"/>
			<point x="296" y="529" type="curve" smooth="yes"/>
			<point x="296" y="522"/>
			<point x="302" y="520"/>
			<point x="313" y="520" type="curve" smooth="yes"/>
			<point x="364" y="520"/>
			<point x="402" y="556"/>
			<point x="402" y="607" type="curve" smooth="yes"/>
			<point x="402" y="667"/>
			<point x="346" y="709"/>
			<point x="267" y="709" type="curve" smooth="yes"/>
			<point x="153" y="709"/>
			<point x="99" y="608"/>
			<point x="99" y="450" type="curve"/>
			<point x="40" y="437" type="line" smooth="yes"/>
			<point x="21" y="432"/>
			<point x="19" y="426"/>
			<point x="19" y="394" type="curve"/>
			<point x="99" y="394" type="line"/>
			<point x="99" y="-82" type="line" smooth="yes"/>
			<point x="99" y="-147"/>
			<point x="69" y="-177"/>
			<point x="35" y="-177" type="curve" smooth="yes"/>
			<point x="7" y="-177"/>
			<point x="-15" y="-155"/>
			<point x="-15" y="-117" type="curve" smooth="yes"/>
			<point x="-15" y="-74"/>
			<point x="11" y="-59"/>
			<point x="11" y="-52" type="curve" smooth="yes"/>
			<point x="11" y="-45"/>
			<point x="6" y="-42"/>
			<point x="-6" y="-42" type="curve" smooth="yes"/>
			<point x="-57" y="-42"/>
			<point x="-95" y="-77"/>
			<point x="-95" y="-124" type="curve" smooth="yes"/>
			<point x="-95" y="-182"/>
			<point x="-46" y="-216"/>
			<point x="17" y="-216" type="curve" smooth="yes"/>
		</contour>
	</outline>
</glyph>
<glyph name="h" format="2">
	<advance width="578"/>
	<unicode hex="0068"/>
	<outline>
		<contour>
			<point x="490" y="-15"/>
			<point x="529" y="8"/>
			<point x="562" y="43" type="curve"/>
			<point x="543" y="65" type="line"/>
			<point x="527" y="53"/>
			<point x="513" y="47"/>
			<point x="498" y="47" type="curve" smooth="yes"/>
			<point x="480" y="47"/>
			<point x="472" y="58"/>
			<point x="472" y="78" type="curve" smooth="yes"/>
			<point x="472" y="297" type="line" smooth="yes"/>
			<point x="472" y="410"/>
			<point x="441" y="461"/>
			<point x="351" y="461" type="curve" smooth="yes"/>
			<point x="281" y="461"/>
			<point x="211" y="405"/>
			<point x="180" y="326" type="curve"/>
			<point x="180" y="680" type="line" smooth="yes"/>
			<point x="180" y="697"/>
			<point x="168" y="709"/>
			<point x="150" y="709" type="curve" smooth="yes"/>
			<point x="117" y="709"/>
			<point x="67" y="686"/>
			<point x="32" y="654" type="curve"/>
			<point x="39" y="631" type="line"/>
			<point x="80" y="631" type="line" smooth="yes"/>
			<point x="93" y="631"/>
			<point x="98" y="626"/>
			<point x="98" y="611" type="curve" smooth="yes"/>
			<point x="98" y="101" type="line" smooth="yes"/>
			<point x="98" y="55"/>
			<point x="91" y="39"/>
			<point x="60" y="33" type="curve"/>
			<point x="40" y="28" type="line"/>
			<point x="51" y="0" type="line"/>
			<point x="210" y="0" type="line"/>
			<point x="221" y="14" type="line"/>
			<point x="210" y="28" type="line" smooth="yes"/>
			<point x="188" y="59"/>
			<point x="180" y="89"/>
			<point x="180" y="145" type="curve" smooth="yes"/>
			<point x="180" y="292"/>
			<point x="233" y="392"/>
			<point x="312" y="392" type="curve" smooth="yes"/>
			<point x="369" y="392"/>
			<point x="390" y="358"/>
			<point x="390" y="297" type="curve" smooth="yes"/>
			<point x="390" y="82" type="line" smooth="yes"/>
			<point x="390" y="14"/>
			<point x="409" y="-15"/>
			<point x="459" y="-15" type="curve" smooth="yes"/>
		</contour>
	</outline>
</glyph>
<glyph name="j" format="2">
	<advance width="264"/>
	<unicode hex="006A"/>
	<outline>
		<contour>
			<point x="124" y="-253"/>
			<point x="176" y="-169"/>
			<point x="176" y="-48" type="curve" smooth="yes"/>
			<point x="176" y="434" type="line" smooth="yes"/>
			<point x="176" y="450"/>
			<point x="164" y="461"/>
			<point x="146" y="461" type="curve" smooth="yes"/>
			<point x="113" y="461"/>
			<point x="63" y="439"/>
			<point x="28" y="407" type="curve"/>
			<point x="35" y="385" type="line"/>
			<point x="76" y="385" type="line" smooth="yes"/>
			<point x="89" y="385"/>
			<point x="94" y="379"/>
			<point x="94" y="363" type="curve" smooth="yes"/>
			<point x="94" y="-118" type="line" smooth="yes"/>
			<point x="94" y="-184"/>
			<point x="63" y="-213"/>
			<point x="30" y="-213" type="curve" smooth="yes"/>
			<point x="2" y="-213"/>
			<point x="-20" y="-190"/>
			<point x="-20" y="-152" type="curve" smooth="yes"/>
			<point x="-20" y="-109"/>
			<point x="5" y="-95"/>
			<point x="5" y="-88" type="curve" smooth="yes"/>
			<point x="5" y="-81"/>
			<point x="0" y="-78"/>
			<point x="-12" y="-78" type="curve" smooth="yes"/>
			<point x="-63" y="-78"/>
			<point x="-101" y="-113"/>
			<point x="-101" y="-160" type="curve" smooth="yes"/>
			<point x="-101" y="-218"/>
			<point x="-52" y="-253"/>
			<point x="12" y="-253" type="curve" smooth="yes"/>
		</contour>
		<contour>
			<point x="156" y="537"/>
			<point x="191" y="573"/>
			<point x="191" y="596" type="curve" smooth="yes"/>
			<point x="191" y="619"/>
			<point x="156" y="655"/>
			<point x="134" y="655" type="curve" smooth="yes"/>
			<point x="113" y="655"/>
			<point x="79" y="619"/>
			<point x="79" y="596" type="curve" smooth="yes"/>
			<point x="79" y="573"/>
			<point x="113" y="537"/>
			<point x="134" y="537" type="curve" smooth="yes"/>
		</contour>
	</outline>
</glyph>
<glyph name="k" format="2">
	<advance width="528"/>
	<unicode hex="006B"/>
	<outline>
		<contour>
			<point x="447" y="-13"/>
			<point x="480" y="3"/>
			<point x="511" y="45" type="curve"/>
			<point x="491" y="68" type="line"/>
			<point x="479" y="54"/>
			<point x="460" y="45"/>
			<point x="443" y="45" type="curve" smooth="yes"/>
			<point x="429" y="45"/>
			<point x="416" y="50"/>
			<point x="405" y="70" type="curve" smooth="yes"/>
			<point x="336" y="205" type="line"/>
			<point x="423" y="215"/>
			<point x="470" y="280"/>
			<point x="470" y="344" type="curve" smooth="yes"/>
			<point x="470" y="405"/>
			<point x="429" y="461"/>
			<point x="345" y="461" type="curve" smooth="yes"/>
			<point x="277" y="461"/>
			<point x="211" y="405"/>
			<point x="180" y="326" type="curve"/>
			<point x="180" y="680" type="line" smooth="yes"/>
			<point x="180" y="697"/>
			<point x="168" y="709"/>
			<point x="150" y="709" type="curve" smooth="yes"/>
			<point x="117" y="709"/>
			<point x="67" y="686"/>
			<point x="32" y="654" type="curve"/>
			<point x="39" y="631" type="line"/>
			<point x="80" y="631" type="line" smooth="yes"/>
			<point x="93" y="631"/>
			<point x="98" y="626"/>
			<point x="98" y="611" type="curve" smooth="yes"/>
			<point x="98" y="101" type="line" smooth="yes"/>
			<point x="98" y="55"/>
			<point x="91" y="39"/>
			<point x="60" y="33" type="curve"/>
			<point x="40" y="28" type="line"/>
			<point x="51" y="0" type="line"/>
			<point x="210" y="0" type="line"/>
			<point x="221" y="14" type="line"/>
			<point x="210" y="28" type="line" smooth="yes"/>
			<point x="187" y="58"/>
			<point x="180" y="89"/>
			<point x="180" y="145" type="curve" smooth="yes"/>
			<point x="180" y="296"/>
			<point x="235" y="400"/>
			<point x="326" y="400" type="curve" smooth="yes"/>
			<point x="368" y="400"/>
			<point x="388" y="369"/>
			<point x="388" y="336" type="curve" smooth="yes"/>
			<point x="388" y="292"/>
			<point x="353" y="241"/>
			<point x="283" y="241" type="curve" smooth="yes"/>
			<point x="247" y="241"/>
			<point x="235" y="250"/>
			<point x="226" y="250" type="curve" smooth="yes"/>
			<point x="216" y="250"/>
			<point x="212" y="239"/>
			<point x="212" y="232" type="curve" smooth="yes"/>
			<point x="212" y="223"/>
			<point x="216" y="217"/>
			<point x="229" y="214" type="curve"/>
			<point x="237" y="211" type="line"/>
			<point x="305" y="83" type="line" smooth="yes"/>
			<point x="337" y="22"/>
			<point x="355" y="-13"/>
			<point x="413" y="-13" type="curve" smooth="yes"/>
		</contour>
	</outline>
</glyph>
<glyph name="m" format="2">
	<advance width="852"/>
	<unicode hex="006D"/>
	<outline>
		<contour>
			<point x="764" y="-13"/>
			<point x="802" y="10"/>
			<point x="834" y="45" type="curve"/>
			<point x="816" y="68" type="line"/>
			<point x="801" y="55"/>
			<point x="785" y="49"/>
			<point x="771" y="49" type="curve" smooth="yes"/>
			<point x="753" y="49"/>
			<point x="745" y="60"/>
			<point x="745" y="80" type="curve" smooth="yes"/>
			<point x="745" y="299" type="line" smooth="yes"/>
			<point x="745" y="411"/>
			<point x="710" y="461"/>
			<point x="629" y="461" type="curve" smooth="yes"/>
			<point x="563" y="461"/>
			<point x="496" y="405"/>
			<point x="465" y="326" type="curve"/>
			<point x="459" y="420"/>
			<point x="423" y="461"/>
			<point x="349" y="461" type="curve" smooth="yes"/>
			<point x="282" y="461"/>
			<point x="216" y="405"/>
			<point x="185" y="326" type="curve"/>
			<point x="185" y="425" type="line" smooth="yes"/>
			<point x="185" y="441"/>
			<point x="174" y="453"/>
			<point x="156" y="453" type="curve" smooth="yes"/>
			<point x="122" y="453"/>
			<point x="71" y="431"/>
			<point x="36" y="399" type="curve"/>
			<point x="45" y="375" type="line"/>
			<point x="84" y="375" type="line" smooth="yes"/>
			<point x="97" y="375"/>
			<point x="102" y="369"/>
			<point x="102" y="355" type="curve" smooth="yes"/>
			<point x="102" y="101" type="line" smooth="yes"/>
			<point x="102" y="55"/>
			<point x="95" y="39"/>
			<point x="63" y="33" type="curve"/>
			<point x="46" y="28" type="line"/>
			<point x="55" y="0" type="line"/>
			<point x="214" y="0" type="line"/>
			<point x="225" y="14" type="line"/>
			<point x="214" y="28" type="line" smooth="yes"/>
			<point x="192" y="59"/>
			<point x="185" y="89"/>
			<point x="185" y="145" type="curve" smooth="yes"/>
			<point x="185" y="292"/>
			<point x="237" y="392"/>
			<point x="315" y="392" type="curve" smooth="yes"/>
			<point x="360" y="392"/>
			<point x="384" y="360"/>
			<point x="384" y="299" type="curve" smooth="yes"/>
			<point x="384" y="0" type="line"/>
			<point x="493" y="0" type="line"/>
			<point x="504" y="14" type="line"/>
			<point x="471" y="54"/>
			<point x="465" y="87"/>
			<point x="465" y="145" type="curve" smooth="yes"/>
			<point x="465" y="156" type="line" smooth="yes"/>
			<point x="468" y="297"/>
			<point x="521" y="392"/>
			<point x="596" y="392" type="curve" smooth="yes"/>
			<point x="641" y="392"/>
			<point x="663" y="360"/>
			<point x="663" y="299" type="curve" smooth="yes"/>
			<point x="663" y="83" type="line" smooth="yes"/>
			<point x="663" y="15"/>
			<point x="683" y="-13"/>
			<point x="733" y="-13" type="curve" smooth="yes"/>
		</contour>
	</outline>
</glyph>
<glyph name="n" format="2">
	<advance width="582"/>
	<unicode hex="006E"/>
	<outline>
		<contour>
			<point x="494" y="-13"/>
			<point x="534" y="10"/>
			<point x="565" y="45" type="curve"/>
			<point x="548" y="68" type="line"/>
			<point x="532" y="55"/>
			<point x="517" y="49"/>
			<point x="503" y="49" type="curve" smooth="yes"/>
			<point x="485" y="49"/>
			<point x="476" y="60"/>
			<point x="476" y="80" type="curve" smooth="yes"/>
			<point x="476" y="299" type="line" smooth="yes"/>
			<point x="476" y="411"/>
			<point x="438" y="461"/>
			<point x="354" y="461" type="curve" smooth="yes"/>
			<point x="285" y="461"/>
			<point x="216" y="405"/>
			<point x="185" y="326" type="curve"/>
			<point x="185" y="425" type="line" smooth="yes"/>
			<point x="185" y="441"/>
			<point x="174" y="453"/>
			<point x="156" y="453" type="curve" smooth="yes"/>
			<point x="122" y="453"/>
			<point x="71" y="431"/>
			<point x="36" y="399" type="curve"/>
			<point x="45" y="375" type="line"/>
			<point x="84" y="375" type="line" smooth="yes"/>
			<point x="97" y="375"/>
			<point x="102" y="369"/>
			<point x="102" y="355" type="curve" smooth="yes"/>
			<point x="102" y="101" type="line" smooth="yes"/>
			<point x="102" y="55"/>
			<point x="95" y="39"/>
			<point x="63" y="33" type="curve"/>
			<point x="46" y="28" type="line"/>
			<point x="55" y="0" type="line"/>
			<point x="214" y="0" type="line"/>
			<point x="225" y="14" type="line"/>
			<point x="214" y="28" type="line" smooth="yes"/>
			<point x="192" y="59"/>
			<point x="185" y="89"/>
			<point x="185" y="145" type="curve" smooth="yes"/>
			<point x="185" y="292"/>
			<point x="237" y="392"/>
			<point x="315" y="392" type="curve" smooth="yes"/>
			<point x="367" y="392"/>
			<point x="394" y="360"/>
			<point x="394" y="299" type="curve" smooth="yes"/>
			<point x="394" y="83" type="line" smooth="yes"/>
			<point x="394" y="15"/>
			<point x="413" y="-13"/>
			<point x="463" y="-13" type="curve" smooth="yes"/>
		</contour>
	</outline>
</glyph>
<glyph name="p" format="2">
	<advance width="539"/>
	<unicode hex="0070"/>
	<outline>
		<contour>
			<point x="223" y="-240" type="line"/>
			<point x="231" y="-213" type="line"/>
			<point x="213" y="-209" type="line" smooth="yes"/>
			<point x="182" y="-202"/>
			<point x="175" y="-187"/>
			<point x="175" y="-141" type="curve" smooth="yes"/>
			<point x="175" y="367" type="line"/>
			<point x="207" y="393"/>
			<point x="238" y="402"/>
			<point x="276" y="402" type="curve" smooth="yes"/>
			<point x="352" y="402"/>
			<point x="402" y="329"/>
			<point x="402" y="225" type="curve" smooth="yes"/>
			<point x="402" y="116"/>
			<point x="352" y="36"/>
			<point x="277" y="36" type="curve" smooth="yes"/>
			<point x="237" y="36"/>
			<point x="224" y="51"/>
			<point x="214" y="51" type="curve" smooth="yes"/>
			<point x="204" y="51"/>
			<point x="200" y="40"/>
			<point x="200" y="28" type="curve" smooth="yes"/>
			<point x="200" y="21"/>
			<point x="204" y="15"/>
			<point x="209" y="12" type="curve" smooth="yes"/>
			<point x="232" y="-4"/>
			<point x="265" y="-13"/>
			<point x="299" y="-13" type="curve" smooth="yes"/>
			<point x="413" y="-13"/>
			<point x="498" y="96"/>
			<point x="498" y="242" type="curve" smooth="yes"/>
			<point x="498" y="371"/>
			<point x="418" y="461"/>
			<point x="306" y="461" type="curve" smooth="yes"/>
			<point x="258" y="461"/>
			<point x="213" y="442"/>
			<point x="175" y="405" type="curve"/>
			<point x="175" y="409" type="line" smooth="yes"/>
			<point x="175" y="437"/>
			<point x="168" y="451"/>
			<point x="152" y="451" type="curve" smooth="yes"/>
			<point x="113" y="451"/>
			<point x="47" y="432"/>
			<point x="28" y="414" type="curve"/>
			<point x="28" y="386" type="line"/>
			<point x="75" y="375" type="line" smooth="yes"/>
			<point x="90" y="371"/>
			<point x="94" y="362"/>
			<point x="94" y="345" type="curve" smooth="yes"/>
			<point x="94" y="-96" type="line" smooth="yes"/>
			<point x="94" y="-153"/>
			<point x="86" y="-182"/>
			<point x="63" y="-213" type="curve" smooth="yes"/>
			<point x="53" y="-228" type="line"/>
			<point x="63" y="-240" type="line"/>
		</contour>
	</outline>
</glyph>
<glyph name="q" format="2">
	<advance width="533"/>
	<unicode hex="0071"/>
	<outline>
		<contour>
			<point x="467" y="-240" type="line"/>
			<point x="477" y="-228" type="line"/>
			<point x="468" y="-213" type="line"/>
			<point x="450" y="-188"/>
			<point x="445" y="-165"/>
			<point x="445" y="-106" type="curve" smooth="yes"/>
			<point x="445" y="375" type="line" smooth="yes"/>
			<point x="445" y="392"/>
			<point x="451" y="399"/>
			<point x="457" y="411" type="curve"/>
			<point x="469" y="428" type="line"/>
			<point x="458" y="439" type="line"/>
			<point x="396" y="443"/>
			<point x="331" y="461"/>
			<point x="275" y="461" type="curve" smooth="yes"/>
			<point x="131" y="461"/>
			<point x="40" y="364"/>
			<point x="40" y="208" type="curve" smooth="yes"/>
			<point x="40" y="61"/>
			<point x="119" y="-13"/>
			<point x="204" y="-13" type="curve" smooth="yes"/>
			<point x="260" y="-13"/>
			<point x="311" y="9"/>
			<point x="362" y="83" type="curve"/>
			<point x="362" y="-132" type="line" smooth="yes"/>
			<point x="362" y="-172"/>
			<point x="354" y="-186"/>
			<point x="325" y="-197" type="curve"/>
			<point x="297" y="-211" type="line"/>
			<point x="297" y="-240" type="line"/>
		</contour>
		<contour>
			<point x="187" y="58"/>
			<point x="136" y="101"/>
			<point x="136" y="225" type="curve" smooth="yes"/>
			<point x="136" y="344"/>
			<point x="187" y="411"/>
			<point x="274" y="411" type="curve" smooth="yes"/>
			<point x="305" y="411"/>
			<point x="335" y="403"/>
			<point x="362" y="385" type="curve"/>
			<point x="362" y="140" type="line"/>
			<point x="329" y="82"/>
			<point x="285" y="58"/>
			<point x="239" y="58" type="curve" smooth="yes"/>
		</contour>
	</outline>
</glyph>
<glyph name="r" format="2">
	<advance width="396"/>
	<unicode hex="0072"/>
	<outline>
		<contour>
			<point x="214" y="0" type="line"/>
			<point x="225" y="14" type="line"/>
			<point x="214" y="28" type="line" smooth="yes"/>
			<point x="192" y="58"/>
			<point x="185" y="88"/>
			<point x="185" y="142" type="curve" smooth="yes"/>
			<point x="185" y="332"/>
			<point x="248" y="396"/>
			<point x="285" y="396" type="curve" smooth="yes"/>
			<point x="303" y="396"/>
			<point x="314" y="382"/>
			<point x="314" y="360" type="curve" smooth="yes"/>
			<point x="314" y="326"/>
			<point x="290" y="307"/>
			<point x="290" y="298" type="curve" smooth="yes"/>
			<point x="290" y="291"/>
			<point x="296" y="289"/>
			<point x="308" y="289" type="curve" smooth="yes"/>
			<point x="358" y="289"/>
			<point x="396" y="323"/>
			<point x="396" y="369" type="curve" smooth="yes"/>
			<point x="396" y="429"/>
			<point x="357" y="461"/>
			<point x="309" y="461" type="curve" smooth="yes"/>
			<point x="258" y="461"/>
			<point x="211" y="407"/>
			<point x="190" y="326" type="curve"/>
			<point x="185" y="326" type="line"/>
			<point x="185" y="425" type="line" smooth="yes"/>
			<point x="185" y="441"/>
			<point x="174" y="453"/>
			<point x="156" y="453" type="curve" smooth="yes"/>
			<point x="122" y="453"/>
			<point x="71" y="431"/>
			<point x="36" y="399" type="curve"/>
			<point x="45" y="375" type="line"/>
			<point x="84" y="375" type="line" smooth="yes"/>
			<point x="97" y="375"/>
			<point x="102" y="369"/>
			<point x="102" y="355" type="curve" smooth="yes"/>
			<point x="102" y="101" type="line" smooth="yes"/>
			<point x="102" y="55"/>
			<point x="95" y="39"/>
			<point x="63" y="33" type="curve"/>
			<point x="46" y="28" type="line"/>
			<point x="55" y="0" type="line"/>
		</contour>
	</outline>
</glyph>
<glyph name="s" format="2">
	<advance width="436"/>
	<unicode hex="0073"/>
	<outline>
		<contour>
			<point x="315" y="-13"/>
			<point x="387" y="41"/>
			<point x="387" y="124" type="curve" smooth="yes"/>
			<point x="387" y="196"/>
			<point x="311" y="229"/>
			<point x="245" y="257" type="curve" smooth="yes"/>
			<point x="189" y="278"/>
			<point x="138" y="303"/>
			<point x="138" y="353" type="curve" smooth="yes"/>
			<point x="138" y="391"/>
			<point x="168" y="418"/>
			<point x="218" y="418" type="curve" smooth="yes"/>
			<point x="252" y="418"/>
			<point x="293" y="400"/>
			<point x="293" y="353" type="curve" smooth="yes"/>
			<point x="293" y="324"/>
			<point x="278" y="313"/>
			<point x="278" y="303" type="curve" smooth="yes"/>
			<point x="278" y="296"/>
			<point x="283" y="290"/>
			<point x="298" y="290" type="curve" smooth="yes"/>
			<point x="343" y="290"/>
			<point x="374" y="323"/>
			<point x="374" y="369" type="curve" smooth="yes"/>
			<point x="374" y="428"/>
			<point x="309" y="461"/>
			<point x="225" y="461" type="curve" smooth="yes"/>
			<point x="131" y="461"/>
			<point x="60" y="412"/>
			<point x="60" y="340" type="curve" smooth="yes"/>
			<point x="60" y="254"/>
			<point x="139" y="219"/>
			<point x="205" y="191" type="curve" smooth="yes"/>
			<point x="256" y="170"/>
			<point x="304" y="147"/>
			<point x="304" y="104" type="curve" smooth="yes"/>
			<point x="304" y="61"/>
			<point x="268" y="32"/>
			<point x="218" y="32" type="curve" smooth="yes"/>
			<point x="180" y="32"/>
			<point x="132" y="55"/>
			<point x="132" y="109" type="curve" smooth="yes"/>
			<point x="132" y="140"/>
			<point x="144" y="152"/>
			<point x="144" y="161" type="curve" smooth="yes"/>
			<point x="144" y="168"/>
			<point x="134" y="172"/>
			<point x="125" y="172" type="curve" smooth="yes"/>
			<point x="80" y="172"/>
			<point x="49" y="141"/>
			<point x="49" y="101" type="curve" smooth="yes"/>
			<point x="49" y="31"/>
			<point x="118" y="-13"/>
			<point x="207" y="-13" type="curve" smooth="yes"/>
		</contour>
	</outline>
</glyph>
<glyph name="t" format="2">
	<advance width="308"/>
	<unicode hex="0074"/>
	<outline>
		<contour>
			<point x="206" y="-13"/>
			<point x="254" y="15"/>
			<point x="285" y="55" type="curve"/>
			<point x="268" y="79" type="line"/>
			<point x="246" y="60"/>
			<point x="224" y="50"/>
			<point x="207" y="50" type="curve" smooth="yes"/>
			<point x="182" y="50"/>
			<point x="173" y="63"/>
			<point x="173" y="101" type="curve" smooth="yes"/>
			<point x="173" y="394" type="line"/>
			<point x="270" y="394" type="line"/>
			<point x="282" y="403"/>
			<point x="290" y="425"/>
			<point x="290" y="450" type="curve"/>
			<point x="173" y="450" type="line"/>
			<point x="173" y="572" type="line"/>
			<point x="138" y="572"/>
			<point x="133" y="570"/>
			<point x="130" y="551" type="curve"/>
			<point x="119" y="500"/>
			<point x="102" y="454"/>
			<point x="32" y="437" type="curve" smooth="yes"/>
			<point x="13" y="432"/>
			<point x="10" y="426"/>
			<point x="10" y="394" type="curve"/>
			<point x="89" y="394" type="line"/>
			<point x="89" y="75" type="line" smooth="yes"/>
			<point x="89" y="21"/>
			<point x="118" y="-13"/>
			<point x="168" y="-13" type="curve" smooth="yes"/>
		</contour>
	</outline>
</glyph>
<glyph name="v" format="2">
	<advance width="500"/>
	<unicode hex="0076"/>
	<outline>
		<contour>
			<point x="347" y="-13"/>
			<point x="442" y="116"/>
			<point x="442" y="365" type="curve" smooth="yes"/>
			<point x="442" y="396"/>
			<point x="440" y="429"/>
			<point x="438" y="461" type="curve"/>
			<point x="329" y="449" type="line"/>
			<point x="319" y="438" type="line"/>
			<point x="327" y="424" type="line"/>
			<point x="355" y="380"/>
			<point x="368" y="321"/>
			<point x="368" y="266" type="curve" smooth="yes"/>
			<point x="368" y="155"/>
			<point x="334" y="46"/>
			<point x="254" y="46" type="curve" smooth="yes"/>
			<point x="214" y="46"/>
			<point x="194" y="77"/>
			<point x="184" y="149" type="curve" smooth="yes"/>
			<point x="144" y="434" type="line" smooth="yes"/>
			<point x="141" y="451"/>
			<point x="131" y="461"/>
			<point x="114" y="461" type="curve" smooth="yes"/>
			<point x="81" y="461"/>
			<point x="32" y="438"/>
			<point x="0" y="407" type="curve"/>
			<point x="9" y="385" type="line"/>
			<point x="48" y="385" type="line" smooth="yes"/>
			<point x="60" y="385"/>
			<point x="63" y="380"/>
			<point x="65" y="363" type="curve" smooth="yes"/>
			<point x="95" y="173" type="line" smooth="yes"/>
			<point x="114" y="35"/>
			<point x="149" y="-13"/>
			<point x="242" y="-13" type="curve" smooth="yes"/>
		</contour>
	</outline>
</glyph>
<glyph name="w" format="2">
	<advance width="736"/>
	<unicode hex="0077"/>
	<outline>
		<contour>
			<point x="295" y="-13"/>
			<point x="344" y="25"/>
			<point x="376" y="101" type="curve"/>
			<point x="398" y="18"/>
			<point x="436" y="-13"/>
			<point x="504" y="-13" type="curve" smooth="yes"/>
			<point x="597" y="-13"/>
			<point x="682" y="116"/>
			<point x="682" y="365" type="curve" smooth="yes"/>
			<point x="682" y="396"/>
			<point x="680" y="429"/>
			<point x="678" y="461" type="curve"/>
			<point x="571" y="450" type="line"/>
			<point x="562" y="438" type="line"/>
			<point x="570" y="425" type="line" smooth="yes"/>
			<point x="597" y="381"/>
			<point x="610" y="322"/>
			<point x="610" y="267" type="curve" smooth="yes"/>
			<point x="610" y="155"/>
			<point x="571" y="46"/>
			<point x="511" y="46" type="curve" smooth="yes"/>
			<point x="468" y="46"/>
			<point x="449" y="77"/>
			<point x="438" y="149" type="curve" smooth="yes"/>
			<point x="419" y="277" type="line"/>
			<point x="423" y="306"/>
			<point x="425" y="334"/>
			<point x="425" y="365" type="curve" smooth="yes"/>
			<point x="425" y="396"/>
			<point x="423" y="429"/>
			<point x="419" y="461" type="curve"/>
			<point x="313" y="450" type="line"/>
			<point x="303" y="438" type="line"/>
			<point x="312" y="425" type="line" smooth="yes"/>
			<point x="339" y="381"/>
			<point x="352" y="322"/>
			<point x="352" y="267" type="curve" smooth="yes"/>
			<point x="352" y="155"/>
			<point x="314" y="46"/>
			<point x="254" y="46" type="curve" smooth="yes"/>
			<point x="214" y="46"/>
			<point x="194" y="77"/>
			<point x="184" y="149" type="curve" smooth="yes"/>
			<point x="144" y="434" type="line" smooth="yes"/>
			<point x="141" y="451"/>
			<point x="131" y="461"/>
			<point x="114" y="461" type="curve" smooth="yes"/>
			<point x="81" y="461"/>
			<point x="32" y="438"/>
			<point x="0" y="407" type="curve"/>
			<point x="9" y="385" type="line"/>
			<point x="48" y="385" type="line" smooth="yes"/>
			<point x="60" y="385"/>
			<point x="63" y="380"/>
			<point x="65" y="363" type="curve" smooth="yes"/>
			<point x="95" y="173" type="line" smooth="yes"/>
			<point x="114" y="35"/>
			<point x="149" y="-13"/>
			<point x="242" y="-13" type="curve" smooth="yes"/>
		</contour>
	</outline>
</glyph>
<glyph name="x" format="2">
	<advance width="500"/>
	<unicode hex="0078"/>
	<outline>
		<contour>
			<point x="429" y="-13"/>
			<point x="454" y="-1"/>
			<point x="483" y="29" type="curve"/>
			<point x="462" y="56" type="line"/>
			<point x="451" y="49"/>
			<point x="439" y="45"/>
			<point x="429" y="45" type="curve" smooth="yes"/>
			<point x="412" y="45"/>
			<point x="402" y="50"/>
			<point x="391" y="70" type="curve" smooth="yes"/>
			<point x="290" y="241" type="line"/>
			<point x="359" y="316"/>
			<point x="438" y="393"/>
			<point x="477" y="432" type="curve"/>
			<point x="468" y="450" type="line"/>
			<point x="326" y="450" type="line"/>
			<point x="314" y="437" type="line"/>
			<point x="334" y="423" type="line"/>
			<point x="344" y="413"/>
			<point x="351" y="405"/>
			<point x="351" y="394" type="curve" smooth="yes"/>
			<point x="351" y="373"/>
			<point x="316" y="327"/>
			<point x="271" y="275" type="curve"/>
			<point x="198" y="399" type="line" smooth="yes"/>
			<point x="175" y="442"/>
			<point x="142" y="461"/>
			<point x="102" y="461" type="curve" smooth="yes"/>
			<point x="73" y="461"/>
			<point x="46" y="450"/>
			<point x="18" y="420" type="curve"/>
			<point x="38" y="394" type="line"/>
			<point x="49" y="399"/>
			<point x="61" y="405"/>
			<point x="72" y="405" type="curve" smooth="yes"/>
			<point x="88" y="405"/>
			<point x="99" y="399"/>
			<point x="110" y="380" type="curve" smooth="yes"/>
			<point x="210" y="210" type="line"/>
			<point x="139" y="135"/>
			<point x="60" y="57"/>
			<point x="21" y="19" type="curve"/>
			<point x="32" y="0" type="line"/>
			<point x="173" y="0" type="line"/>
			<point x="183" y="14" type="line"/>
			<point x="166" y="28" type="line" smooth="yes"/>
			<point x="155" y="37"/>
			<point x="148" y="45"/>
			<point x="148" y="58" type="curve" smooth="yes"/>
			<point x="148" y="77"/>
			<point x="182" y="123"/>
			<point x="229" y="176" type="curve"/>
			<point x="303" y="51" type="line" smooth="yes"/>
			<point x="326" y="8"/>
			<point x="359" y="-13"/>
			<point x="399" y="-13" type="curve" smooth="yes"/>
		</contour>
	</outline>
</glyph>
<glyph name="z" format="2">
	<advance width="434"/>
	<unicode hex="007A"/>
	<outline>
		<contour>
			<point x="391" y="-11" type="line"/>
			<point x="391" y="129" type="line"/>
			<point x="362" y="138" type="line"/>
			<point x="352" y="91" type="line" smooth="yes"/>
			<point x="346" y="60"/>
			<point x="328" y="52"/>
			<point x="283" y="52" type="curve" smooth="yes"/>
			<point x="142" y="52" type="line"/>
			<point x="380" y="396" type="line"/>
			<point x="404" y="411" type="line"/>
			<point x="404" y="428"/>
			<point x="399" y="439"/>
			<point x="387" y="450" type="curve"/>
			<point x="161" y="450" type="line" smooth="yes"/>
			<point x="105" y="450"/>
			<point x="79" y="454"/>
			<point x="52" y="473" type="curve"/>
			<point x="42" y="460" type="line"/>
			<point x="42" y="321" type="line"/>
			<point x="70" y="312" type="line"/>
			<point x="81" y="359" type="line" smooth="yes"/>
			<point x="88" y="391"/>
			<point x="103" y="397"/>
			<point x="148" y="397" type="curve" smooth="yes"/>
			<point x="283" y="397" type="line"/>
			<point x="30" y="28" type="line"/>
			<point x="39" y="0" type="line"/>
			<point x="271" y="0" type="line" smooth="yes"/>
			<point x="326" y="0"/>
			<point x="353" y="-4"/>
			<point x="380" y="-21" type="curve"/>
		</contour>
	</outline>
</glyph>
<glyph name="braceleft" format="2">
	<advance width="316"/>
	<unicode hex="007B"/>
	<outline>
		<contour>
			<point x="262" y="-61" type="line"/>
			<point x="196" y="-46"/>
			<point x="169" y="42"/>
			<point x="169" y="145" type="curve" smooth="yes"/>
			<point x="169" y="247"/>
			<point x="129" y="288"/>
			<point x="70" y="300" type="curve"/>
			<point x="129" y="313"/>
			<point x="169" y="354"/>
			<point x="169" y="454" type="curve" smooth="yes"/>
			<point x="169" y="559"/>
			<point x="196" y="646"/>
			<point x="262" y="661" type="curve"/>
			<point x="256" y="701" type="line"/>
			<point x="120" y="685"/>
			<point x="69" y="580"/>
			<point x="69" y="454" type="curve" smooth="yes"/>
			<point x="69" y="360"/>
			<point x="52" y="326"/>
			<point x="0" y="316" type="curve"/>
			<point x="0" y="282" type="line"/>
			<point x="52" y="271"/>
			<point x="69" y="239"/>
			<point x="69" y="145" type="curve" smooth="yes"/>
			<point x="69" y="20"/>
			<point x="120" y="-85"/>
			<point x="256" y="-101" type="curve"/>
		</contour>
	</outline>
</glyph>
<glyph name="bar" format="2">
	<advance width="351"/>
	<unicode hex="007C"/>
	<outline>
		<contour>
			<point x="205" y="-75" type="line"/>
			<point x="205" y="674" type="line"/>
			<point x="114" y="674" type="line"/>
			<point x="114" y="-75" type="line"/>
		</contour>
	</outline>
</glyph>
<glyph name="braceright" format="2">
	<advance width="316"/>
	<unicode hex="007D"/>
	<outline>
		<contour>
			<point x="166" y="-85"/>
			<point x="216" y="20"/>
			<point x="216" y="145" type="curve" smooth="yes"/>
			<point x="216" y="239"/>
			<point x="234" y="271"/>
			<point x="286" y="282" type="curve"/>
			<point x="286" y="316" type="line"/>
			<point x="234" y="326"/>
			<point x="216" y="360"/>
			<point x="216" y="454" type="curve" smooth="yes"/>
			<point x="216" y="580"/>
			<point x="166" y="685"/>
			<point x="30" y="701" type="curve"/>
			<point x="23" y="661" type="line"/>
			<point x="89" y="646"/>
			<point x="116" y="559"/>
			<point x="116" y="454" type="curve" smooth="yes"/>
			<point x="116" y="354"/>
			<point x="156" y="313"/>
			<point x="215" y="300" type="curve"/>
			<point x="156" y="288"/>
			<point x="116" y="247"/>
			<point x="116" y="145" type="curve" smooth="yes"/>
			<point x="116" y="42"/>
			<point x="89" y="-46"/>
			<point x="23" y="-61" type="curve"/>
			<point x="30" y="-101" type="line"/>
		</contour>
	</outline>
</glyph>
<glyph name="asciitilde" format="2">
	<advance width="621"/>
	<unicode hex="007E"/>
	<outline>
		<contour>
			<point x="255" y="263"/>
			<point x="306" y="321"/>
			<point x="381" y="321" type="curve" smooth="yes"/>
			<point x="413" y="321"/>
			<point x="445" y="311"/>
			<point x="473" y="292" type="curve"/>
			<point x="473" y="360" type="line"/>
			<point x="447" y="381"/>
			<point x="417" y="390"/>
			<point x="386" y="390" type="curve" smooth="yes"/>
			<point x="309" y="390"/>
			<point x="257" y="331"/>
			<point x="181" y="331" type="curve" smooth="yes"/>
			<point x="148" y="331"/>
			<point x="117" y="342"/>
			<point x="89" y="360" type="curve"/>
			<point x="89" y="292" type="line"/>
			<point x="114" y="271"/>
			<point x="146" y="263"/>
			<point x="178" y="263" type="curve" smooth="yes"/>
		</contour>
	</outline>
</glyph>
<glyph name="exclamdown" format="2">
	<advance width="222"/>
	<unicode hex="00A1"/>
	<outline>
		<contour>
			<point x="136" y="-245"/>
			<point x="153" y="-238"/>
			<point x="168" y="-223" type="curve"/>
			<point x="168" y="-151"/>
			<point x="151" y="49"/>
			<point x="134" y="229" type="curve" smooth="yes"/>
			<point x="131" y="257"/>
			<point x="124" y="271"/>
			<point x="110" y="271" type="curve" smooth="yes"/>
			<point x="98" y="271"/>
			<point x="91" y="257"/>
			<point x="88" y="229" type="curve" smooth="yes"/>
			<point x="70" y="49"/>
			<point x="54" y="-151"/>
			<point x="54" y="-223" type="curve"/>
			<point x="68" y="-238"/>
			<point x="88" y="-245"/>
			<point x="110" y="-245" type="curve" smooth="yes"/>
		</contour>
		<contour>
			<point x="133" y="344"/>
			<point x="166" y="379"/>
			<point x="166" y="404" type="curve" smooth="yes"/>
			<point x="166" y="427"/>
			<point x="132" y="462"/>
			<point x="110" y="462" type="curve" smooth="yes"/>
			<point x="89" y="462"/>
			<point x="54" y="427"/>
			<point x="54" y="404" type="curve" smooth="yes"/>
			<point x="54" y="379"/>
			<point x="89" y="344"/>
			<point x="110" y="344" type="curve" smooth="yes"/>
		</contour>
	</outline>
</glyph>
<glyph name="cent" format="2">
	<advance width="486"/>
	<unicode hex="00A2"/>
	<outline>
		<contour>
			<point x="234" y="-76"/>
			<point x="261" y="-70"/>
			<point x="272" y="-53" type="curve"/>
			<point x="272" y="91" type="line"/>
			<point x="324" y="97"/>
			<point x="372" y="121"/>
			<point x="409" y="164" type="curve"/>
			<point x="411" y="166"/>
			<point x="411" y="169"/>
			<point x="411" y="173" type="curve" smooth="yes"/>
			<point x="411" y="185"/>
			<point x="400" y="197"/>
			<point x="390" y="197" type="curve" smooth="yes"/>
			<point x="386" y="197"/>
			<point x="382" y="195"/>
			<point x="381" y="194" type="curve"/>
			<point x="345" y="164"/>
			<point x="307" y="148"/>
			<point x="263" y="148" type="curve" smooth="yes"/>
			<point x="184" y="148"/>
			<point x="133" y="219"/>
			<point x="133" y="326" type="curve" smooth="yes"/>
			<point x="133" y="439"/>
			<point x="180" y="517"/>
			<point x="248" y="517" type="curve" smooth="yes"/>
			<point x="300" y="517"/>
			<point x="334" y="485"/>
			<point x="334" y="438" type="curve" smooth="yes"/>
			<point x="334" y="388"/>
			<point x="312" y="371"/>
			<point x="312" y="362" type="curve" smooth="yes"/>
			<point x="312" y="356"/>
			<point x="316" y="354"/>
			<point x="328" y="354" type="curve" smooth="yes"/>
			<point x="381" y="354"/>
			<point x="418" y="390"/>
			<point x="418" y="442" type="curve" smooth="yes"/>
			<point x="418" y="509"/>
			<point x="357" y="560"/>
			<point x="272" y="563" type="curve"/>
			<point x="272" y="727" type="line"/>
			<point x="254" y="727"/>
			<point x="229" y="721"/>
			<point x="216" y="704" type="curve"/>
			<point x="216" y="560" type="line"/>
			<point x="106" y="540"/>
			<point x="39" y="451"/>
			<point x="39" y="324" type="curve" smooth="yes"/>
			<point x="39" y="197"/>
			<point x="109" y="106"/>
			<point x="216" y="91" type="curve"/>
			<point x="216" y="-76" type="line"/>
		</contour>
	</outline>
</glyph>
<glyph name="sterling" format="2">
	<advance width="539"/>
	<unicode hex="00A3"/>
	<outline>
		<contour>
			<point x="473" y="0" type="line"/>
			<point x="496" y="19"/>
			<point x="503" y="54"/>
			<point x="503" y="82" type="curve"/>
			<point x="144" y="82" type="line"/>
			<point x="188" y="141"/>
			<point x="209" y="210"/>
			<point x="209" y="273" type="curve"/>
			<point x="379" y="273" type="line"/>
			<point x="395" y="286"/>
			<point x="400" y="311"/>
			<point x="400" y="330" type="curve"/>
			<point x="204" y="330" type="line"/>
			<point x="195" y="369"/>
			<point x="186" y="410"/>
			<point x="186" y="449" type="curve" smooth="yes"/>
			<point x="186" y="590"/>
			<point x="251" y="613"/>
			<point x="309" y="613" type="curve" smooth="yes"/>
			<point x="355" y="613"/>
			<point x="402" y="585"/>
			<point x="402" y="532" type="curve" smooth="yes"/>
			<point x="402" y="484"/>
			<point x="375" y="461"/>
			<point x="375" y="454" type="curve" smooth="yes"/>
			<point x="375" y="442"/>
			<point x="381" y="442"/>
			<point x="394" y="442" type="curve" smooth="yes"/>
			<point x="447" y="442"/>
			<point x="491" y="483"/>
			<point x="491" y="539" type="curve" smooth="yes"/>
			<point x="491" y="622"/>
			<point x="401" y="663"/>
			<point x="309" y="663" type="curve" smooth="yes"/>
			<point x="152" y="663"/>
			<point x="89" y="576"/>
			<point x="89" y="462" type="curve" smooth="yes"/>
			<point x="89" y="423"/>
			<point x="103" y="376"/>
			<point x="115" y="330" type="curve"/>
			<point x="48" y="330" type="line"/>
			<point x="32" y="318"/>
			<point x="28" y="294"/>
			<point x="28" y="273" type="curve"/>
			<point x="129" y="273" type="line"/>
			<point x="131" y="257"/>
			<point x="133" y="240"/>
			<point x="133" y="224" type="curve" smooth="yes"/>
			<point x="133" y="160"/>
			<point x="95" y="84"/>
			<point x="28" y="39" type="curve"/>
			<point x="51" y="0" type="line"/>
		</contour>
	</outline>
</glyph>
<glyph name="currency" format="2">
	<advance width="576"/>
	<unicode hex="00A4"/>
	<outline>
		<contour>
			<point x="172" y="170" type="line"/>
			<point x="202" y="147"/>
			<point x="240" y="135"/>
			<point x="286" y="135" type="curve" smooth="yes"/>
			<point x="334" y="135"/>
			<point x="374" y="147"/>
			<point x="405" y="173" type="curve"/>
			<point x="494" y="82" type="line"/>
			<point x="514" y="82"/>
			<point x="535" y="95"/>
			<point x="549" y="107" type="curve"/>
			<point x="442" y="215" type="line"/>
			<point x="460" y="246"/>
			<point x="473" y="283"/>
			<point x="473" y="327" type="curve" smooth="yes"/>
			<point x="473" y="372"/>
			<point x="460" y="410"/>
			<point x="442" y="441" type="curve"/>
			<point x="534" y="534" type="line"/>
			<point x="534" y="553"/>
			<point x="523" y="575"/>
			<point x="509" y="588" type="curve"/>
			<point x="405" y="484" type="line"/>
			<point x="374" y="507"/>
			<point x="334" y="521"/>
			<point x="286" y="521" type="curve" smooth="yes"/>
			<point x="240" y="521"/>
			<point x="201" y="508"/>
			<point x="170" y="485" type="curve"/>
			<point x="82" y="574" type="line"/>
			<point x="63" y="574"/>
			<point x="41" y="564"/>
			<point x="28" y="550" type="curve"/>
			<point x="132" y="443" type="line"/>
			<point x="113" y="412"/>
			<point x="101" y="374"/>
			<point x="101" y="327" type="curve" smooth="yes"/>
			<point x="101" y="281"/>
			<point x="113" y="242"/>
			<point x="132" y="211" type="curve"/>
			<point x="43" y="121" type="line"/>
			<point x="43" y="102"/>
			<point x="54" y="81"/>
			<point x="68" y="67" type="curve"/>
		</contour>
		<contour>
			<point x="226" y="184"/>
			<point x="190" y="233"/>
			<point x="190" y="325" type="curve" smooth="yes"/>
			<point x="190" y="418"/>
			<point x="232" y="473"/>
			<point x="292" y="473" type="curve" smooth="yes"/>
			<point x="347" y="473"/>
			<point x="383" y="422"/>
			<point x="383" y="330" type="curve" smooth="yes"/>
			<point x="383" y="237"/>
			<point x="340" y="184"/>
			<point x="280" y="184" type="curve" smooth="yes"/>
		</contour>
	</outline>
</glyph>
<glyph name="yen" format="2">
	<advance width="566"/>
	<unicode hex="00A5"/>
	<outline>
		<contour>
			<point x="404" y="0" type="line"/>
			<point x="414" y="31" type="line"/>
			<point x="395" y="36" type="line" smooth="yes"/>
			<point x="349" y="48"/>
			<point x="335" y="64"/>
			<point x="335" y="120" type="curve" smooth="yes"/>
			<point x="335" y="211" type="line"/>
			<point x="503" y="211" type="line"/>
			<point x="520" y="224"/>
			<point x="524" y="248"/>
			<point x="524" y="268" type="curve"/>
			<point x="335" y="268" type="line"/>
			<point x="335" y="274" type="line"/>
			<point x="381" y="357" type="line"/>
			<point x="503" y="357" type="line"/>
			<point x="520" y="370"/>
			<point x="524" y="395"/>
			<point x="524" y="414" type="curve"/>
			<point x="413" y="414" type="line"/>
			<point x="476" y="523" type="line" smooth="yes"/>
			<point x="492" y="555"/>
			<point x="516" y="591"/>
			<point x="539" y="619" type="curve" smooth="yes"/>
			<point x="553" y="636" type="line"/>
			<point x="541" y="650" type="line"/>
			<point x="369" y="650" type="line"/>
			<point x="358" y="619" type="line"/>
			<point x="378" y="614" type="line" smooth="yes"/>
			<point x="397" y="609"/>
			<point x="417" y="593"/>
			<point x="417" y="566" type="curve" smooth="yes"/>
			<point x="417" y="556"/>
			<point x="413" y="543"/>
			<point x="406" y="529" type="curve" smooth="yes"/>
			<point x="305" y="346" type="line"/>
			<point x="206" y="518" type="line"/>
			<point x="195" y="534"/>
			<point x="178" y="563"/>
			<point x="178" y="574" type="curve" smooth="yes"/>
			<point x="178" y="596"/>
			<point x="189" y="608"/>
			<point x="219" y="614" type="curve" smooth="yes"/>
			<point x="239" y="619" type="line"/>
			<point x="229" y="650" type="line"/>
			<point x="23" y="650" type="line"/>
			<point x="13" y="636" type="line"/>
			<point x="52" y="606"/>
			<point x="71" y="576"/>
			<point x="103" y="521" type="curve" smooth="yes"/>
			<point x="164" y="414" type="line"/>
			<point x="81" y="414" type="line"/>
			<point x="63" y="402"/>
			<point x="60" y="378"/>
			<point x="60" y="357" type="curve"/>
			<point x="196" y="357" type="line"/>
			<point x="247" y="268" type="line"/>
			<point x="81" y="268" type="line"/>
			<point x="63" y="256"/>
			<point x="60" y="230"/>
			<point x="60" y="211" type="curve"/>
			<point x="248" y="211" type="line"/>
			<point x="248" y="182" type="line" smooth="yes"/>
			<point x="248" y="106"/>
			<point x="235" y="70"/>
			<point x="206" y="31" type="curve" smooth="yes"/>
			<point x="194" y="15" type="line"/>
			<point x="206" y="0" type="line"/>
		</contour>
	</outline>
</glyph>
<glyph name="brokenbar" format="2">
	<advance width="317"/>
	<unicode hex="00A6"/>
	<outline>
		<contour>
			<point x="205" y="-75" type="line"/>
			<point x="205" y="190" type="line"/>
			<point x="114" y="190" type="line"/>
			<point x="114" y="-75" type="line"/>
		</contour>
		<contour>
			<point x="205" y="410" type="line"/>
			<point x="205" y="674" type="line"/>
			<point x="114" y="674" type="line"/>
			<point x="114" y="410" type="line"/>
		</contour>
	</outline>
</glyph>
<glyph name="section" format="2">
	<advance width="397"/>
	<unicode hex="00A7"/>
	<outline>
		<contour>
			<point x="286" y="171"/>
			<point x="290" y="186"/>
			<point x="290" y="201" type="curve" smooth="yes"/>
			<point x="290" y="253"/>
			<point x="260" y="312"/>
			<point x="210" y="371" type="curve" smooth="yes"/>
			<point x="146" y="448"/>
			<point x="126" y="490"/>
			<point x="126" y="533" type="curve" smooth="yes"/>
			<point x="126" y="589"/>
			<point x="165" y="621"/>
			<point x="214" y="621" type="curve" smooth="yes"/>
			<point x="253" y="621"/>
			<point x="282" y="595"/>
			<point x="282" y="558" type="curve" smooth="yes"/>
			<point x="282" y="506"/>
			<point x="261" y="492"/>
			<point x="261" y="483" type="curve" smooth="yes"/>
			<point x="261" y="477"/>
			<point x="266" y="473"/>
			<point x="277" y="473" type="curve" smooth="yes"/>
			<point x="328" y="473"/>
			<point x="367" y="510"/>
			<point x="367" y="563" type="curve" smooth="yes"/>
			<point x="367" y="621"/>
			<point x="311" y="662"/>
			<point x="231" y="662" type="curve" smooth="yes"/>
			<point x="106" y="662"/>
			<point x="64" y="576"/>
			<point x="64" y="497" type="curve" smooth="yes"/>
			<point x="64" y="446"/>
			<point x="93" y="384"/>
			<point x="144" y="322" type="curve" smooth="yes"/>
			<point x="282" y="156" type="line"/>
		</contour>
		<contour>
			<point x="290" y="-231"/>
			<point x="334" y="-145"/>
			<point x="334" y="-67" type="curve" smooth="yes"/>
			<point x="334" y="-15"/>
			<point x="306" y="47"/>
			<point x="255" y="107" type="curve" smooth="yes"/>
			<point x="115" y="275" type="line"/>
			<point x="110" y="260"/>
			<point x="108" y="245"/>
			<point x="108" y="229" type="curve" smooth="yes"/>
			<point x="108" y="178"/>
			<point x="138" y="120"/>
			<point x="188" y="59" type="curve" smooth="yes"/>
			<point x="253" y="-17"/>
			<point x="272" y="-59"/>
			<point x="272" y="-102" type="curve" smooth="yes"/>
			<point x="272" y="-160"/>
			<point x="232" y="-191"/>
			<point x="184" y="-191" type="curve" smooth="yes"/>
			<point x="145" y="-191"/>
			<point x="115" y="-166"/>
			<point x="115" y="-127" type="curve" smooth="yes"/>
			<point x="115" y="-77"/>
			<point x="137" y="-61"/>
			<point x="137" y="-52" type="curve" smooth="yes"/>
			<point x="137" y="-46"/>
			<point x="131" y="-43"/>
			<point x="119" y="-43" type="curve" smooth="yes"/>
			<point x="69" y="-43"/>
			<point x="31" y="-79"/>
			<point x="31" y="-131" type="curve" smooth="yes"/>
			<point x="31" y="-190"/>
			<point x="87" y="-231"/>
			<point x="166" y="-231" type="curve" smooth="yes"/>
		</contour>
	</outline>
</glyph>
<glyph name="dieresis" format="2">
	<advance width="381"/>
	<unicode hex="00A8"/>
	<outline>
		<contour>
			<point x="298" y="537"/>
			<point x="334" y="573"/>
			<point x="334" y="596" type="curve" smooth="yes"/>
			<point x="334" y="619"/>
			<point x="298" y="655"/>
			<point x="275" y="655" type="curve" smooth="yes"/>
			<point x="254" y="655"/>
			<point x="221" y="619"/>
			<point x="221" y="596" type="curve" smooth="yes"/>
			<point x="221" y="573"/>
			<point x="255" y="537"/>
			<point x="275" y="537" type="curve" smooth="yes"/>
		</contour>
		<contour>
			<point x="126" y="537"/>
			<point x="162" y="573"/>
			<point x="162" y="596" type="curve" smooth="yes"/>
			<point x="162" y="619"/>
			<point x="126" y="655"/>
			<point x="104" y="655" type="curve" smooth="yes"/>
			<point x="82" y="655"/>
			<point x="49" y="619"/>
			<point x="49" y="596" type="curve" smooth="yes"/>
			<point x="49" y="573"/>
			<point x="83" y="537"/>
			<point x="104" y="537" type="curve" smooth="yes"/>
		</contour>
	</outline>
</glyph>
<glyph name="copyright" format="2">
	<advance width="704"/>
	<unicode hex="00A9"/>
	<outline>
		<contour>
			<point x="497" y="189"/>
			<point x="614" y="308"/>
			<point x="614" y="451" type="curve" smooth="yes"/>
			<point x="614" y="595"/>
			<point x="497" y="713"/>
			<point x="353" y="713" type="curve" smooth="yes"/>
			<point x="209" y="713"/>
			<point x="91" y="595"/>
			<point x="91" y="451" type="curve" smooth="yes"/>
			<point x="91" y="308"/>
			<point x="209" y="189"/>
			<point x="353" y="189" type="curve" smooth="yes"/>
		</contour>
		<contour>
			<point x="410" y="271"/>
			<point x="447" y="296"/>
			<point x="476" y="339" type="curve"/>
			<point x="452" y="358" type="line"/>
			<point x="433" y="328"/>
			<point x="401" y="310"/>
			<point x="359" y="310" type="curve" smooth="yes"/>
			<point x="296" y="310"/>
			<point x="259" y="374"/>
			<point x="259" y="454" type="curve" smooth="yes"/>
			<point x="259" y="524"/>
			<point x="282" y="604"/>
			<point x="356" y="604" type="curve" smooth="yes"/>
			<point x="386" y="604"/>
			<point x="408" y="589"/>
			<point x="425" y="567" type="curve"/>
			<point x="437" y="521" type="line"/>
			<point x="447" y="521"/>
			<point x="462" y="523"/>
			<point x="468" y="533" type="curve"/>
			<point x="468" y="631" type="line"/>
			<point x="444" y="631" type="line"/>
			<point x="437" y="615" type="line"/>
			<point x="413" y="630"/>
			<point x="388" y="637"/>
			<point x="356" y="637" type="curve" smooth="yes"/>
			<point x="247" y="637"/>
			<point x="195" y="553"/>
			<point x="195" y="454" type="curve" smooth="yes"/>
			<point x="195" y="353"/>
			<point x="247" y="271"/>
			<point x="356" y="271" type="curve" smooth="yes"/>
		</contour>
		<contour>
			<point x="222" y="213"/>
			<point x="114" y="320"/>
			<point x="114" y="451" type="curve" smooth="yes"/>
			<point x="114" y="583"/>
			<point x="222" y="689"/>
			<point x="353" y="689" type="curve" smooth="yes"/>
			<point x="484" y="689"/>
			<point x="590" y="583"/>
			<point x="590" y="451" type="curve" smooth="yes"/>
			<point x="590" y="320"/>
			<point x="484" y="213"/>
			<point x="353" y="213" type="curve" smooth="yes"/>
		</contour>
	</outline>
</glyph>
<glyph name="ordfeminine" format="2">
	<advance width="360"/>
	<unicode hex="00AA"/>
	<outline>
		<contour>
			<point x="168" y="326"/>
			<point x="203" y="345"/>
			<point x="223" y="375" type="curve"/>
			<point x="227" y="342"/>
			<point x="242" y="326"/>
			<point x="274" y="326" type="curve" smooth="yes"/>
			<point x="298" y="326"/>
			<point x="326" y="345"/>
			<point x="352" y="370" type="curve"/>
			<point x="335" y="394" type="line"/>
			<point x="320" y="385"/>
			<point x="309" y="381"/>
			<point x="303" y="381" type="curve" smooth="yes"/>
			<point x="294" y="381"/>
			<point x="290" y="385"/>
			<point x="290" y="396" type="curve" smooth="yes"/>
			<point x="290" y="546" type="line" smooth="yes"/>
			<point x="290" y="626"/>
			<point x="256" y="662"/>
			<point x="178" y="662" type="curve" smooth="yes"/>
			<point x="113" y="662"/>
			<point x="58" y="623"/>
			<point x="58" y="576" type="curve" smooth="yes"/>
			<point x="58" y="556"/>
			<point x="73" y="541"/>
			<point x="93" y="541" type="curve" smooth="yes"/>
			<point x="105" y="541"/>
			<point x="118" y="545"/>
			<point x="129" y="556" type="curve"/>
			<point x="129" y="602"/>
			<point x="145" y="624"/>
			<point x="178" y="624" type="curve" smooth="yes"/>
			<point x="207" y="624"/>
			<point x="222" y="602"/>
			<point x="222" y="558" type="curve" smooth="yes"/>
			<point x="222" y="505" type="line"/>
			<point x="203" y="509"/>
			<point x="186" y="509"/>
			<point x="173" y="509" type="curve" smooth="yes"/>
			<point x="92" y="509"/>
			<point x="40" y="472"/>
			<point x="40" y="409" type="curve" smooth="yes"/>
			<point x="40" y="361"/>
			<point x="78" y="326"/>
			<point x="129" y="326" type="curve" smooth="yes"/>
		</contour>
		<contour>
			<point x="129" y="376"/>
			<point x="114" y="393"/>
			<point x="114" y="418" type="curve" smooth="yes"/>
			<point x="114" y="453"/>
			<point x="139" y="473"/>
			<point x="186" y="473" type="curve" smooth="yes"/>
			<point x="201" y="473"/>
			<point x="215" y="473"/>
			<point x="222" y="470" type="curve"/>
			<point x="221" y="415"/>
			<point x="193" y="376"/>
			<point x="156" y="376" type="curve" smooth="yes"/>
		</contour>
	</outline>
</glyph>
<glyph name="guillemotleft" format="2">
	<advance width="458"/>
	<unicode hex="00AB"/>
	<outline>
		<contour>
			<point x="358" y="67"/>
			<point x="386" y="72"/>
			<point x="412" y="106" type="curve"/>
			<point x="394" y="141"/>
			<point x="338" y="203"/>
			<point x="290" y="254" type="curve"/>
			<point x="338" y="304"/>
			<point x="394" y="364"/>
			<point x="412" y="399" type="curve"/>
			<point x="386" y="434"/>
			<point x="358" y="438"/>
			<point x="336" y="440" type="curve"/>
			<point x="260" y="316"/>
			<point x="234" y="274"/>
			<point x="234" y="254" type="curve" smooth="yes"/>
			<point x="234" y="229"/>
			<point x="264" y="183"/>
			<point x="336" y="64" type="curve"/>
		</contour>
		<contour>
			<point x="169" y="67"/>
			<point x="196" y="72"/>
			<point x="224" y="106" type="curve"/>
			<point x="205" y="141"/>
			<point x="147" y="203"/>
			<point x="100" y="254" type="curve"/>
			<point x="147" y="304"/>
			<point x="205" y="364"/>
			<point x="224" y="399" type="curve"/>
			<point x="196" y="434"/>
			<point x="169" y="438"/>
			<point x="146" y="440" type="curve"/>
			<point x="70" y="316"/>
			<point x="46" y="274"/>
			<point x="46" y="254" type="curve" smooth="yes"/>
			<point x="46" y="229"/>
			<point x="74" y="183"/>
			<point x="146" y="64" type="curve"/>
		</contour>
	</outline>
</glyph>
<glyph name="logicalnot" format="2">
	<advance width="563"/>
	<unicode hex="00AC"/>
	<outline>
		<contour>
			<point x="473" y="151" type="line"/>
			<point x="473" y="357" type="line"/>
			<point x="89" y="357" type="line"/>
			<point x="89" y="290" type="line"/>
			<point x="411" y="290" type="line"/>
			<point x="411" y="151" type="line"/>
		</contour>
	</outline>
</glyph>
<glyph name="registered" format="2">
	<advance width="704"/>
	<unicode hex="00AE"/>
	<outline>
		<contour>
			<point x="497" y="189"/>
			<point x="614" y="308"/>
			<point x="614" y="451" type="curve" smooth="yes"/>
			<point x="614" y="595"/>
			<point x="497" y="713"/>
			<point x="353" y="713" type="curve" smooth="yes"/>
			<point x="209" y="713"/>
			<point x="91" y="595"/>
			<point x="91" y="451" type="curve" smooth="yes"/>
			<point x="91" y="308"/>
			<point x="209" y="189"/>
			<point x="353" y="189" type="curve" smooth="yes"/>
		</contour>
		<contour>
			<point x="222" y="213"/>
			<point x="114" y="320"/>
			<point x="114" y="451" type="curve" smooth="yes"/>
			<point x="114" y="583"/>
			<point x="222" y="689"/>
			<point x="353" y="689" type="curve" smooth="yes"/>
			<point x="484" y="689"/>
			<point x="590" y="583"/>
			<point x="590" y="451" type="curve" smooth="yes"/>
			<point x="590" y="320"/>
			<point x="484" y="213"/>
			<point x="353" y="213" type="curve" smooth="yes"/>
		</contour>
		<contour>
			<point x="325" y="276" type="line"/>
			<point x="335" y="283"/>
			<point x="339" y="296"/>
			<point x="339" y="307" type="curve"/>
			<point x="309" y="315" type="line"/>
			<point x="309" y="425" type="line"/>
			<point x="336" y="425" type="line" smooth="yes"/>
			<point x="354" y="425"/>
			<point x="361" y="418"/>
			<point x="367" y="405" type="curve" smooth="yes"/>
			<point x="409" y="324" type="line"/>
			<point x="412" y="317"/>
			<point x="416" y="313"/>
			<point x="416" y="309" type="curve" smooth="yes"/>
			<point x="416" y="303"/>
			<point x="413" y="298"/>
			<point x="411" y="292" type="curve"/>
			<point x="407" y="285" type="line"/>
			<point x="416" y="276" type="line"/>
			<point x="494" y="276" type="line"/>
			<point x="503" y="282"/>
			<point x="506" y="294"/>
			<point x="506" y="304" type="curve"/>
			<point x="479" y="313" type="line"/>
			<point x="424" y="416" type="line" smooth="yes"/>
			<point x="420" y="423"/>
			<point x="411" y="431"/>
			<point x="405" y="438" type="curve"/>
			<point x="450" y="456"/>
			<point x="471" y="496"/>
			<point x="471" y="534" type="curve" smooth="yes"/>
			<point x="471" y="587"/>
			<point x="436" y="631"/>
			<point x="334" y="631" type="curve" smooth="yes"/>
			<point x="233" y="631" type="line"/>
			<point x="224" y="625"/>
			<point x="221" y="612"/>
			<point x="221" y="602" type="curve"/>
			<point x="250" y="590" type="line"/>
			<point x="250" y="324" type="line" smooth="yes"/>
			<point x="250" y="315"/>
			<point x="247" y="313"/>
			<point x="241" y="310" type="curve"/>
			<point x="221" y="298" type="line"/>
			<point x="221" y="276" type="line"/>
		</contour>
		<contour>
			<point x="309" y="580" type="line" smooth="yes"/>
			<point x="309" y="594"/>
			<point x="323" y="595"/>
			<point x="334" y="595" type="curve" smooth="yes"/>
			<point x="389" y="595"/>
			<point x="408" y="566"/>
			<point x="408" y="531" type="curve" smooth="yes"/>
			<point x="408" y="492"/>
			<point x="389" y="457"/>
			<point x="337" y="457" type="curve" smooth="yes"/>
			<point x="309" y="457" type="line"/>
		</contour>
	</outline>
</glyph>
<glyph name="macron" format="2">
	<advance width="368"/>
	<unicode hex="00AF"/>
	<outline>
		<contour>
			<point x="295" y="559" type="line"/>
			<point x="313" y="574"/>
			<point x="318" y="608"/>
			<point x="318" y="631" type="curve"/>
			<point x="75" y="631" type="line"/>
			<point x="58" y="616"/>
			<point x="51" y="582"/>
			<point x="51" y="559" type="curve"/>
		</contour>
	</outline>
</glyph>
<glyph name="degree" format="2">
	<advance width="394"/>
	<unicode hex="00B0"/>
	<outline>
		<contour>
			<point x="296" y="326"/>
			<point x="357" y="394"/>
			<point x="357" y="494" type="curve" smooth="yes"/>
			<point x="357" y="596"/>
			<point x="296" y="662"/>
			<point x="196" y="662" type="curve" smooth="yes"/>
			<point x="98" y="662"/>
			<point x="36" y="596"/>
			<point x="36" y="494" type="curve" smooth="yes"/>
			<point x="36" y="394"/>
			<point x="98" y="326"/>
			<point x="196" y="326" type="curve" smooth="yes"/>
		</contour>
		<contour>
			<point x="144" y="369"/>
			<point x="113" y="412"/>
			<point x="113" y="491" type="curve" smooth="yes"/>
			<point x="113" y="572"/>
			<point x="149" y="619"/>
			<point x="201" y="619" type="curve" smooth="yes"/>
			<point x="249" y="619"/>
			<point x="279" y="577"/>
			<point x="279" y="497" type="curve" smooth="yes"/>
			<point x="279" y="417"/>
			<point x="242" y="369"/>
			<point x="192" y="369" type="curve" smooth="yes"/>
		</contour>
	</outline>
</glyph>
<glyph name="plusminus" format="2">
	<advance width="563"/>
	<unicode hex="00B1"/>
	<outline>
		<contour>
			<point x="314" y="132" type="line"/>
			<point x="314" y="290" type="line"/>
			<point x="473" y="290" type="line"/>
			<point x="473" y="357" type="line"/>
			<point x="314" y="357" type="line"/>
			<point x="314" y="517" type="line"/>
			<point x="247" y="517" type="line"/>
			<point x="247" y="357" type="line"/>
			<point x="89" y="357" type="line"/>
			<point x="89" y="290" type="line"/>
			<point x="247" y="290" type="line"/>
			<point x="247" y="132" type="line"/>
		</contour>
		<contour>
			<point x="473" y="0" type="line"/>
			<point x="473" y="67" type="line"/>
			<point x="89" y="67" type="line"/>
			<point x="89" y="0" type="line"/>
		</contour>
	</outline>
</glyph>
<glyph name="uni00B2" format="2">
	<advance width="351"/>
	<unicode hex="00B2"/>
	<outline>
		<contour>
			<point x="298" y="261" type="line"/>
			<point x="315" y="275"/>
			<point x="321" y="301"/>
			<point x="321" y="322" type="curve"/>
			<point x="129" y="322" type="line"/>
			<point x="226" y="401"/>
			<point x="311" y="482"/>
			<point x="311" y="557" type="curve" smooth="yes"/>
			<point x="311" y="625"/>
			<point x="257" y="663"/>
			<point x="172" y="663" type="curve" smooth="yes"/>
			<point x="104" y="663"/>
			<point x="38" y="630"/>
			<point x="38" y="563" type="curve" smooth="yes"/>
			<point x="38" y="526"/>
			<point x="67" y="501"/>
			<point x="104" y="501" type="curve" smooth="yes"/>
			<point x="118" y="501"/>
			<point x="126" y="504"/>
			<point x="126" y="511" type="curve" smooth="yes"/>
			<point x="126" y="521"/>
			<point x="109" y="539"/>
			<point x="109" y="560" type="curve" smooth="yes"/>
			<point x="109" y="599"/>
			<point x="139" y="620"/>
			<point x="170" y="620" type="curve" smooth="yes"/>
			<point x="200" y="620"/>
			<point x="229" y="601"/>
			<point x="229" y="558" type="curve" smooth="yes"/>
			<point x="229" y="493"/>
			<point x="199" y="438"/>
			<point x="25" y="295" type="curve"/>
			<point x="42" y="261" type="line"/>
		</contour>
	</outline>
</glyph>
<glyph name="uni00B3" format="2">
	<advance width="351"/>
	<unicode hex="00B3"/>
	<outline>
		<contour>
			<point x="257" y="255"/>
			<point x="313" y="294"/>
			<point x="313" y="365" type="curve" smooth="yes"/>
			<point x="313" y="410"/>
			<point x="286" y="452"/>
			<point x="233" y="471" type="curve"/>
			<point x="275" y="489"/>
			<point x="303" y="521"/>
			<point x="303" y="564" type="curve" smooth="yes"/>
			<point x="303" y="631"/>
			<point x="233" y="663"/>
			<point x="168" y="663" type="curve" smooth="yes"/>
			<point x="104" y="663"/>
			<point x="46" y="635"/>
			<point x="46" y="575" type="curve" smooth="yes"/>
			<point x="46" y="539"/>
			<point x="75" y="515"/>
			<point x="113" y="515" type="curve" smooth="yes"/>
			<point x="126" y="515"/>
			<point x="133" y="517"/>
			<point x="133" y="526" type="curve"/>
			<point x="133" y="526"/>
			<point x="130" y="533"/>
			<point x="128" y="536" type="curve"/>
			<point x="125" y="542"/>
			<point x="118" y="556"/>
			<point x="118" y="572" type="curve" smooth="yes"/>
			<point x="118" y="605"/>
			<point x="142" y="621"/>
			<point x="167" y="621" type="curve" smooth="yes"/>
			<point x="195" y="621"/>
			<point x="225" y="602"/>
			<point x="225" y="563" type="curve" smooth="yes"/>
			<point x="225" y="534"/>
			<point x="215" y="493"/>
			<point x="131" y="478" type="curve" smooth="yes"/>
			<point x="95" y="472"/>
			<point x="95" y="466"/>
			<point x="95" y="453" type="curve" smooth="yes"/>
			<point x="95" y="444"/>
			<point x="99" y="438"/>
			<point x="112" y="438" type="curve" smooth="yes"/>
			<point x="113" y="438"/>
			<point x="118" y="438"/>
			<point x="119" y="439" type="curve"/>
			<point x="126" y="440"/>
			<point x="141" y="443"/>
			<point x="156" y="443" type="curve" smooth="yes"/>
			<point x="225" y="443"/>
			<point x="234" y="396"/>
			<point x="234" y="369" type="curve" smooth="yes"/>
			<point x="234" y="322"/>
			<point x="202" y="300"/>
			<point x="168" y="300" type="curve" smooth="yes"/>
			<point x="137" y="300"/>
			<point x="107" y="319"/>
			<point x="107" y="352" type="curve" smooth="yes"/>
			<point x="107" y="369"/>
			<point x="115" y="381"/>
			<point x="118" y="387" type="curve"/>
			<point x="119" y="390"/>
			<point x="123" y="396"/>
			<point x="124" y="396" type="curve"/>
			<point x="124" y="409"/>
			<point x="118" y="409"/>
			<point x="102" y="409" type="curve" smooth="yes"/>
			<point x="64" y="409"/>
			<point x="35" y="384"/>
			<point x="35" y="347" type="curve" smooth="yes"/>
			<point x="35" y="284"/>
			<point x="101" y="255"/>
			<point x="168" y="255" type="curve" smooth="yes"/>
		</contour>
	</outline>
</glyph>
<glyph name="acute" format="2">
	<advance width="261"/>
	<unicode hex="00B4"/>
	<outline>
		<contour>
			<point x="186" y="566" type="line" smooth="yes"/>
			<point x="222" y="584"/>
			<point x="236" y="605"/>
			<point x="236" y="631" type="curve" smooth="yes"/>
			<point x="236" y="658"/>
			<point x="221" y="677"/>
			<point x="197" y="688" type="curve"/>
			<point x="58" y="547" type="line"/>
			<point x="83" y="517" type="line"/>
		</contour>
	</outline>
</glyph>
<glyph name="uni00B5" format="2">
	<advance width="557"/>
	<unicode hex="00B5"/>
	<outline>
		<contour>
			<point x="168" y="18" type="line"/>
			<point x="189" y="-3"/>
			<point x="218" y="-13"/>
			<point x="247" y="-13" type="curve" smooth="yes"/>
			<point x="301" y="-13"/>
			<point x="355" y="24"/>
			<point x="381" y="75" type="curve"/>
			<point x="381" y="15"/>
			<point x="404" y="-13"/>
			<point x="452" y="-13" type="curve"/>
			<point x="462" y="0" type="line"/>
			<point x="462" y="451" type="line"/>
			<point x="369" y="439" type="line"/>
			<point x="357" y="428" type="line"/>
			<point x="369" y="411" type="line" smooth="yes"/>
			<point x="381" y="394"/>
			<point x="381" y="382"/>
			<point x="381" y="370" type="curve" smooth="yes"/>
			<point x="381" y="198" type="line" smooth="yes"/>
			<point x="381" y="110"/>
			<point x="330" y="48"/>
			<point x="260" y="48" type="curve" smooth="yes"/>
			<point x="198" y="48"/>
			<point x="168" y="87"/>
			<point x="168" y="159" type="curve" smooth="yes"/>
			<point x="168" y="409" type="line" smooth="yes"/>
			<point x="168" y="438"/>
			<point x="162" y="451"/>
			<point x="146" y="451" type="curve" smooth="yes"/>
			<point x="109" y="451"/>
			<point x="41" y="432"/>
			<point x="20" y="414" type="curve"/>
			<point x="20" y="386" type="line"/>
			<point x="67" y="375" type="line" smooth="yes"/>
			<point x="82" y="371"/>
			<point x="87" y="362"/>
			<point x="87" y="345" type="curve" smooth="yes"/>
			<point x="87" y="-103" type="line" smooth="yes"/>
			<point x="87" y="-124"/>
			<point x="85" y="-135"/>
			<point x="75" y="-148" type="curve" smooth="yes"/>
			<point x="63" y="-166" type="line"/>
			<point x="75" y="-178" type="line"/>
			<point x="168" y="-189" type="line"/>
		</contour>
	</outline>
</glyph>
<glyph name="paragraph" format="2">
	<advance width="559"/>
	<unicode hex="00B6"/>
	<outline>
		<contour>
			<point x="401" y="-183"/>
			<point x="443" y="-96"/>
			<point x="443" y="-18" type="curve" smooth="yes"/>
			<point x="443" y="576" type="line" smooth="yes"/>
			<point x="443" y="591"/>
			<point x="449" y="602"/>
			<point x="455" y="612" type="curve"/>
			<point x="468" y="628" type="line"/>
			<point x="456" y="639" type="line"/>
			<point x="395" y="644"/>
			<point x="330" y="663"/>
			<point x="253" y="663" type="curve" smooth="yes"/>
			<point x="141" y="663"/>
			<point x="61" y="594"/>
			<point x="61" y="490" type="curve" smooth="yes"/>
			<point x="61" y="429"/>
			<point x="89" y="354"/>
			<point x="156" y="275" type="curve" smooth="yes"/>
			<point x="300" y="107" type="line" smooth="yes"/>
			<point x="364" y="33"/>
			<point x="385" y="-10"/>
			<point x="385" y="-53" type="curve" smooth="yes"/>
			<point x="385" y="-110"/>
			<point x="345" y="-143"/>
			<point x="296" y="-143" type="curve" smooth="yes"/>
			<point x="257" y="-143"/>
			<point x="227" y="-117"/>
			<point x="227" y="-78" type="curve" smooth="yes"/>
			<point x="227" y="-28"/>
			<point x="248" y="-12"/>
			<point x="248" y="-3" type="curve" smooth="yes"/>
			<point x="248" y="3"/>
			<point x="242" y="6"/>
			<point x="230" y="6" type="curve" smooth="yes"/>
			<point x="180" y="6"/>
			<point x="143" y="-30"/>
			<point x="143" y="-82" type="curve" smooth="yes"/>
			<point x="143" y="-142"/>
			<point x="197" y="-183"/>
			<point x="277" y="-183" type="curve" smooth="yes"/>
		</contour>
		<contour>
			<point x="222" y="324" type="line" smooth="yes"/>
			<point x="154" y="402"/>
			<point x="131" y="468"/>
			<point x="131" y="515" type="curve" smooth="yes"/>
			<point x="131" y="579"/>
			<point x="179" y="613"/>
			<point x="226" y="613" type="curve" smooth="yes"/>
			<point x="318" y="613"/>
			<point x="360" y="547"/>
			<point x="360" y="450" type="curve" smooth="yes"/>
			<point x="360" y="163" type="line"/>
		</contour>
	</outline>
</glyph>
<glyph name="periodcentered" format="2">
	<advance width="173"/>
	<unicode hex="00B7"/>
	<outline>
		<contour>
			<point x="106" y="232"/>
			<point x="143" y="269"/>
			<point x="143" y="291" type="curve" smooth="yes"/>
			<point x="143" y="316"/>
			<point x="106" y="352"/>
			<point x="85" y="352" type="curve" smooth="yes"/>
			<point x="63" y="352"/>
			<point x="30" y="316"/>
			<point x="30" y="291" type="curve" smooth="yes"/>
			<point x="30" y="269"/>
			<point x="63" y="232"/>
			<point x="85" y="232" type="curve" smooth="yes"/>
		</contour>
	</outline>
</glyph>
<glyph name="cedilla" format="2">
	<advance width="316"/>
	<unicode hex="00B8"/>
	<outline>
		<contour>
			<point x="219" y="-267"/>
			<point x="271" y="-220"/>
			<point x="271" y="-162" type="curve" smooth="yes"/>
			<point x="271" y="-93"/>
			<point x="222" y="-60"/>
			<point x="169" y="-60" type="curve" smooth="yes"/>
			<point x="157" y="-60"/>
			<point x="146" y="-61"/>
			<point x="135" y="-63" type="curve"/>
			<point x="206" y="28" type="line"/>
			<point x="169" y="28" type="line"/>
			<point x="77" y="-93" type="line"/>
			<point x="95" y="-108" type="line"/>
			<point x="113" y="-98"/>
			<point x="130" y="-94"/>
			<point x="144" y="-94" type="curve" smooth="yes"/>
			<point x="186" y="-94"/>
			<point x="205" y="-127"/>
			<point x="205" y="-161" type="curve" smooth="yes"/>
			<point x="205" y="-194"/>
			<point x="185" y="-229"/>
			<point x="147" y="-229" type="curve" smooth="yes"/>
			<point x="129" y="-229"/>
			<point x="110" y="-216"/>
			<point x="110" y="-193" type="curve" smooth="yes"/>
			<point x="110" y="-167"/>
			<point x="124" y="-162"/>
			<point x="124" y="-153" type="curve" smooth="yes"/>
			<point x="124" y="-148"/>
			<point x="118" y="-145"/>
			<point x="107" y="-145" type="curve" smooth="yes"/>
			<point x="77" y="-145"/>
			<point x="50" y="-165"/>
			<point x="50" y="-197" type="curve" smooth="yes"/>
			<point x="50" y="-243"/>
			<point x="99" y="-267"/>
			<point x="148" y="-267" type="curve" smooth="yes"/>
		</contour>
	</outline>
</glyph>
<glyph name="uni00B9" format="2">
	<advance width="289"/>
	<unicode hex="00B9"/>
	<outline>
		<contour>
			<point x="210" y="267" type="line"/>
			<point x="222" y="281" type="line"/>
			<point x="211" y="295" type="line"/>
			<point x="192" y="315"/>
			<point x="188" y="338"/>
			<point x="188" y="381" type="curve" smooth="yes"/>
			<point x="188" y="628" type="line"/>
			<point x="205" y="637" type="line"/>
			<point x="198" y="648"/>
			<point x="188" y="662"/>
			<point x="172" y="666" type="curve"/>
			<point x="13" y="593" type="line"/>
			<point x="21" y="574"/>
			<point x="40" y="552"/>
			<point x="63" y="547" type="curve"/>
			<point x="117" y="581" type="line"/>
			<point x="117" y="344" type="line" smooth="yes"/>
			<point x="117" y="314"/>
			<point x="111" y="309"/>
			<point x="89" y="304" type="curve"/>
			<point x="59" y="295" type="line"/>
			<point x="69" y="267" type="line"/>
		</contour>
	</outline>
</glyph>
<glyph name="ordmasculine" format="2">
	<advance width="394"/>
	<unicode hex="00BA"/>
	<outline>
		<contour>
			<point x="296" y="326"/>
			<point x="357" y="394"/>
			<point x="357" y="494" type="curve" smooth="yes"/>
			<point x="357" y="596"/>
			<point x="296" y="662"/>
			<point x="196" y="662" type="curve" smooth="yes"/>
			<point x="98" y="662"/>
			<point x="36" y="596"/>
			<point x="36" y="494" type="curve" smooth="yes"/>
			<point x="36" y="394"/>
			<point x="98" y="326"/>
			<point x="196" y="326" type="curve" smooth="yes"/>
		</contour>
		<contour>
			<point x="149" y="369"/>
			<point x="113" y="418"/>
			<point x="113" y="494" type="curve" smooth="yes"/>
			<point x="113" y="572"/>
			<point x="144" y="621"/>
			<point x="191" y="621" type="curve" smooth="yes"/>
			<point x="243" y="621"/>
			<point x="279" y="567"/>
			<point x="279" y="489" type="curve" smooth="yes"/>
			<point x="279" y="415"/>
			<point x="249" y="369"/>
			<point x="201" y="369" type="curve" smooth="yes"/>
		</contour>
	</outline>
</glyph>
<glyph name="onequarter" format="2">
	<advance width="922"/>
	<unicode hex="00BC"/>
	<outline>
		<contour>
			<point x="329" y="0" type="line"/>
			<point x="603" y="650" type="line"/>
			<point x="537" y="650" type="line"/>
			<point x="266" y="0" type="line"/>
		</contour>
		<contour>
			<point x="268" y="267" type="line"/>
			<point x="279" y="281" type="line"/>
			<point x="270" y="295" type="line"/>
			<point x="251" y="315"/>
			<point x="246" y="338"/>
			<point x="246" y="381" type="curve" smooth="yes"/>
			<point x="246" y="628" type="line"/>
			<point x="263" y="637" type="line"/>
			<point x="256" y="648"/>
			<point x="245" y="662"/>
			<point x="229" y="666" type="curve"/>
			<point x="70" y="593" type="line"/>
			<point x="79" y="574"/>
			<point x="98" y="552"/>
			<point x="121" y="547" type="curve"/>
			<point x="176" y="581" type="line"/>
			<point x="176" y="344" type="line" smooth="yes"/>
			<point x="176" y="314"/>
			<point x="170" y="309"/>
			<point x="147" y="304" type="curve"/>
			<point x="116" y="295" type="line"/>
			<point x="128" y="267" type="line"/>
		</contour>
		<contour>
			<point x="800" y="0" type="line"/>
			<point x="811" y="15" type="line"/>
			<point x="801" y="28" type="line"/>
			<point x="787" y="43"/>
			<point x="782" y="59"/>
			<point x="779" y="86" type="curve"/>
			<point x="811" y="86" type="line"/>
			<point x="825" y="98"/>
			<point x="829" y="117"/>
			<point x="829" y="132" type="curve"/>
			<point x="779" y="132" type="line"/>
			<point x="779" y="268" type="line"/>
			<point x="705" y="260" type="line"/>
			<point x="693" y="247" type="line"/>
			<point x="706" y="229"/>
			<point x="706" y="220"/>
			<point x="706" y="198" type="curve" smooth="yes"/>
			<point x="706" y="132" type="line"/>
			<point x="592" y="132" type="line"/>
			<point x="705" y="381" type="line"/>
			<point x="688" y="395" type="line"/>
			<point x="644" y="395" type="line"/>
			<point x="515" y="86" type="line"/>
			<point x="706" y="86" type="line"/>
			<point x="706" y="77" type="line" smooth="yes"/>
			<point x="706" y="48"/>
			<point x="701" y="41"/>
			<point x="680" y="36" type="curve" smooth="yes"/>
			<point x="648" y="28" type="line"/>
			<point x="660" y="0" type="line"/>
		</contour>
	</outline>
</glyph>
<glyph name="onehalf" format="2">
	<advance width="922"/>
	<unicode hex="00BD"/>
	<outline>
		<contour>
			<point x="312" y="0" type="line"/>
			<point x="585" y="650" type="line"/>
			<point x="520" y="650" type="line"/>
			<point x="248" y="0" type="line"/>
		</contour>
		<contour>
			<point x="268" y="267" type="line"/>
			<point x="279" y="281" type="line"/>
			<point x="270" y="295" type="line"/>
			<point x="251" y="315"/>
			<point x="246" y="338"/>
			<point x="246" y="381" type="curve" smooth="yes"/>
			<point x="246" y="628" type="line"/>
			<point x="263" y="637" type="line"/>
			<point x="256" y="648"/>
			<point x="245" y="662"/>
			<point x="229" y="666" type="curve"/>
			<point x="70" y="593" type="line"/>
			<point x="79" y="574"/>
			<point x="98" y="552"/>
			<point x="121" y="547" type="curve"/>
			<point x="176" y="581" type="line"/>
			<point x="176" y="344" type="line" smooth="yes"/>
			<point x="176" y="314"/>
			<point x="170" y="309"/>
			<point x="147" y="304" type="curve"/>
			<point x="116" y="295" type="line"/>
			<point x="128" y="267" type="line"/>
		</contour>
		<contour>
			<point x="799" y="0" type="line"/>
			<point x="816" y="15"/>
			<point x="822" y="40"/>
			<point x="822" y="62" type="curve"/>
			<point x="630" y="62" type="line"/>
			<point x="727" y="141"/>
			<point x="812" y="222"/>
			<point x="812" y="296" type="curve" smooth="yes"/>
			<point x="812" y="364"/>
			<point x="757" y="402"/>
			<point x="672" y="402" type="curve" smooth="yes"/>
			<point x="604" y="402"/>
			<point x="539" y="369"/>
			<point x="539" y="303" type="curve" smooth="yes"/>
			<point x="539" y="266"/>
			<point x="568" y="240"/>
			<point x="605" y="240" type="curve" smooth="yes"/>
			<point x="619" y="240"/>
			<point x="627" y="243"/>
			<point x="627" y="250" type="curve" smooth="yes"/>
			<point x="627" y="261"/>
			<point x="610" y="278"/>
			<point x="610" y="299" type="curve" smooth="yes"/>
			<point x="610" y="338"/>
			<point x="640" y="359"/>
			<point x="671" y="359" type="curve" smooth="yes"/>
			<point x="701" y="359"/>
			<point x="730" y="340"/>
			<point x="730" y="297" type="curve" smooth="yes"/>
			<point x="730" y="232"/>
			<point x="699" y="177"/>
			<point x="525" y="34" type="curve"/>
			<point x="542" y="0" type="line"/>
		</contour>
	</outline>
</glyph>
<glyph name="threequarters" format="2">
	<advance width="922"/>
	<unicode hex="00BE"/>
	<outline>
		<contour>
			<point x="357" y="0" type="line"/>
			<point x="631" y="650" type="line"/>
			<point x="565" y="650" type="line"/>
			<point x="294" y="0" type="line"/>
		</contour>
		<contour>
			<point x="286" y="255"/>
			<point x="343" y="294"/>
			<point x="343" y="365" type="curve" smooth="yes"/>
			<point x="343" y="410"/>
			<point x="315" y="452"/>
			<point x="263" y="471" type="curve"/>
			<point x="305" y="489"/>
			<point x="331" y="521"/>
			<point x="331" y="564" type="curve" smooth="yes"/>
			<point x="331" y="631"/>
			<point x="263" y="663"/>
			<point x="197" y="663" type="curve" smooth="yes"/>
			<point x="134" y="663"/>
			<point x="75" y="635"/>
			<point x="75" y="575" type="curve" smooth="yes"/>
			<point x="75" y="539"/>
			<point x="104" y="515"/>
			<point x="143" y="515" type="curve" smooth="yes"/>
			<point x="155" y="515"/>
			<point x="162" y="517"/>
			<point x="162" y="526" type="curve"/>
			<point x="162" y="526"/>
			<point x="159" y="533"/>
			<point x="157" y="536" type="curve"/>
			<point x="154" y="542"/>
			<point x="147" y="556"/>
			<point x="147" y="572" type="curve" smooth="yes"/>
			<point x="147" y="605"/>
			<point x="171" y="621"/>
			<point x="196" y="621" type="curve" smooth="yes"/>
			<point x="225" y="621"/>
			<point x="254" y="602"/>
			<point x="254" y="563" type="curve" smooth="yes"/>
			<point x="254" y="534"/>
			<point x="244" y="493"/>
			<point x="160" y="478" type="curve" smooth="yes"/>
			<point x="124" y="472"/>
			<point x="124" y="466"/>
			<point x="124" y="453" type="curve" smooth="yes"/>
			<point x="124" y="444"/>
			<point x="128" y="438"/>
			<point x="142" y="438" type="curve" smooth="yes"/>
			<point x="143" y="438"/>
			<point x="147" y="438"/>
			<point x="148" y="439" type="curve"/>
			<point x="155" y="440"/>
			<point x="169" y="443"/>
			<point x="185" y="443" type="curve" smooth="yes"/>
			<point x="253" y="443"/>
			<point x="264" y="396"/>
			<point x="264" y="369" type="curve" smooth="yes"/>
			<point x="264" y="322"/>
			<point x="231" y="300"/>
			<point x="197" y="300" type="curve" smooth="yes"/>
			<point x="166" y="300"/>
			<point x="136" y="319"/>
			<point x="136" y="352" type="curve" smooth="yes"/>
			<point x="136" y="369"/>
			<point x="145" y="381"/>
			<point x="147" y="387" type="curve"/>
			<point x="148" y="390"/>
			<point x="151" y="396"/>
			<point x="152" y="396" type="curve"/>
			<point x="152" y="409"/>
			<point x="147" y="409"/>
			<point x="131" y="409" type="curve" smooth="yes"/>
			<point x="94" y="409"/>
			<point x="64" y="384"/>
			<point x="64" y="347" type="curve" smooth="yes"/>
			<point x="64" y="284"/>
			<point x="130" y="255"/>
			<point x="197" y="255" type="curve" smooth="yes"/>
		</contour>
		<contour>
			<point x="800" y="0" type="line"/>
			<point x="811" y="15" type="line"/>
			<point x="801" y="28" type="line"/>
			<point x="787" y="43"/>
			<point x="782" y="59"/>
			<point x="779" y="86" type="curve"/>
			<point x="811" y="86" type="line"/>
			<point x="825" y="98"/>
			<point x="829" y="117"/>
			<point x="829" y="132" type="curve"/>
			<point x="779" y="132" type="line"/>
			<point x="779" y="268" type="line"/>
			<point x="705" y="260" type="line"/>
			<point x="693" y="247" type="line"/>
			<point x="706" y="229"/>
			<point x="706" y="220"/>
			<point x="706" y="198" type="curve" smooth="yes"/>
			<point x="706" y="132" type="line"/>
			<point x="592" y="132" type="line"/>
			<point x="705" y="381" type="line"/>
			<point x="688" y="395" type="line"/>
			<point x="644" y="395" type="line"/>
			<point x="515" y="86" type="line"/>
			<point x="706" y="86" type="line"/>
			<point x="706" y="77" type="line" smooth="yes"/>
			<point x="706" y="48"/>
			<point x="701" y="41"/>
			<point x="680" y="36" type="curve" smooth="yes"/>
			<point x="648" y="28" type="line"/>
			<point x="660" y="0" type="line"/>
		</contour>
	</outline>
</glyph>
<glyph name="questiondown" format="2">
	<advance width="486"/>
	<unicode hex="00BF"/>
	<outline>
		<contour>
			<point x="361" y="-238"/>
			<point x="441" y="-187"/>
			<point x="441" y="-112" type="curve" smooth="yes"/>
			<point x="441" y="-60"/>
			<point x="404" y="-22"/>
			<point x="353" y="-22" type="curve" smooth="yes"/>
			<point x="341" y="-22"/>
			<point x="336" y="-26"/>
			<point x="336" y="-33" type="curve" smooth="yes"/>
			<point x="336" y="-42"/>
			<point x="356" y="-57"/>
			<point x="356" y="-108" type="curve" smooth="yes"/>
			<point x="356" y="-156"/>
			<point x="323" y="-186"/>
			<point x="271" y="-186" type="curve" smooth="yes"/>
			<point x="207" y="-186"/>
			<point x="161" y="-150"/>
			<point x="161" y="-74" type="curve" smooth="yes"/>
			<point x="161" y="-12"/>
			<point x="180" y="61"/>
			<point x="339" y="197" type="curve"/>
			<point x="282" y="255" type="line"/>
			<point x="265" y="255" type="line"/>
			<point x="261" y="237" type="line"/>
			<point x="250" y="201"/>
			<point x="228" y="179"/>
			<point x="185" y="140" type="curve" smooth="yes"/>
			<point x="105" y="63"/>
			<point x="58" y="-11"/>
			<point x="58" y="-79" type="curve" smooth="yes"/>
			<point x="58" y="-181"/>
			<point x="146" y="-238"/>
			<point x="250" y="-238" type="curve" smooth="yes"/>
		</contour>
		<contour>
			<point x="298" y="344"/>
			<point x="331" y="379"/>
			<point x="331" y="404" type="curve" smooth="yes"/>
			<point x="331" y="427"/>
			<point x="297" y="462"/>
			<point x="276" y="462" type="curve" smooth="yes"/>
			<point x="254" y="462"/>
			<point x="219" y="427"/>
			<point x="219" y="404" type="curve" smooth="yes"/>
			<point x="219" y="379"/>
			<point x="254" y="344"/>
			<point x="276" y="344" type="curve" smooth="yes"/>
		</contour>
	</outline>
</glyph>
<glyph name="Ccedilla" format="2">
	<advance width="559"/>
	<unicode hex="00C7"/>
	<outline>
		<contour>
			<point x="340" y="-267"/>
			<point x="392" y="-220"/>
			<point x="392" y="-162" type="curve" smooth="yes"/>
			<point x="392" y="-93"/>
			<point x="343" y="-60"/>
			<point x="290" y="-60" type="curve" smooth="yes"/>
			<point x="278" y="-60"/>
			<point x="268" y="-61"/>
			<point x="256" y="-63" type="curve"/>
			<point x="295" y="-12" type="line"/>
			<point x="304" y="-12"/>
			<point x="312" y="-13"/>
			<point x="321" y="-13" type="curve" smooth="yes"/>
			<point x="418" y="-13"/>
			<point x="485" y="33"/>
			<point x="533" y="102" type="curve"/>
			<point x="534" y="104"/>
			<point x="535" y="107"/>
			<point x="535" y="109" type="curve" smooth="yes"/>
			<point x="535" y="122"/>
			<point x="518" y="135"/>
			<point x="506" y="135" type="curve" smooth="yes"/>
			<point x="503" y="135"/>
			<point x="502" y="134"/>
			<point x="500" y="131" type="curve" smooth="yes"/>
			<point x="467" y="82"/>
			<point x="409" y="50"/>
			<point x="329" y="50" type="curve" smooth="yes"/>
			<point x="209" y="50"/>
			<point x="134" y="174"/>
			<point x="134" y="324" type="curve" smooth="yes"/>
			<point x="134" y="460"/>
			<point x="182" y="613"/>
			<point x="324" y="613" type="curve" smooth="yes"/>
			<point x="394" y="613"/>
			<point x="439" y="573"/>
			<point x="439" y="518" type="curve" smooth="yes"/>
			<point x="439" y="468"/>
			<point x="411" y="444"/>
			<point x="411" y="436" type="curve" smooth="yes"/>
			<point x="411" y="429"/>
			<point x="418" y="425"/>
			<point x="432" y="425" type="curve" smooth="yes"/>
			<point x="486" y="425"/>
			<point x="527" y="468"/>
			<point x="527" y="530" type="curve" smooth="yes"/>
			<point x="527" y="609"/>
			<point x="443" y="663"/>
			<point x="324" y="663" type="curve" smooth="yes"/>
			<point x="126" y="663"/>
			<point x="32" y="512"/>
			<point x="32" y="324" type="curve" smooth="yes"/>
			<point x="32" y="158"/>
			<point x="106" y="21"/>
			<point x="262" y="-7" type="curve"/>
			<point x="197" y="-93" type="line"/>
			<point x="215" y="-108" type="line"/>
			<point x="233" y="-98"/>
			<point x="250" y="-94"/>
			<point x="264" y="-94" type="curve" smooth="yes"/>
			<point x="306" y="-94"/>
			<point x="325" y="-127"/>
			<point x="325" y="-161" type="curve" smooth="yes"/>
			<point x="325" y="-194"/>
			<point x="305" y="-229"/>
			<point x="268" y="-229" type="curve" smooth="yes"/>
			<point x="249" y="-229"/>
			<point x="230" y="-216"/>
			<point x="230" y="-193" type="curve" smooth="yes"/>
			<point x="230" y="-167"/>
			<point x="244" y="-162"/>
			<point x="244" y="-153" type="curve" smooth="yes"/>
			<point x="244" y="-148"/>
			<point x="238" y="-145"/>
			<point x="228" y="-145" type="curve" smooth="yes"/>
			<point x="197" y="-145"/>
			<point x="170" y="-165"/>
			<point x="170" y="-197" type="curve" smooth="yes"/>
			<point x="170" y="-243"/>
			<point x="220" y="-267"/>
			<point x="270" y="-267" type="curve" smooth="yes"/>
		</contour>
	</outline>
</glyph>
<glyph name="Egrave" format="2">
	<advance width="551"/>
	<unicode hex="00C8"/>
	<outline>
		<contour>
			<point x="495" y="-13" type="line"/>
			<point x="495" y="143" type="line"/>
			<point x="465" y="152" type="line"/>
			<point x="459" y="132" type="line" smooth="yes"/>
			<point x="442" y="68"/>
			<point x="425" y="52"/>
			<point x="360" y="52" type="curve" smooth="yes"/>
			<point x="263" y="52" type="line" smooth="yes"/>
			<point x="216" y="52"/>
			<point x="205" y="63"/>
			<point x="205" y="120" type="curve" smooth="yes"/>
			<point x="205" y="305" type="line"/>
			<point x="281" y="305" type="line" smooth="yes"/>
			<point x="346" y="305"/>
			<point x="368" y="297"/>
			<point x="381" y="254" type="curve" smooth="yes"/>
			<point x="387" y="231" type="line"/>
			<point x="417" y="242" type="line"/>
			<point x="417" y="397" type="line"/>
			<point x="399" y="407" type="line"/>
			<point x="392" y="397" type="line"/>
			<point x="369" y="365"/>
			<point x="349" y="356"/>
			<point x="320" y="356" type="curve" smooth="yes"/>
			<point x="205" y="356" type="line"/>
			<point x="205" y="530" type="line" smooth="yes"/>
			<point x="205" y="586"/>
			<point x="216" y="600"/>
			<point x="263" y="600" type="curve" smooth="yes"/>
			<point x="352" y="600" type="line" smooth="yes"/>
			<point x="415" y="600"/>
			<point x="433" y="583"/>
			<point x="449" y="519" type="curve" smooth="yes"/>
			<point x="454" y="497" type="line"/>
			<point x="485" y="508" type="line"/>
			<point x="485" y="669" type="line"/>
			<point x="472" y="681" type="line"/>
			<point x="454" y="669" type="line"/>
			<point x="437" y="655"/>
			<point x="404" y="650"/>
			<point x="352" y="650" type="curve" smooth="yes"/>
			<point x="75" y="650" type="line"/>
			<point x="63" y="636" type="line"/>
			<point x="75" y="619" type="line" smooth="yes"/>
			<point x="104" y="580"/>
			<point x="115" y="541"/>
			<point x="115" y="469" type="curve" smooth="yes"/>
			<point x="115" y="114" type="line" smooth="yes"/>
			<point x="115" y="61"/>
			<point x="104" y="47"/>
			<point x="60" y="34" type="curve" smooth="yes"/>
			<point x="40" y="29" type="line"/>
			<point x="51" y="0" type="line"/>
			<point x="433" y="0" type="line" smooth="yes"/>
			<point x="451" y="0"/>
			<point x="462" y="-3"/>
			<point x="471" y="-13" type="curve"/>
			<point x="478" y="-22" type="line"/>
		</contour>
		<contour>
			<point x="370" y="747" type="line"/>
			<point x="229" y="890" type="line"/>
			<point x="205" y="878"/>
			<point x="190" y="858"/>
			<point x="190" y="831" type="curve" smooth="yes"/>
			<point x="190" y="806"/>
			<point x="204" y="784"/>
			<point x="241" y="767" type="curve" smooth="yes"/>
			<point x="344" y="717" type="line"/>
		</contour>
	</outline>
</glyph>
<glyph name="Igrave" format="2">
	<advance width="319"/>
	<unicode hex="00CC"/>
	<outline>
		<contour>
			<point x="270" y="0" type="line"/>
			<point x="278" y="29" type="line"/>
			<point x="260" y="34" type="line" smooth="yes"/>
			<point x="217" y="47"/>
			<point x="205" y="61"/>
			<point x="205" y="114" type="curve" smooth="yes"/>
			<point x="205" y="469" type="line" smooth="yes"/>
			<point x="205" y="541"/>
			<point x="216" y="580"/>
			<point x="246" y="619" type="curve" smooth="yes"/>
			<point x="258" y="636" type="line"/>
			<point x="246" y="650" type="line"/>
			<point x="47" y="650" type="line"/>
			<point x="36" y="619" type="line"/>
			<point x="58" y="614" type="line"/>
			<point x="103" y="602"/>
			<point x="115" y="586"/>
			<point x="115" y="530" type="curve" smooth="yes"/>
			<point x="115" y="120" type="line" smooth="yes"/>
			<point x="115" y="63"/>
			<point x="103" y="50"/>
			<point x="58" y="36" type="curve"/>
			<point x="36" y="31" type="line"/>
			<point x="47" y="0" type="line"/>
		</contour>
		<contour>
			<point x="249" y="747" type="line"/>
			<point x="108" y="890" type="line"/>
			<point x="85" y="878"/>
			<point x="69" y="858"/>
			<point x="69" y="831" type="curve" smooth="yes"/>
			<point x="69" y="806"/>
			<point x="83" y="784"/>
			<point x="120" y="767" type="curve" smooth="yes"/>
			<point x="224" y="717" type="line"/>
		</contour>
	</outline>
</glyph>
<glyph name="Iacute" format="2">
	<advance width="319"/>
	<unicode hex="00CD"/>
	<outline>
		<contour>
			<point x="270" y="0" type="line"/>
			<point x="278" y="29" type="line"/>
			<point x="260" y="34" type="line" smooth="yes"/>
			<point x="217" y="47"/>
			<point x="205" y="61"/>
			<point x="205" y="114" type="curve" smooth="yes"/>
			<point x="205" y="469" type="line" smooth="yes"/>
			<point x="205" y="541"/>
			<point x="216" y="580"/>
			<point x="246" y="619" type="curve" smooth="yes"/>
			<point x="258" y="636" type="line"/>
			<point x="246" y="650" type="line"/>
			<point x="47" y="650" type="line"/>
			<point x="36" y="619" type="line"/>
			<point x="58" y="614" type="line"/>
			<point x="103" y="602"/>
			<point x="115" y="586"/>
			<point x="115" y="530" type="curve" smooth="yes"/>
			<point x="115" y="120" type="line" smooth="yes"/>
			<point x="115" y="63"/>
			<point x="103" y="50"/>
			<point x="58" y="36" type="curve"/>
			<point x="36" y="31" type="line"/>
			<point x="47" y="0" type="line"/>
		</contour>
		<contour>
			<point x="207" y="767" type="line" smooth="yes"/>
			<point x="243" y="784"/>
			<point x="257" y="806"/>
			<point x="257" y="831" type="curve" smooth="yes"/>
			<point x="257" y="858"/>
			<point x="241" y="878"/>
			<point x="218" y="890" type="curve"/>
			<point x="78" y="747" type="line"/>
			<point x="104" y="717" type="line"/>
		</contour>
	</outline>
</glyph>
<glyph name="Idieresis" format="2">
	<advance width="319"/>
	<unicode hex="00CF"/>
	<outline>
		<contour>
			<point x="270" y="0" type="line"/>
			<point x="278" y="29" type="line"/>
			<point x="260" y="34" type="line" smooth="yes"/>
			<point x="217" y="47"/>
			<point x="205" y="61"/>
			<point x="205" y="114" type="curve" smooth="yes"/>
			<point x="205" y="469" type="line" smooth="yes"/>
			<point x="205" y="541"/>
			<point x="216" y="580"/>
			<point x="246" y="619" type="curve" smooth="yes"/>
			<point x="258" y="636" type="line"/>
			<point x="246" y="650" type="line"/>
			<point x="47" y="650" type="line"/>
			<point x="36" y="619" type="line"/>
			<point x="58" y="614" type="line"/>
			<point x="103" y="602"/>
			<point x="115" y="586"/>
			<point x="115" y="530" type="curve" smooth="yes"/>
			<point x="115" y="120" type="line" smooth="yes"/>
			<point x="115" y="63"/>
			<point x="103" y="50"/>
			<point x="58" y="36" type="curve"/>
			<point x="36" y="31" type="line"/>
			<point x="47" y="0" type="line"/>
		</contour>
		<contour>
			<point x="95" y="737"/>
			<point x="131" y="773"/>
			<point x="131" y="796" type="curve" smooth="yes"/>
			<point x="131" y="819"/>
			<point x="95" y="856"/>
			<point x="72" y="856" type="curve" smooth="yes"/>
			<point x="51" y="856"/>
			<point x="18" y="819"/>
			<point x="18" y="796" type="curve" smooth="yes"/>
			<point x="18" y="773"/>
			<point x="52" y="737"/>
			<point x="72" y="737" type="curve" smooth="yes"/>
		</contour>
		<contour>
			<point x="267" y="737"/>
			<point x="303" y="773"/>
			<point x="303" y="796" type="curve" smooth="yes"/>
			<point x="303" y="819"/>
			<point x="267" y="856"/>
			<point x="244" y="856" type="curve" smooth="yes"/>
			<point x="223" y="856"/>
			<point x="189" y="819"/>
			<point x="189" y="796" type="curve" smooth="yes"/>
			<point x="189" y="773"/>
			<point x="224" y="737"/>
			<point x="244" y="737" type="curve" smooth="yes"/>
		</contour>
	</outline>
</glyph>
<glyph name="Eth" format="2">
	<advance width="663"/>
	<unicode hex="00D0"/>
	<outline>
		<contour>
			<point x="331" y="0" type="line" smooth="yes"/>
			<point x="533" y="0"/>
			<point x="632" y="144"/>
			<point x="632" y="324" type="curve" smooth="yes"/>
			<point x="632" y="504"/>
			<point x="548" y="663"/>
			<point x="277" y="663" type="curve" smooth="yes"/>
			<point x="185" y="663"/>
			<point x="82" y="641"/>
			<point x="32" y="623" type="curve"/>
			<point x="43" y="589" type="line"/>
			<point x="95" y="589" type="line" smooth="yes"/>
			<point x="108" y="589"/>
			<point x="115" y="584"/>
			<point x="115" y="568" type="curve" smooth="yes"/>
			<point x="115" y="357" type="line"/>
			<point x="30" y="357" type="line"/>
			<point x="14" y="346"/>
			<point x="10" y="320"/>
			<point x="10" y="302" type="curve"/>
			<point x="115" y="302" type="line"/>
			<point x="115" y="110" type="line" smooth="yes"/>
			<point x="115" y="61"/>
			<point x="91" y="46"/>
			<point x="58" y="36" type="curve"/>
			<point x="36" y="31" type="line"/>
			<point x="47" y="0" type="line"/>
		</contour>
		<contour>
			<point x="254" y="46"/>
			<point x="205" y="63"/>
			<point x="205" y="159" type="curve" smooth="yes"/>
			<point x="205" y="302" type="line"/>
			<point x="360" y="302" type="line"/>
			<point x="376" y="314"/>
			<point x="381" y="339"/>
			<point x="381" y="357" type="curve"/>
			<point x="205" y="357" type="line"/>
			<point x="205" y="570" type="line" smooth="yes"/>
			<point x="205" y="587"/>
			<point x="214" y="613"/>
			<point x="294" y="613" type="curve" smooth="yes"/>
			<point x="460" y="613"/>
			<point x="534" y="473"/>
			<point x="534" y="326" type="curve" smooth="yes"/>
			<point x="534" y="145"/>
			<point x="461" y="46"/>
			<point x="303" y="46" type="curve" smooth="yes"/>
		</contour>
	</outline>
</glyph>
<glyph name="Oacute" format="2">
	<advance width="663"/>
	<unicode hex="00D3"/>
	<outline>
		<contour>
			<point x="533" y="-13"/>
			<point x="632" y="137"/>
			<point x="632" y="324" type="curve" smooth="yes"/>
			<point x="632" y="512"/>
			<point x="533" y="663"/>
			<point x="331" y="663" type="curve" smooth="yes"/>
			<point x="129" y="663"/>
			<point x="32" y="512"/>
			<point x="32" y="324" type="curve" smooth="yes"/>
			<point x="32" y="137"/>
			<point x="129" y="-13"/>
			<point x="331" y="-13" type="curve" smooth="yes"/>
		</contour>
		<contour>
			<point x="196" y="40"/>
			<point x="130" y="163"/>
			<point x="130" y="316" type="curve" smooth="yes"/>
			<point x="130" y="478"/>
			<point x="205" y="612"/>
			<point x="337" y="612" type="curve" smooth="yes"/>
			<point x="490" y="612"/>
			<point x="534" y="436"/>
			<point x="534" y="321" type="curve" smooth="yes"/>
			<point x="534" y="166"/>
			<point x="458" y="40"/>
			<point x="327" y="40" type="curve" smooth="yes"/>
		</contour>
		<contour>
			<point x="371" y="767" type="line" smooth="yes"/>
			<point x="407" y="784"/>
			<point x="421" y="806"/>
			<point x="421" y="831" type="curve" smooth="yes"/>
			<point x="421" y="858"/>
			<point x="406" y="878"/>
			<point x="383" y="890" type="curve"/>
			<point x="242" y="747" type="line"/>
			<point x="268" y="717" type="line"/>
		</contour>
	</outline>
</glyph>
<glyph name="Ocircumflex" format="2">
	<advance width="663"/>
	<unicode hex="00D4"/>
	<outline>
		<contour>
			<point x="533" y="-13"/>
			<point x="632" y="137"/>
			<point x="632" y="324" type="curve" smooth="yes"/>
			<point x="632" y="512"/>
			<point x="533" y="663"/>
			<point x="331" y="663" type="curve" smooth="yes"/>
			<point x="129" y="663"/>
			<point x="32" y="512"/>
			<point x="32" y="324" type="curve" smooth="yes"/>
			<point x="32" y="137"/>
			<point x="129" y="-13"/>
			<point x="331" y="-13" type="curve" smooth="yes"/>
		</contour>
		<contour>
			<point x="196" y="40"/>
			<point x="130" y="163"/>
			<point x="130" y="316" type="curve" smooth="yes"/>
			<point x="130" y="478"/>
			<point x="205" y="612"/>
			<point x="337" y="612" type="curve" smooth="yes"/>
			<point x="490" y="612"/>
			<point x="534" y="436"/>
			<point x="534" y="321" type="curve" smooth="yes"/>
			<point x="534" y="166"/>
			<point x="458" y="40"/>
			<point x="327" y="40" type="curve" smooth="yes"/>
		</contour>
		<contour>
			<point x="331" y="791" type="line"/>
			<point x="427" y="717" type="line"/>
			<point x="456" y="741" type="line"/>
			<point x="416" y="813"/>
			<point x="364" y="872"/>
			<point x="344" y="884" type="curve"/>
			<point x="320" y="884" type="line"/>
			<point x="297" y="870"/>
			<point x="247" y="811"/>
			<point x="208" y="741" type="curve"/>
			<point x="238" y="717" type="line"/>
		</contour>
	</outline>
</glyph>
<glyph name="Otilde" format="2">
	<advance width="663"/>
	<unicode hex="00D5"/>
	<outline>
		<contour>
			<point x="533" y="-13"/>
			<point x="632" y="137"/>
			<point x="632" y="324" type="curve" smooth="yes"/>
			<point x="632" y="512"/>
			<point x="533" y="663"/>
			<point x="331" y="663" type="curve" smooth="yes"/>
			<point x="129" y="663"/>
			<point x="32" y="512"/>
			<point x="32" y="324" type="curve" smooth="yes"/>
			<point x="32" y="137"/>
			<point x="129" y="-13"/>
			<point x="331" y="-13" type="curve" smooth="yes"/>
		</contour>
		<contour>
			<point x="196" y="40"/>
			<point x="130" y="163"/>
			<point x="130" y="316" type="curve" smooth="yes"/>
			<point x="130" y="478"/>
			<point x="205" y="612"/>
			<point x="337" y="612" type="curve" smooth="yes"/>
			<point x="490" y="612"/>
			<point x="534" y="436"/>
			<point x="534" y="321" type="curve" smooth="yes"/>
			<point x="534" y="166"/>
			<point x="458" y="40"/>
			<point x="327" y="40" type="curve" smooth="yes"/>
		</contour>
		<contour>
			<point x="240" y="761"/>
			<point x="263" y="771"/>
			<point x="277" y="771" type="curve" smooth="yes"/>
			<point x="307" y="771"/>
			<point x="321" y="739"/>
			<point x="363" y="739" type="curve" smooth="yes"/>
			<point x="397" y="739"/>
			<point x="441" y="774"/>
			<point x="479" y="827" type="curve"/>
			<point x="449" y="856" type="line"/>
			<point x="422" y="830"/>
			<point x="402" y="819"/>
			<point x="387" y="819" type="curve" smooth="yes"/>
			<point x="358" y="819"/>
			<point x="340" y="852"/>
			<point x="302" y="852" type="curve" smooth="yes"/>
			<point x="268" y="852"/>
			<point x="224" y="817"/>
			<point x="185" y="765" type="curve"/>
			<point x="217" y="735" type="line"/>
		</contour>
	</outline>
</glyph>
<glyph name="Odieresis" format="2">
	<advance width="663"/>
	<unicode hex="00D6"/>
	<outline>
		<contour>
			<point x="533" y="-13"/>
			<point x="632" y="137"/>
			<point x="632" y="324" type="curve" smooth="yes"/>
			<point x="632" y="512"/>
			<point x="533" y="663"/>
			<point x="331" y="663" type="curve" smooth="yes"/>
			<point x="129" y="663"/>
			<point x="32" y="512"/>
			<point x="32" y="324" type="curve" smooth="yes"/>
			<point x="32" y="137"/>
			<point x="129" y="-13"/>
			<point x="331" y="-13" type="curve" smooth="yes"/>
		</contour>
		<contour>
			<point x="196" y="40"/>
			<point x="130" y="163"/>
			<point x="130" y="316" type="curve" smooth="yes"/>
			<point x="130" y="478"/>
			<point x="205" y="612"/>
			<point x="337" y="612" type="curve" smooth="yes"/>
			<point x="490" y="612"/>
			<point x="534" y="436"/>
			<point x="534" y="321" type="curve" smooth="yes"/>
			<point x="534" y="166"/>
			<point x="458" y="40"/>
			<point x="327" y="40" type="curve" smooth="yes"/>
		</contour>
		<contour>
			<point x="268" y="737"/>
			<point x="304" y="773"/>
			<point x="304" y="796" type="curve" smooth="yes"/>
			<point x="304" y="819"/>
			<point x="268" y="856"/>
			<point x="245" y="856" type="curve" smooth="yes"/>
			<point x="224" y="856"/>
			<point x="190" y="819"/>
			<point x="190" y="796" type="curve" smooth="yes"/>
			<point x="190" y="773"/>
			<point x="225" y="737"/>
			<point x="245" y="737" type="curve" smooth="yes"/>
		</contour>
		<contour>
			<point x="439" y="737"/>
			<point x="475" y="773"/>
			<point x="475" y="796" type="curve" smooth="yes"/>
			<point x="475" y="819"/>
			<point x="439" y="856"/>
			<point x="417" y="856" type="curve" smooth="yes"/>
			<point x="396" y="856"/>
			<point x="361" y="819"/>
			<point x="361" y="796" type="curve" smooth="yes"/>
			<point x="361" y="773"/>
			<point x="396" y="737"/>
			<point x="417" y="737" type="curve" smooth="yes"/>
		</contour>
	</outline>
</glyph>
<glyph name="multiply" format="2">
	<advance width="621"/>
	<unicode hex="00D7"/>
	<outline>
		<contour>
			<point x="280" y="274" type="line"/>
			<point x="411" y="144" type="line"/>
			<point x="460" y="192" type="line"/>
			<point x="329" y="323" type="line"/>
			<point x="460" y="454" type="line"/>
			<point x="411" y="503" type="line"/>
			<point x="280" y="372" type="line"/>
			<point x="149" y="503" type="line"/>
			<point x="101" y="454" type="line"/>
			<point x="231" y="323" type="line"/>
			<point x="101" y="192" type="line"/>
			<point x="149" y="144" type="line"/>
		</contour>
	</outline>
</glyph>
<glyph name="Uacute" format="2">
	<advance width="669"/>
	<unicode hex="00DA"/>
	<outline>
		<contour>
			<point x="469" y="-13"/>
			<point x="572" y="50"/>
			<point x="572" y="198" type="curve" smooth="yes"/>
			<point x="572" y="469" type="line" smooth="yes"/>
			<point x="572" y="541"/>
			<point x="583" y="580"/>
			<point x="613" y="619" type="curve" smooth="yes"/>
			<point x="625" y="636" type="line"/>
			<point x="613" y="650" type="line"/>
			<point x="441" y="650" type="line"/>
			<point x="430" y="619" type="line"/>
			<point x="451" y="614" type="line" smooth="yes"/>
			<point x="497" y="602"/>
			<point x="509" y="586"/>
			<point x="509" y="530" type="curve" smooth="yes"/>
			<point x="509" y="198" type="line" smooth="yes"/>
			<point x="509" y="101"/>
			<point x="438" y="45"/>
			<point x="351" y="45" type="curve" smooth="yes"/>
			<point x="262" y="45"/>
			<point x="190" y="101"/>
			<point x="190" y="198" type="curve" smooth="yes"/>
			<point x="190" y="469" type="line" smooth="yes"/>
			<point x="190" y="541"/>
			<point x="201" y="580"/>
			<point x="230" y="619" type="curve" smooth="yes"/>
			<point x="242" y="636" type="line"/>
			<point x="230" y="650" type="line"/>
			<point x="33" y="650" type="line"/>
			<point x="21" y="619" type="line"/>
			<point x="43" y="614" type="line"/>
			<point x="89" y="602"/>
			<point x="101" y="586"/>
			<point x="101" y="530" type="curve" smooth="yes"/>
			<point x="101" y="198" type="line" smooth="yes"/>
			<point x="101" y="50"/>
			<point x="206" y="-13"/>
			<point x="339" y="-13" type="curve" smooth="yes"/>
		</contour>
		<contour>
			<point x="406" y="767" type="line" smooth="yes"/>
			<point x="442" y="784"/>
			<point x="456" y="806"/>
			<point x="456" y="831" type="curve" smooth="yes"/>
			<point x="456" y="858"/>
			<point x="441" y="878"/>
			<point x="418" y="890" type="curve"/>
			<point x="277" y="747" type="line"/>
			<point x="304" y="717" type="line"/>
		</contour>
	</outline>
</glyph>
<glyph name="Thorn" format="2">
	<advance width="539"/>
	<unicode hex="00DE"/>
	<outline>
		<contour>
			<point x="270" y="0" type="line"/>
			<point x="278" y="29" type="line"/>
			<point x="260" y="34" type="line" smooth="yes"/>
			<point x="217" y="47"/>
			<point x="205" y="61"/>
			<point x="205" y="114" type="curve" smooth="yes"/>
			<point x="205" y="451" type="line" smooth="yes"/>
			<point x="205" y="470"/>
			<point x="213" y="497"/>
			<point x="283" y="497" type="curve" smooth="yes"/>
			<point x="379" y="497"/>
			<point x="428" y="423"/>
			<point x="428" y="326" type="curve" smooth="yes"/>
			<point x="428" y="229"/>
			<point x="375" y="165"/>
			<point x="283" y="165" type="curve" smooth="yes"/>
			<point x="256" y="165"/>
			<point x="248" y="172"/>
			<point x="239" y="172" type="curve" smooth="yes"/>
			<point x="229" y="172"/>
			<point x="225" y="161"/>
			<point x="225" y="148" type="curve" smooth="yes"/>
			<point x="225" y="128"/>
			<point x="265" y="118"/>
			<point x="305" y="118" type="curve" smooth="yes"/>
			<point x="454" y="118"/>
			<point x="521" y="216"/>
			<point x="521" y="328" type="curve" smooth="yes"/>
			<point x="521" y="448"/>
			<point x="433" y="544"/>
			<point x="309" y="544" type="curve" smooth="yes"/>
			<point x="276" y="544"/>
			<point x="242" y="539"/>
			<point x="208" y="526" type="curve"/>
			<point x="213" y="563"/>
			<point x="225" y="591"/>
			<point x="246" y="619" type="curve" smooth="yes"/>
			<point x="258" y="636" type="line"/>
			<point x="246" y="650" type="line"/>
			<point x="47" y="650" type="line"/>
			<point x="36" y="619" type="line"/>
			<point x="58" y="614" type="line"/>
			<point x="103" y="602"/>
			<point x="115" y="586"/>
			<point x="115" y="530" type="curve" smooth="yes"/>
			<point x="115" y="120" type="line" smooth="yes"/>
			<point x="115" y="63"/>
			<point x="103" y="50"/>
			<point x="58" y="36" type="curve"/>
			<point x="36" y="31" type="line"/>
			<point x="47" y="0" type="line"/>
		</contour>
	</outline>
</glyph>
<glyph name="germandbls" format="2">
	<advance width="575"/>
	<unicode hex="00DF"/>
	<outline>
		<contour>
			<point x="491" y="-13"/>
			<point x="559" y="54"/>
			<point x="559" y="131" type="curve" smooth="yes"/>
			<point x="559" y="202"/>
			<point x="507" y="250"/>
			<point x="443" y="282" type="curve" smooth="yes"/>
			<point x="380" y="314" type="line" smooth="yes"/>
			<point x="346" y="333"/>
			<point x="331" y="354"/>
			<point x="331" y="385" type="curve" smooth="yes"/>
			<point x="331" y="455"/>
			<point x="452" y="504"/>
			<point x="452" y="592" type="curve" smooth="yes"/>
			<point x="452" y="670"/>
			<point x="393" y="709"/>
			<point x="316" y="709" type="curve" smooth="yes"/>
			<point x="185" y="709"/>
			<point x="91" y="626"/>
			<point x="91" y="477" type="curve" smooth="yes"/>
			<point x="91" y="120" type="line" smooth="yes"/>
			<point x="91" y="63"/>
			<point x="78" y="50"/>
			<point x="33" y="36" type="curve"/>
			<point x="12" y="31" type="line"/>
			<point x="22" y="0" type="line"/>
			<point x="222" y="0" type="line"/>
			<point x="232" y="15" type="line"/>
			<point x="222" y="31" type="line"/>
			<point x="191" y="70"/>
			<point x="180" y="107"/>
			<point x="180" y="182" type="curve" smooth="yes"/>
			<point x="180" y="491" type="line" smooth="yes"/>
			<point x="180" y="588"/>
			<point x="213" y="662"/>
			<point x="296" y="662" type="curve" smooth="yes"/>
			<point x="331" y="662"/>
			<point x="369" y="646"/>
			<point x="369" y="592" type="curve" smooth="yes"/>
			<point x="369" y="500"/>
			<point x="251" y="430"/>
			<point x="251" y="357" type="curve" smooth="yes"/>
			<point x="251" y="305"/>
			<point x="275" y="278"/>
			<point x="321" y="250" type="curve"/>
			<point x="390" y="216" type="line" smooth="yes"/>
			<point x="444" y="187"/>
			<point x="479" y="154"/>
			<point x="479" y="106" type="curve" smooth="yes"/>
			<point x="479" y="53"/>
			<point x="433" y="33"/>
			<point x="395" y="33" type="curve" smooth="yes"/>
			<point x="331" y="33"/>
			<point x="311" y="51"/>
			<point x="296" y="51" type="curve" smooth="yes"/>
			<point x="284" y="51"/>
			<point x="281" y="40"/>
			<point x="281" y="28" type="curve" smooth="yes"/>
			<point x="281" y="21"/>
			<point x="284" y="14"/>
			<point x="290" y="10" type="curve"/>
			<point x="319" y="-5"/>
			<point x="354" y="-13"/>
			<point x="394" y="-13" type="curve" smooth="yes"/>
		</contour>
	</outline>
</glyph>
<glyph name="aring" format="2">
	<advance width="546"/>
	<unicode hex="00E5"/>
	<outline>
		<contour>
			<point x="260" y="-13"/>
			<point x="311" y="9"/>
			<point x="362" y="83" type="curve"/>
			<point x="362" y="15"/>
			<point x="384" y="-13"/>
			<point x="434" y="-13" type="curve" smooth="yes"/>
			<point x="464" y="-13"/>
			<point x="502" y="10"/>
			<point x="534" y="45" type="curve"/>
			<point x="517" y="68" type="line"/>
			<point x="501" y="57"/>
			<point x="485" y="52"/>
			<point x="472" y="52" type="curve" smooth="yes"/>
			<point x="454" y="52"/>
			<point x="443" y="61"/>
			<point x="443" y="80" type="curve" smooth="yes"/>
			<point x="443" y="375" type="line" smooth="yes"/>
			<point x="443" y="392"/>
			<point x="448" y="399"/>
			<point x="455" y="411" type="curve"/>
			<point x="468" y="428" type="line"/>
			<point x="456" y="439" type="line"/>
			<point x="395" y="443"/>
			<point x="331" y="461"/>
			<point x="275" y="461" type="curve" smooth="yes"/>
			<point x="131" y="461"/>
			<point x="40" y="364"/>
			<point x="40" y="208" type="curve" smooth="yes"/>
			<point x="40" y="61"/>
			<point x="119" y="-13"/>
			<point x="204" y="-13" type="curve" smooth="yes"/>
		</contour>
		<contour>
			<point x="187" y="58"/>
			<point x="136" y="101"/>
			<point x="136" y="225" type="curve" smooth="yes"/>
			<point x="136" y="344"/>
			<point x="187" y="411"/>
			<point x="274" y="411" type="curve" smooth="yes"/>
			<point x="305" y="411"/>
			<point x="335" y="403"/>
			<point x="362" y="385" type="curve"/>
			<point x="362" y="140" type="line"/>
			<point x="329" y="82"/>
			<point x="285" y="58"/>
			<point x="239" y="58" type="curve" smooth="yes"/>
		</contour>
		<contour>
			<point x="342" y="500"/>
			<point x="377" y="542"/>
			<point x="377" y="596" type="curve" smooth="yes"/>
			<point x="377" y="650"/>
			<point x="342" y="693"/>
			<point x="272" y="693" type="curve" smooth="yes"/>
			<point x="206" y="693"/>
			<point x="170" y="650"/>
			<point x="170" y="596" type="curve" smooth="yes"/>
			<point x="170" y="542"/>
			<point x="206" y="500"/>
			<point x="272" y="500" type="curve" smooth="yes"/>
		</contour>
		<contour>
			<point x="249" y="543"/>
			<point x="233" y="567"/>
			<point x="233" y="596" type="curve" smooth="yes"/>
			<point x="233" y="626"/>
			<point x="249" y="649"/>
			<point x="272" y="649" type="curve" smooth="yes"/>
			<point x="299" y="649"/>
			<point x="312" y="626"/>
			<point x="312" y="596" type="curve" smooth="yes"/>
			<point x="312" y="567"/>
			<point x="299" y="543"/>
			<point x="272" y="543" type="curve" smooth="yes"/>
		</contour>
	</outline>
</glyph>
<glyph name="ae" format="2">
	<advance width="784"/>
	<unicode hex="00E6"/>
	<outline>
		<contour>
			<point x="278" y="-13"/>
			<point x="341" y="28"/>
			<point x="371" y="96" type="curve"/>
			<point x="405" y="28"/>
			<point x="470" y="-13"/>
			<point x="553" y="-13" type="curve" smooth="yes"/>
			<point x="625" y="-13"/>
			<point x="688" y="15"/>
			<point x="733" y="68" type="curve"/>
			<point x="735" y="70"/>
			<point x="736" y="73"/>
			<point x="736" y="77" type="curve" smooth="yes"/>
			<point x="736" y="89"/>
			<point x="723" y="102"/>
			<point x="713" y="102" type="curve" smooth="yes"/>
			<point x="709" y="102"/>
			<point x="706" y="101"/>
			<point x="704" y="99" type="curve" smooth="yes"/>
			<point x="668" y="63"/>
			<point x="623" y="47"/>
			<point x="572" y="47" type="curve" smooth="yes"/>
			<point x="485" y="47"/>
			<point x="438" y="112"/>
			<point x="438" y="219" type="curve" smooth="yes"/>
			<point x="438" y="347"/>
			<point x="485" y="417"/>
			<point x="563" y="417" type="curve" smooth="yes"/>
			<point x="620" y="417"/>
			<point x="648" y="374"/>
			<point x="648" y="329" type="curve" smooth="yes"/>
			<point x="648" y="277"/>
			<point x="610" y="227"/>
			<point x="533" y="227" type="curve" smooth="yes"/>
			<point x="496" y="227"/>
			<point x="484" y="238"/>
			<point x="475" y="238" type="curve" smooth="yes"/>
			<point x="468" y="238"/>
			<point x="460" y="229"/>
			<point x="460" y="218" type="curve" smooth="yes"/>
			<point x="460" y="186"/>
			<point x="535" y="176"/>
			<point x="562" y="176" type="curve" smooth="yes"/>
			<point x="675" y="176"/>
			<point x="734" y="254"/>
			<point x="734" y="328" type="curve" smooth="yes"/>
			<point x="734" y="396"/>
			<point x="684" y="461"/>
			<point x="580" y="461" type="curve" smooth="yes"/>
			<point x="500" y="461"/>
			<point x="436" y="431"/>
			<point x="396" y="380" type="curve"/>
			<point x="359" y="431"/>
			<point x="302" y="461"/>
			<point x="229" y="461" type="curve" smooth="yes"/>
			<point x="126" y="461"/>
			<point x="53" y="405"/>
			<point x="53" y="388" type="curve" smooth="yes"/>
			<point x="53" y="375"/>
			<point x="67" y="361"/>
			<point x="77" y="361" type="curve" smooth="yes"/>
			<point x="90" y="361"/>
			<point x="112" y="402"/>
			<point x="211" y="402" type="curve" smooth="yes"/>
			<point x="299" y="402"/>
			<point x="345" y="337"/>
			<point x="345" y="229" type="curve" smooth="yes"/>
			<point x="345" y="104"/>
			<point x="296" y="36"/>
			<point x="213" y="36" type="curve" smooth="yes"/>
			<point x="155" y="36"/>
			<point x="127" y="76"/>
			<point x="127" y="119" type="curve" smooth="yes"/>
			<point x="127" y="173"/>
			<point x="165" y="227"/>
			<point x="241" y="227" type="curve" smooth="yes"/>
			<point x="284" y="227"/>
			<point x="298" y="215"/>
			<point x="309" y="215" type="curve" smooth="yes"/>
			<point x="315" y="215"/>
			<point x="322" y="224"/>
			<point x="322" y="234" type="curve" smooth="yes"/>
			<point x="322" y="266"/>
			<point x="241" y="277"/>
			<point x="214" y="277" type="curve" smooth="yes"/>
			<point x="101" y="277"/>
			<point x="40" y="196"/>
			<point x="40" y="120" type="curve" smooth="yes"/>
			<point x="40" y="52"/>
			<point x="91" y="-13"/>
			<point x="194" y="-13" type="curve" smooth="yes"/>
		</contour>
	</outline>
</glyph>
<glyph name="ccedilla" format="2">
	<advance width="460"/>
	<unicode hex="00E7"/>
	<outline>
		<contour>
			<point x="280" y="-267"/>
			<point x="332" y="-220"/>
			<point x="332" y="-162" type="curve" smooth="yes"/>
			<point x="332" y="-93"/>
			<point x="283" y="-60"/>
			<point x="230" y="-60" type="curve" smooth="yes"/>
			<point x="219" y="-60"/>
			<point x="208" y="-61"/>
			<point x="196" y="-63" type="curve"/>
			<point x="236" y="-12" type="line"/>
			<point x="245" y="-12"/>
			<point x="251" y="-13"/>
			<point x="260" y="-13" type="curve" smooth="yes"/>
			<point x="321" y="-13"/>
			<point x="380" y="14"/>
			<point x="423" y="63" type="curve"/>
			<point x="425" y="63"/>
			<point x="425" y="67"/>
			<point x="425" y="70" type="curve" smooth="yes"/>
			<point x="425" y="82"/>
			<point x="412" y="96"/>
			<point x="402" y="96" type="curve" smooth="yes"/>
			<point x="398" y="96"/>
			<point x="395" y="95"/>
			<point x="394" y="94" type="curve"/>
			<point x="356" y="63"/>
			<point x="319" y="48"/>
			<point x="274" y="48" type="curve" smooth="yes"/>
			<point x="188" y="48"/>
			<point x="135" y="119"/>
			<point x="135" y="230" type="curve" smooth="yes"/>
			<point x="135" y="341"/>
			<point x="181" y="414"/>
			<point x="250" y="414" type="curve" smooth="yes"/>
			<point x="302" y="414"/>
			<point x="336" y="385"/>
			<point x="336" y="337" type="curve" smooth="yes"/>
			<point x="336" y="285"/>
			<point x="313" y="271"/>
			<point x="313" y="262" type="curve" smooth="yes"/>
			<point x="313" y="255"/>
			<point x="318" y="253"/>
			<point x="330" y="253" type="curve" smooth="yes"/>
			<point x="382" y="253"/>
			<point x="419" y="289"/>
			<point x="419" y="341" type="curve" smooth="yes"/>
			<point x="419" y="411"/>
			<point x="354" y="461"/>
			<point x="260" y="461" type="curve" smooth="yes"/>
			<point x="127" y="461"/>
			<point x="40" y="369"/>
			<point x="40" y="224" type="curve" smooth="yes"/>
			<point x="40" y="107"/>
			<point x="106" y="19"/>
			<point x="205" y="-5" type="curve"/>
			<point x="138" y="-93" type="line"/>
			<point x="156" y="-108" type="line"/>
			<point x="175" y="-98"/>
			<point x="191" y="-94"/>
			<point x="205" y="-94" type="curve" smooth="yes"/>
			<point x="247" y="-94"/>
			<point x="266" y="-127"/>
			<point x="266" y="-161" type="curve" smooth="yes"/>
			<point x="266" y="-194"/>
			<point x="246" y="-229"/>
			<point x="209" y="-229" type="curve" smooth="yes"/>
			<point x="190" y="-229"/>
			<point x="172" y="-216"/>
			<point x="172" y="-193" type="curve" smooth="yes"/>
			<point x="172" y="-167"/>
			<point x="185" y="-162"/>
			<point x="185" y="-153" type="curve" smooth="yes"/>
			<point x="185" y="-148"/>
			<point x="179" y="-145"/>
			<point x="168" y="-145" type="curve" smooth="yes"/>
			<point x="138" y="-145"/>
			<point x="111" y="-165"/>
			<point x="111" y="-197" type="curve" smooth="yes"/>
			<point x="111" y="-243"/>
			<point x="160" y="-267"/>
			<point x="210" y="-267" type="curve" smooth="yes"/>
		</contour>
	</outline>
</glyph>
<glyph name="egrave" format="2">
	<advance width="479"/>
	<unicode hex="00E8"/>
	<outline>
		<contour>
			<point x="319" y="-13"/>
			<point x="383" y="15"/>
			<point x="429" y="68" type="curve"/>
			<point x="430" y="70"/>
			<point x="433" y="73"/>
			<point x="433" y="77" type="curve" smooth="yes"/>
			<point x="433" y="89"/>
			<point x="418" y="102"/>
			<point x="408" y="102" type="curve" smooth="yes"/>
			<point x="404" y="102"/>
			<point x="402" y="101"/>
			<point x="400" y="99" type="curve" smooth="yes"/>
			<point x="364" y="63"/>
			<point x="318" y="47"/>
			<point x="268" y="47" type="curve" smooth="yes"/>
			<point x="180" y="47"/>
			<point x="134" y="112"/>
			<point x="134" y="219" type="curve" smooth="yes"/>
			<point x="134" y="347"/>
			<point x="180" y="417"/>
			<point x="258" y="417" type="curve" smooth="yes"/>
			<point x="313" y="417"/>
			<point x="344" y="374"/>
			<point x="344" y="329" type="curve" smooth="yes"/>
			<point x="344" y="277"/>
			<point x="306" y="227"/>
			<point x="229" y="227" type="curve" smooth="yes"/>
			<point x="191" y="227"/>
			<point x="180" y="238"/>
			<point x="170" y="238" type="curve" smooth="yes"/>
			<point x="163" y="238"/>
			<point x="157" y="229"/>
			<point x="157" y="218" type="curve" smooth="yes"/>
			<point x="157" y="186"/>
			<point x="230" y="176"/>
			<point x="257" y="176" type="curve" smooth="yes"/>
			<point x="369" y="176"/>
			<point x="430" y="254"/>
			<point x="430" y="328" type="curve" smooth="yes"/>
			<point x="430" y="396"/>
			<point x="380" y="461"/>
			<point x="275" y="461" type="curve" smooth="yes"/>
			<point x="133" y="461"/>
			<point x="40" y="364"/>
			<point x="40" y="219" type="curve" smooth="yes"/>
			<point x="40" y="79"/>
			<point x="122" y="-13"/>
			<point x="249" y="-13" type="curve" smooth="yes"/>
		</contour>
		<contour>
			<point x="329" y="547" type="line"/>
			<point x="188" y="688" type="line"/>
			<point x="165" y="677"/>
			<point x="149" y="658"/>
			<point x="149" y="631" type="curve" smooth="yes"/>
			<point x="149" y="605"/>
			<point x="163" y="584"/>
			<point x="200" y="566" type="curve" smooth="yes"/>
			<point x="304" y="517" type="line"/>
		</contour>
	</outline>
</glyph>
<glyph name="ecircumflex" format="2">
	<advance width="479"/>
	<unicode hex="00EA"/>
	<outline>
		<contour>
			<point x="319" y="-13"/>
			<point x="383" y="15"/>
			<point x="429" y="68" type="curve"/>
			<point x="430" y="70"/>
			<point x="433" y="73"/>
			<point x="433" y="77" type="curve" smooth="yes"/>
			<point x="433" y="89"/>
			<point x="418" y="102"/>
			<point x="408" y="102" type="curve" smooth="yes"/>
			<point x="404" y="102"/>
			<point x="402" y="101"/>
			<point x="400" y="99" type="curve" smooth="yes"/>
			<point x="364" y="63"/>
			<point x="318" y="47"/>
			<point x="268" y="47" type="curve" smooth="yes"/>
			<point x="180" y="47"/>
			<point x="134" y="112"/>
			<point x="134" y="219" type="curve" smooth="yes"/>
			<point x="134" y="347"/>
			<point x="180" y="417"/>
			<point x="258" y="417" type="curve" smooth="yes"/>
			<point x="313" y="417"/>
			<point x="344" y="374"/>
			<point x="344" y="329" type="curve" smooth="yes"/>
			<point x="344" y="277"/>
			<point x="306" y="227"/>
			<point x="229" y="227" type="curve" smooth="yes"/>
			<point x="191" y="227"/>
			<point x="180" y="238"/>
			<point x="170" y="238" type="curve" smooth="yes"/>
			<point x="163" y="238"/>
			<point x="157" y="229"/>
			<point x="157" y="218" type="curve" smooth="yes"/>
			<point x="157" y="186"/>
			<point x="230" y="176"/>
			<point x="257" y="176" type="curve" smooth="yes"/>
			<point x="369" y="176"/>
			<point x="430" y="254"/>
			<point x="430" y="328" type="curve" smooth="yes"/>
			<point x="430" y="396"/>
			<point x="380" y="461"/>
			<point x="275" y="461" type="curve" smooth="yes"/>
			<point x="133" y="461"/>
			<point x="40" y="364"/>
			<point x="40" y="219" type="curve" smooth="yes"/>
			<point x="40" y="79"/>
			<point x="122" y="-13"/>
			<point x="249" y="-13" type="curve" smooth="yes"/>
		</contour>
		<contour>
			<point x="240" y="590" type="line"/>
			<point x="336" y="517" type="line"/>
			<point x="364" y="540" type="line"/>
			<point x="324" y="611"/>
			<point x="273" y="672"/>
			<point x="253" y="684" type="curve"/>
			<point x="229" y="684" type="line"/>
			<point x="205" y="670"/>
			<point x="155" y="609"/>
			<point x="116" y="540" type="curve"/>
			<point x="146" y="517" type="line"/>
		</contour>
	</outline>
</glyph>
<glyph name="igrave" format="2">
	<advance width="282"/>
	<unicode hex="00EC"/>
	<outline>
		<contour>
			<point x="197" y="-13"/>
			<point x="237" y="10"/>
			<point x="270" y="45" type="curve"/>
			<point x="253" y="68" type="line"/>
			<point x="236" y="55"/>
			<point x="221" y="49"/>
			<point x="207" y="49" type="curve" smooth="yes"/>
			<point x="188" y="49"/>
			<point x="180" y="60"/>
			<point x="180" y="80" type="curve" smooth="yes"/>
			<point x="180" y="434" type="line" smooth="yes"/>
			<point x="180" y="450"/>
			<point x="168" y="461"/>
			<point x="150" y="461" type="curve" smooth="yes"/>
			<point x="117" y="461"/>
			<point x="67" y="439"/>
			<point x="32" y="407" type="curve"/>
			<point x="39" y="385" type="line"/>
			<point x="80" y="385" type="line" smooth="yes"/>
			<point x="93" y="385"/>
			<point x="98" y="379"/>
			<point x="98" y="363" type="curve" smooth="yes"/>
			<point x="98" y="83" type="line" smooth="yes"/>
			<point x="98" y="15"/>
			<point x="118" y="-13"/>
			<point x="168" y="-13" type="curve" smooth="yes"/>
		</contour>
		<contour>
			<point x="231" y="547" type="line"/>
			<point x="91" y="688" type="line"/>
			<point x="67" y="677"/>
			<point x="52" y="658"/>
			<point x="52" y="631" type="curve" smooth="yes"/>
			<point x="52" y="605"/>
			<point x="65" y="584"/>
			<point x="103" y="566" type="curve" smooth="yes"/>
			<point x="206" y="517" type="line"/>
		</contour>
	</outline>
</glyph>
